<?xml version="1.0" encoding="UTF-8" standalone="no"?>
<svg width="108px" height="131px" viewBox="0 0 108 131" version="1.1" xmlns="http://www.w3.org/2000/svg" xmlns:xlink="http://www.w3.org/1999/xlink">
    <!-- Generator: Sketch 42 (36781) - http://www.bohemiancoding.com/sketch -->
    <title>mouse white</title>
    <desc>Created with Sketch.</desc>
    <defs></defs>
    <g id="Page-1" stroke="none" stroke-width="1" fill="none" fill-rule="evenodd">
        <g id="Desktop" transform="translate(-71.000000, -244.000000)" fill="#FFFFFF">
            <path d="M113.381951,290.567283 C116.955692,289.681793 117.525404,288.684573 114.663007,288.324923 C113.882767,288.226923 113.151241,287.995963 113.037394,287.811753 C112.923545,287.627543 112.738495,287.489133 112.626175,287.504163 C112.088921,287.576063 111.8787,287.476363 111.030965,286.747243 C110.026649,285.883513 109.840165,284.69589 110.298735,282.084015 C110.533372,280.747592 110.476997,280.551179 109.563999,279.524015 C109.020124,278.912127 108.489679,278.089973 108.385234,277.697007 C108.280793,277.30404 107.700329,276.676591 107.095317,276.302671 C106.222121,275.763007 105.710028,275.665602 104.611833,275.830287 C103.255433,276.033691 102.048274,276.658981 101.995138,277.185698 C101.980388,277.331883 101.796729,277.866491 101.587004,278.373714 C101.287945,279.096997 101.293321,279.493919 101.611934,280.213714 C101.835371,280.718491 102.127028,281.131493 102.260065,281.131493 C102.393102,281.131493 102.50195,281.29077 102.50195,281.485445 C102.50195,281.847128 103.1877,282.788495 106.322036,286.729483 C107.30099,287.960383 108.211518,289.112383 108.345431,289.289483 C108.479348,289.466593 108.895911,290.020353 109.271131,290.520063 C109.76403,291.176503 110.140465,291.380623 110.627649,291.255643 C110.998513,291.160543 112.23795,290.850743 113.381951,290.567283 Z M124.133164,293.057613 C123.952543,291.629013 123.993765,291.411463 124.414505,291.572913 C124.882245,291.752403 125.32838,292.825833 125.203845,293.472123 C124.825167,295.437373 126.358732,295.495333 130.341951,293.666323 C132.458876,292.694263 133.597186,291.753023 134.722738,290.043963 C135.343026,289.102103 135.839042,288.297003 135.824997,288.254853 C135.797217,288.171453 135.867697,287.927213 136.393769,286.283743 C136.974034,284.470943 136.817468,283.70301 135.624357,282.509899 C134.591333,281.476875 134.381551,281.4006 132.85205,281.501899 C131.010274,281.623883 130.476623,281.144466 131.788722,280.546632 C132.966684,280.009919 134.191801,280.08236 135.537202,280.768287 L136.707778,281.36508 L136.804868,280.535701 C136.905339,279.677394 138.106801,278.821343 138.824455,279.096731 C139.039399,279.179211 139.378699,279.605397 139.578449,280.043803 C139.892094,280.732175 139.834955,280.947583 139.159563,281.622975 C138.729425,282.053112 138.189495,282.332933 137.959723,282.244799 C137.639604,282.122011 137.541953,282.629272 137.541953,284.414949 C137.541953,286.404163 137.387534,287.058983 136.487195,288.887673 C135.355335,291.186583 133.473243,293.387043 132.327857,293.750573 C131.939611,293.873803 131.621953,294.132913 131.621953,294.326393 C131.621953,294.519863 131.538073,294.594283 131.435566,294.491773 C131.333054,294.389263 130.505054,294.651853 129.595566,295.075313 C127.612084,295.998823 125.531895,296.093253 124.832971,295.291493 C124.564473,294.983493 124.249561,293.978253 124.133164,293.057613 Z M147.646511,333.884133 C147.337301,333.552243 146.881281,332.887123 146.633131,332.406093 C146.209101,331.584123 145.514391,330.725973 143.359106,328.361833 C142.86254,327.817143 142.250543,326.982653 141.999113,326.507393 C141.747682,326.032143 141.354239,325.528143 141.124796,325.387393 C140.895353,325.246653 140.211349,324.411493 139.604789,323.531493 C138.998226,322.651493 138.422351,321.859493 138.325058,321.771493 C138.227768,321.683493 137.803369,321.035493 137.381951,320.331493 C136.960533,319.627493 136.522377,318.979493 136.408274,318.891493 C136.294169,318.803493 135.593455,317.836673 134.851129,316.743003 C133.510578,314.767973 133.49166,314.754943 132.05662,314.818833 L130.611801,314.883133 L130.702421,316.807293 C130.788361,318.632093 131.397445,320.108363 132.420492,320.971463 C132.851125,321.334773 135.524002,324.567633 136.785906,326.251463 C137.247551,326.867463 137.981026,327.751693 138.415849,328.216423 C138.850671,328.681143 139.526213,329.578783 139.917049,330.211173 C140.307887,330.843563 140.977378,331.636053 141.404809,331.972273 C141.832236,332.308483 142.181951,332.730133 142.181951,332.909263 C142.181951,333.088393 143.266905,334.312893 144.592951,335.630373 C147.014681,338.036443 147.716391,338.334393 148.561891,337.315633 C148.976901,336.815613 148.414931,334.708933 147.646511,333.884133 Z M95.7019507,266.09861 C96.1271317,266.11122 97.2964177,267.190715 97.6644977,267.910456 C98.4179567,269.383768 97.8929137,269.339931 96.5019507,267.813386 C95.4962417,266.709659 95.2042837,266.083855 95.7019507,266.09861 Z M97.3165967,273.451493 C98.6106867,273.451493 99.3019507,273.161026 99.3019507,272.617256 C99.3019507,272.372088 99.5899507,272.171493 99.9419507,272.171493 C100.684729,272.171493 100.780962,271.340469 100.136495,270.491493 C99.5751317,269.751989 99.0723407,269.782587 98.8219507,270.571493 C98.7102287,270.923493 98.5085267,271.211493 98.3737207,271.211493 C97.7677587,271.211493 97.7893237,270.743266 98.4380307,269.815323 C98.8239987,269.263215 99.1757367,268.752031 99.2196757,268.679352 C99.2636157,268.606672 99.8517967,269.110674 100.526745,269.799352 C101.201692,270.488031 101.971378,271.009336 102.237157,270.95781 C103.017951,270.806437 103.401141,268.414895 102.981404,266.312837 C102.62438,264.524853 102.746031,264.097298 103.385817,264.891493 C103.806044,265.413141 104.074585,266.808959 104.152293,268.875487 C104.219553,270.664274 104.560946,270.844085 104.906117,269.27253 C105.074405,268.506309 105.210185,268.376149 105.548389,268.656834 C105.784265,268.852597 105.92358,269.291477 105.857977,269.63213 C105.792377,269.972779 105.805997,270.251493 105.888247,270.251493 C106.232679,270.251493 107.036919,267.52877 107.022509,266.411493 C107.000719,264.720619 105.551212,261.771493 104.741954,261.771493 C104.451234,261.771493 104.142181,261.286511 103.958217,260.541605 C103.41494,258.341791 98.0773777,253.197077 96.2556437,253.11733 C95.8560787,253.09983 94.5420407,252.498933 93.3355567,251.781983 C92.1290737,251.065029 90.6019537,250.308207 89.9419537,250.100146 C89.2819537,249.892088 88.7419537,249.58053 88.7419537,249.407791 C88.7419537,249.235055 88.5961207,249.183851 88.4178767,249.294011 C88.2396367,249.404171 87.6415127,249.268671 87.0887157,248.992898 C86.5359127,248.717125 86.0337457,248.491493 85.9727857,248.491493 C85.6406767,248.491493 85.9590857,249.142869 86.6619507,249.901253 C87.1019507,250.376021 87.4619507,250.981547 87.4619507,251.246866 C87.4619507,251.788213 87.0426167,251.618792 85.9506287,250.636261 L85.2393077,249.996239 L85.5253007,250.993442 C85.6826007,251.541906 85.8871797,252.113429 85.9799247,252.263493 C86.0726747,252.41356 86.2169807,252.886248 86.3006197,253.313915 C86.8476567,256.111167 88.5649237,260.080661 89.9630997,261.77981 C90.1116887,261.960386 90.5063887,262.536386 90.8402127,263.05981 C91.1740367,263.583237 91.5294327,264.083493 91.6299767,264.171493 C91.7305207,264.259493 92.1543567,264.835493 92.5718327,265.451493 C92.9893107,266.067493 94.0983727,267.306018 95.0364177,268.203768 C96.9387127,270.024357 97.1904337,270.636085 95.8946967,270.289554 C94.3869327,269.886315 91.0991797,266.701839 89.1574927,263.763979 C87.5314707,261.303739 87.2762097,261.046453 87.0938487,261.683979 C86.7651537,262.833077 86.7930517,263.217627 87.1988597,263.131493 C87.4061617,263.087493 87.7067087,263.483493 87.8667477,264.011493 C88.0267827,264.539493 88.3706357,265.691493 88.6308597,266.571493 C89.8416527,270.665995 91.2360947,272.283064 92.4818517,271.037307 C92.8904757,270.628683 93.0472047,270.608747 93.2515607,270.939407 C93.5229077,271.378454 92.9594737,271.924819 92.5172307,271.651497 C91.8469587,271.237247 92.3643957,273.029132 93.0797397,273.599478 C94.1254807,274.433241 97.4132047,274.740307 96.7509647,273.942361 C96.4000337,273.519509 96.4784117,273.451493 97.3165967,273.451493 Z M104.934889,272.313247 C106.624348,272.087944 106.891474,271.974347 106.545474,271.628351 C106.204089,271.286965 104.375913,271.426594 103.301951,271.876079 C102.773951,272.097061 102.269951,272.291599 102.181951,272.308383 C102.093951,272.325183 101.589951,272.522031 101.061951,272.745861 C100.123589,273.143653 98.0121687,275.918162 98.0316817,276.727778 C98.0369817,276.949819 98.1968917,276.863944 98.3869167,276.536943 C98.5769457,276.209938 99.3285687,275.36117 100.057189,274.650792 C101.587615,273.158677 102.741333,272.605781 104.934889,272.313247 Z M100.077017,278.002671 C100.227696,278.129819 100.636713,277.656331 100.985942,276.950475 C101.335171,276.244619 102.054349,275.442959 102.584115,275.169007 C103.663961,274.610597 105.733203,274.468187 107.061955,274.860834 C107.759241,275.066882 107.941955,275.016347 107.941955,274.617442 C107.941955,273.136005 103.585801,273.11292 101.656941,274.584132 C101.059104,275.040122 100.666912,275.570071 100.785401,275.761793 C100.911337,275.965556 100.853021,276.019018 100.645027,275.890471 C100.204114,275.617976 99.3019507,277.282805 99.3019507,278.368936 C99.3019507,279.206018 99.9514997,279.667138 100.323647,279.094242 C100.44558,278.906536 100.378327,278.532127 100.174197,278.262226 C99.9700657,277.992322 99.9263317,277.875522 100.077017,278.002671 Z M88.3056687,374.106053 C86.0417137,373.983683 84.0257137,373.826513 83.8256687,373.756783 C83.4550997,373.627613 82.0564497,373.341993 80.9019507,373.159743 C79.9359697,373.007243 77.4251287,372.293433 77.0619507,372.068063 C76.8859507,371.958853 76.5598067,371.841863 76.3371887,371.808103 C75.8234007,371.730203 73.4398967,370.290183 72.5265687,369.505903 C69.9243367,367.271353 70.7079667,363.171123 74.4270297,359.562013 C75.4418237,358.577233 76.6370927,357.483493 77.0831887,357.131493 C77.5292817,356.779493 78.1920977,356.243773 78.5561167,355.940993 C78.9201367,355.638223 79.5248657,355.293593 79.8999607,355.175163 C80.2750547,355.056723 81.1939507,354.459103 81.9419507,353.847113 C82.6899507,353.235123 83.3019507,352.846063 83.3019507,352.982543 C83.3019507,353.119023 83.5539507,353.009743 83.8619507,352.739683 C84.1699507,352.469623 84.9259507,351.995213 85.5419507,351.685433 C86.1579507,351.375653 86.7677457,350.962283 86.8970517,350.766843 C87.1396517,350.844193 87.3219507,350.831373 87.5419507,350.662143 C87.7619507,350.492913 89.1299507,349.883103 90.5819507,349.306993 C92.0339507,348.730883 93.2219507,348.203873 93.2219507,348.135853 C93.2219507,348.067853 92.6459507,347.418663 91.9419507,346.693243 C91.2379507,345.967813 90.6619507,345.236583 90.6619507,345.068283 C90.6619507,344.899973 90.0859507,343.957903 89.3819507,342.974773 C88.6779507,341.991653 88.1019507,341.012633 88.1019507,340.799183 C88.1019507,340.585733 87.7437647,339.601183 87.3059857,338.611273 C86.8682067,337.621393 86.5728567,336.811473 86.6496567,336.811473 C86.7264567,336.811473 86.5944467,336.343473 86.3563027,335.771473 C85.3255027,333.295593 85.5743727,326.886463 86.8812917,322.251473 C87.2286767,321.019473 87.5472527,319.795473 87.5892367,319.531473 C87.6312167,319.267473 87.8417397,318.619473 88.0570577,318.091473 C88.2723727,317.563473 88.6852727,316.483473 88.9746067,315.691473 C90.2026837,312.329833 93.7252147,306.265513 96.9929847,301.887193 C98.8185047,299.441263 104.612543,294.571473 105.697164,294.571473 C105.858306,294.571473 106.105305,294.390143 106.24605,294.168503 C106.386796,293.946873 107.040969,293.406873 107.699765,292.968503 C108.358562,292.530143 108.898562,292.057423 108.899765,291.918023 C108.903065,291.537833 107.002716,288.942513 105.461951,287.222933 C104.713951,286.388123 104.101951,285.612036 104.101951,285.498289 C104.101951,285.384539 103.849951,285.028651 103.541951,284.707419 C102.480809,283.600702 101.48902,282.249614 101.196453,281.512219 C101.035135,281.105647 100.775196,280.852063 100.618809,280.948715 C100.462421,281.045368 100.156521,280.910031 99.9390257,280.64797 C99.7215347,280.385909 99.3593047,280.171493 99.1340727,280.171493 C98.9088407,280.171493 98.5778517,279.750651 98.3985427,279.236287 C98.2192367,278.721922 97.7685617,278.138402 97.3970517,277.939573 C97.0255377,277.740747 96.7621557,277.343067 96.8117617,277.055842 C96.8875517,276.616955 96.6213617,276.547471 95.1437267,276.620431 C93.6594897,276.693721 91.7520977,277.227925 92.7419507,277.293103 C92.9179507,277.304683 92.7098407,277.509176 92.2794967,277.747515 C91.1722167,278.360757 90.2923027,277.859477 89.6191447,276.231938 C89.3126897,275.490994 89.0619507,274.719083 89.0619507,274.516578 C89.0619507,274.314072 88.6655447,273.811586 88.1810487,273.399938 C87.1486387,272.52277 84.9019507,269.221231 84.9019507,268.581263 C84.9019507,268.33829 84.7689297,268.002693 84.6063477,267.835493 C84.1300307,267.345643 83.7204407,262.732927 83.7870867,258.609186 C83.8552767,254.390255 83.5690487,253.020341 82.0355447,250.226088 C80.9780177,248.299138 80.8448337,247.657199 81.4600207,247.452136 C81.7479667,247.356156 81.6494737,246.913823 81.1039857,245.853221 C79.9928307,243.692786 80.5107887,243.387691 82.3573587,245.114939 C83.2138037,245.916043 84.1504727,246.571493 84.4388437,246.571493 C84.7272147,246.571493 85.3453847,246.833922 85.8125527,247.154671 C86.8943287,247.897391 88.4042067,248.58333 90.8009397,249.420895 C91.8453847,249.78589 93.2462967,250.446088 93.9140787,250.888005 C94.5818607,251.329925 95.4108177,251.691493 95.7562037,251.691493 C96.1015927,251.691493 96.4731767,251.835493 96.5819507,252.011493 C96.6907247,252.187493 97.0024367,252.331493 97.2746417,252.331493 C97.8350417,252.331493 99.1009937,253.301218 101.260706,255.384837 C102.074021,256.169499 102.884674,256.811493 103.062156,256.811493 C103.375295,256.811493 105.701951,259.460127 105.701951,259.8166 C105.701951,259.91417 106.049769,260.753935 106.474879,261.682744 C108.010578,265.03805 108.207625,266.906197 107.336037,269.847179 C107.144735,270.492687 107.142498,270.952946 107.330037,271.068888 C108.093708,271.540863 108.966588,273.917413 108.808677,275.094715 C108.680997,276.046642 108.833767,276.602306 109.519308,277.679413 C110.734789,279.589163 111.31486,280.033327 111.635324,279.299659 C111.771817,278.98717 111.861519,278.626146 111.834658,278.497391 C111.713036,277.914392 115.946844,274.066005 117.407321,273.432024 C119.49765,272.524629 121.752623,271.845077 122.054409,272.031589 C122.188201,272.114279 122.385202,272.040289 122.492188,271.867195 C123.078905,270.917864 126.652905,272.826789 127.018885,274.284968 C127.16614,274.871679 127.361858,275.030933 127.741372,274.872853 C128.027657,274.753605 128.54989,274.616011 128.90189,274.56709 C129.25389,274.51817 130.47789,274.228715 131.62189,273.923858 C134.591122,273.132613 140.837001,273.090207 142.98189,273.846728 C145.234951,274.641407 146.642031,276.208069 146.699871,277.986386 C146.787871,280.691775 146.003081,284.4222 144.826441,286.891493 C143.742012,289.167283 142.406386,291.436303 141.702453,292.198663 C141.526143,292.389613 141.09389,292.945403 140.74189,293.433753 C138.670975,296.306863 135.726901,298.007353 132.296898,298.311553 C129.208415,298.585473 129.407081,298.092553 129.967439,304.091323 L130.243925,307.051163 L131.703657,308.411323 C133.611599,310.189133 134.057183,311.085453 134.24901,313.531493 C134.28697,314.015493 134.431394,314.411493 134.569957,314.411493 C134.708521,314.411493 134.822066,314.591493 134.822281,314.811493 C134.822921,315.407863 136.286258,316.996623 136.585545,316.725813 C136.456443,317.172593 138.582043,320.770233 139.521237,321.714353 C139.752593,321.946923 139.942552,322.234923 139.943368,322.354353 C139.944328,322.473773 140.340181,323.003493 140.823368,323.531493 C141.306552,324.059493 142.095707,325.019033 142.577045,325.663793 C143.058382,326.308563 143.639601,327.028563 143.868645,327.263793 C144.097688,327.499033 144.711861,328.267493 145.233491,328.971493 C145.755111,329.675493 146.397891,330.426913 146.661891,330.641313 C146.925891,330.855713 147.018971,331.035713 146.868741,331.041313 C146.718501,331.047313 147.042501,331.560503 147.588741,332.182633 C148.134971,332.804753 148.581891,333.452753 148.581891,333.622633 C148.581891,333.792503 148.859841,334.209443 149.199551,334.549153 C150.046621,335.396233 149.896021,337.670843 148.941681,338.443613 C147.828501,339.345023 146.470221,338.902143 144.589931,337.024693 C142.738901,335.176463 139.3294,331.042983 137.75268,328.735623 C137.182958,327.901893 136.213614,326.677893 135.598587,326.015623 C134.98356,325.353353 133.731998,323.920713 132.817342,322.831983 C131.766043,321.580603 131.070421,320.988243 130.926216,321.221563 C130.800757,321.424573 130.702357,323.755353 130.707553,326.401073 C130.717893,331.663383 130.50835,334.302523 130.005627,335.241873 C129.792126,335.640803 129.789381,335.851493 129.997727,335.851493 C130.501113,335.851493 131.941935,337.548983 131.941935,338.142053 C131.941935,338.437453 131.852935,338.911073 131.744165,339.194533 C131.484895,339.870173 128.929013,341.025013 127.2755,341.213623 C126.277231,341.327503 125.560143,341.730673 124.2355,342.922823 C123.282037,343.780913 122.321935,344.484903 122.101935,344.487243 C121.881935,344.489243 121.701935,344.643993 121.701935,344.830383 C121.701935,345.016763 121.557935,345.080263 121.381935,344.971493 C121.205935,344.862723 121.061935,344.926193 121.061935,345.112603 C121.061935,345.298993 120.845935,345.451493 120.581935,345.451493 C120.317935,345.451493 120.101935,345.567333 120.101935,345.708903 C120.101935,345.979353 115.766828,348.302683 114.966498,348.461163 C114.710988,348.511763 114.072441,348.728453 113.547506,348.942703 C113.022569,349.156953 111.257762,349.679193 109.625711,350.103233 C107.058946,350.770133 106.086172,350.859793 102.42014,350.767343 C98.8129687,350.676343 97.9913527,350.557493 96.9019347,349.968833 C95.4807987,349.200943 94.4766647,349.277153 92.6738487,350.289733 C92.0845877,350.620703 91.4632337,350.891493 91.2930547,350.891493 C90.8681647,350.891493 87.4493427,352.572813 84.7419347,354.113223 C83.5099347,354.814183 82.2499347,355.472843 81.9419347,355.576913 C81.6339347,355.680983 81.3819347,355.893343 81.3819347,356.048813 C81.3819347,356.204283 81.1762197,356.331493 80.9247927,356.331493 C80.6733617,356.331493 80.2413617,356.557773 79.9647927,356.834353 C79.6882357,357.110923 79.4619507,357.251433 79.4619507,357.146593 C79.4619507,357.041753 78.9451637,357.427463 78.3135347,358.003733 C77.6819057,358.580003 76.9588757,359.168343 76.7068047,359.311163 C76.4547317,359.453973 76.3342227,359.709543 76.4390067,359.879093 C76.0298317,359.987453 75.0940067,360.924043 73.6429717,362.824403 C72.6453317,364.130973 72.5106867,364.519283 72.5840177,365.878373 C72.7023277,368.071063 73.0321137,368.507503 75.5104987,369.751233 C78.7931567,371.398573 81.2618967,372.115773 84.9019507,372.479593 C86.0459507,372.593933 87.5579507,372.775473 88.2619507,372.883013 C89.9454227,373.140193 110.885423,373.136703 112.741951,372.879013 C113.533951,372.769043 115.045951,372.593403 116.101951,372.488683 C117.157951,372.383963 118.237951,372.238933 118.501951,372.166403 C118.984748,372.033763 119.687618,371.918163 122.341951,371.534803 C123.133951,371.420423 124.213951,371.200683 124.741951,371.046493 C125.269951,370.892313 126.133951,370.694883 126.661951,370.607773 C127.970591,370.391853 128.31558,370.302153 132.901951,368.985223 C135.152581,368.338973 139.17062,366.771723 140.741951,365.927193 C141.797951,365.359623 143.345951,364.539553 144.181951,364.104793 C145.017951,363.670033 145.701951,363.207203 145.701951,363.076273 C145.701951,362.945353 145.881951,362.835373 146.101951,362.831893 C146.497591,362.825893 148.865301,361.839073 150.596961,360.958983 C151.155911,360.674903 151.406331,360.642673 151.263891,360.873183 C151.138441,361.076163 151.379721,361.001343 151.800071,360.706913 C152.220431,360.412493 152.863511,360.171593 153.229151,360.171593 C153.594791,360.171593 154.030751,360.038753 154.197951,359.876393 C154.506971,359.576323 157.433151,358.759763 159.453701,358.409763 C160.065161,358.303843 160.641161,358.116933 160.733701,357.994393 C160.960611,357.693923 163.364111,357.516903 167.701551,357.481213 C169.681331,357.464913 171.301171,357.379593 171.301191,357.291593 C171.301241,357.132633 173.345021,357.193693 176.101951,357.435113 C176.893951,357.504413 177.793951,357.572523 178.101951,357.586393 C178.409951,357.600293 178.661951,357.758413 178.661951,357.937853 C178.661951,358.123403 178.282421,358.187683 177.781951,358.086883 C176.847591,357.898713 168.177931,357.874053 166.021951,358.053483 C163.317951,358.278463 155.967691,359.859563 154.669601,360.495473 C154.401391,360.626853 153.389951,360.981193 152.421951,361.282893 C150.102191,362.005903 144.134575,364.875753 143.221951,365.707223 C142.825951,366.068003 142.501951,366.271923 142.501951,366.160363 C142.501951,366.048803 141.529951,366.450853 140.341951,367.053813 C138.072063,368.205863 129.648383,371.204903 127.764066,371.531853 C127.157903,371.637023 125.283775,372.007333 123.59934,372.354743 C121.914905,372.702163 119.917599,373.050873 119.160882,373.129663 C118.404165,373.208463 117.550338,373.342863 117.26349,373.428353 C116.555612,373.639303 113.72838,373.941353 110.821951,374.116543 C107.765324,374.300773 92.6773207,374.556433 92.5315857,374.426463 C92.4712857,374.372523 90.5696247,374.228423 88.3056687,374.106053 Z M120.471717,279.867464 C121.676348,278.62893 122.666329,277.722664 122.671682,277.853538 C122.676982,277.984415 122.828191,277.839488 123.007586,277.531487 C123.186981,277.223483 123.787564,276.736808 124.34221,276.449989 C125.841081,275.674891 126.226092,275.178779 126.006796,274.305042 C125.650169,272.884123 122.764316,272.319176 120.630313,273.252517 C120.075714,273.495077 118.9355,273.939925 118.096505,274.241061 C116.316537,274.879941 112.942511,277.798677 113.20206,278.475051 C113.29697,278.722376 113.25699,278.852034 113.11322,278.763179 C112.876945,278.617154 112.614804,279.137317 111.355272,282.251493 C111.141723,282.779493 111.042363,283.825131 111.134475,284.575135 C111.27619,285.729035 111.474212,286.031833 112.42195,286.543783 C113.107784,286.914253 114.095668,287.129933 114.970356,287.100143 C116.292404,287.055143 116.413563,286.978593 116.597484,286.072413 C116.974127,284.216683 118.287564,282.113093 120.471717,279.867464 Z M115.301951,347.359873 C115.389951,347.254033 116.109951,346.913823 116.901951,346.603873 C117.693951,346.293913 118.629951,345.777873 118.981951,345.457103 C119.333951,345.136343 120.170588,344.569463 120.841145,344.197383 C122.320018,343.376773 122.714169,343.073163 124.30901,341.526143 C125.312841,340.552413 125.84277,340.295463 127.066783,340.188933 C128.759884,340.041573 130.614745,339.226853 130.889957,338.509663 C131.138073,337.863083 130.116197,336.919783 128.599964,336.395733 C127.051487,335.860543 126.728693,335.211493 128.011001,335.211493 C129.565343,335.211493 129.825266,333.896253 129.844949,325.931493 C129.867889,316.646073 129.682204,314.522053 128.793029,313.899253 C128.405564,313.627863 128.101951,313.071703 128.101951,312.633353 C128.101951,311.773003 128.655452,311.573743 128.945525,312.329653 C129.046444,312.592643 129.280175,312.714393 129.464924,312.600213 C129.252223,313.280283 130.109506,313.708363 131.397602,313.625963 C133.075103,313.518643 133.379596,313.132893 132.879177,311.749003 C132.471439,310.621433 130.896869,308.686693 130.32573,308.611493 C129.696325,308.528593 129.531202,308.474873 129.136732,308.224483 C128.913861,308.083013 128.828655,307.810093 128.947388,307.617973 C129.173199,307.252603 129.134671,304.191133 128.886278,302.761903 C128.806898,302.305173 128.673312,301.537423 128.589417,301.055783 C128.383734,299.874973 127.741469,298.346053 127.232528,297.825693 C126.55311,297.131033 127.100067,296.773393 128.072675,297.276353 C128.921491,297.715293 130.341955,297.832373 130.341955,297.463393 C130.341955,297.368893 130.809955,297.279803 131.381955,297.265513 C134.684214,297.183013 136.999369,296.199843 138.97079,294.042793 C140.587446,292.273913 143.680464,287.516043 144.347831,285.771493 C145.666561,282.324277 146.074271,277.86053 145.204851,276.388709 C143.747942,273.92236 136.495747,273.51188 128.901955,275.465951 C128.725955,275.511241 127.573955,275.968213 126.341955,276.481445 C124.553555,277.226463 123.618099,277.903186 121.701955,279.838075 C118.151363,283.423413 116.994896,286.005933 117.623881,288.944893 C117.865625,290.074463 116.278729,291.051083 113.417881,291.533393 C112.821641,291.633913 112.084576,291.849533 111.779955,292.012563 C111.475337,292.175593 111.155689,292.238563 111.069629,292.152503 C110.983569,292.066403 110.731005,292.215503 110.508374,292.483763 C110.285744,292.752013 109.916493,292.971493 109.687814,292.971493 C109.459139,292.971493 108.305702,293.619493 107.124624,294.411493 C105.943545,295.203493 104.853497,295.851493 104.702294,295.851493 C104.551091,295.851493 104.24752,296.139493 104.027693,296.491493 C103.807865,296.843493 103.479798,297.131493 103.298659,297.131493 C102.900301,297.131493 97.5861917,302.538973 96.2229887,304.331493 C95.0522077,305.870983 91.9694777,311.127363 91.0620157,313.131493 C90.5099707,314.350683 89.7058847,316.358553 88.5630967,319.371493 C88.4295867,319.723493 88.3426807,320.117903 88.3699737,320.247963 C88.3972737,320.378013 88.2059607,321.026013 87.9448447,321.687963 C87.2072607,323.557793 86.5445497,328.687483 86.6524827,331.691493 C86.7261927,333.743203 86.9989497,335.119093 87.7625947,337.291493 C88.8415997,340.361013 89.7156827,342.251493 90.0559007,342.251493 C90.1705277,342.251493 90.4577247,342.718433 90.6941177,343.289143 C91.4839517,345.195963 94.8490047,348.283493 96.4161467,348.539253 C96.6769497,348.581853 96.9409497,348.768483 97.0028127,348.954063 C97.0646727,349.139653 97.3827897,349.291493 97.7097367,349.291493 C98.0366807,349.291493 98.3952537,349.438843 98.5065597,349.618943 C98.7876187,350.073703 106.88288,349.917823 108.633014,349.423953 C113.255708,348.119453 115.16062,347.529873 115.301951,347.359873 Z" id="mouse-white"></path>
        </g>
    </g>
</svg>