<?xml version="1.0" encoding="UTF-8" standalone="no"?>
<svg width="109px" height="131px" viewBox="0 0 109 131" version="1.1" xmlns="http://www.w3.org/2000/svg" xmlns:xlink="http://www.w3.org/1999/xlink">
    <!-- Generator: Sketch 42 (36781) - http://www.bohemiancoding.com/sketch -->
    <title>Combined Shape</title>
    <desc>Created with Sketch.</desc>
    <defs></defs>
    <g id="Page-1" stroke="none" stroke-width="1" fill="none" fill-rule="evenodd">
        <path d="M43.12,46.79579 C46.693741,45.9103 47.263453,44.91308 44.401056,44.55343 C43.620816,44.45543 42.88929,44.22447 42.775443,44.04026 C42.661594,43.85605 42.476544,43.71764 42.364224,43.73267 C41.82697,43.80457 41.616749,43.70487 40.769014,42.97575 C39.764698,42.11202 39.578214,40.924397 40.036784,38.312522 C40.271421,36.976099 40.215046,36.779686 39.302048,35.752522 C38.758173,35.140634 38.227728,34.31848 38.123283,33.925514 C38.018842,33.532547 37.438378,32.905098 36.833366,32.531178 C35.96017,31.991514 35.448077,31.894109 34.349882,32.058794 C32.993482,32.262198 31.786323,32.887488 31.733187,33.414205 C31.718437,33.56039 31.534778,34.094998 31.325053,34.602221 C31.025994,35.325504 31.03137,35.722426 31.349983,36.442221 C31.57342,36.946998 31.865077,37.36 31.998114,37.36 C32.131151,37.36 32.239999,37.519277 32.239999,37.713952 C32.239999,38.075635 32.925749,39.017002 36.060085,42.95799 C37.039039,44.18889 37.949567,45.34089 38.08348,45.51799 C38.217397,45.6951 38.63396,46.24886 39.00918,46.74857 C39.502079,47.40501 39.878514,47.60913 40.365698,47.48415 C40.736562,47.38905 41.975999,47.07925 43.12,46.79579 Z M53.871213,49.28612 C53.690592,47.85752 53.731814,47.63997 54.152554,47.80142 C54.620294,47.98091 55.066429,49.05434 54.941894,49.70063 C54.563216,51.66588 56.096781,51.72384 60.08,49.89483 C62.196925,48.92277 63.335235,47.98153 64.460787,46.27247 C65.081075,45.33061 65.577091,44.52551 65.563046,44.48336 C65.535266,44.39996 65.605746,44.15572 66.131818,42.51225 C66.712083,40.69945 66.555517,39.931517 65.362406,38.738406 C64.329382,37.705382 64.1196,37.629107 62.590099,37.730406 C60.748323,37.85239 60.214672,37.372973 61.526771,36.775139 C62.704733,36.238426 63.92985,36.310867 65.275251,36.996794 L66.445827,37.593587 L66.542917,36.764208 C66.643388,35.905901 67.84485,35.04985 68.562504,35.325238 C68.777448,35.407718 69.116748,35.833904 69.316498,36.27231 C69.630143,36.960682 69.573004,37.17609 68.897612,37.851482 C68.467474,38.281619 67.927544,38.56144 67.697772,38.473306 C67.377653,38.350518 67.280002,38.857779 67.280002,40.643456 C67.280002,42.63267 67.125583,43.28749 66.225244,45.11618 C65.093384,47.41509 63.211292,49.61555 62.065906,49.97908 C61.67766,50.10231 61.360002,50.36142 61.360002,50.5549 C61.360002,50.74837 61.276122,50.82279 61.173615,50.72028 C61.071103,50.61777 60.243103,50.88036 59.333615,51.30382 C57.350133,52.22733 55.269944,52.32176 54.57102,51.52 C54.302522,51.212 53.98761,50.20676 53.871213,49.28612 Z M77.38456,90.11264 C77.07535,89.78075 76.61933,89.11563 76.37118,88.6346 C75.94715,87.81263 75.25244,86.95448 73.097155,84.59034 C72.600589,84.04565 71.988592,83.21116 71.737162,82.7359 C71.485731,82.26065 71.092288,81.75665 70.862845,81.6159 C70.633402,81.47516 69.949398,80.64 69.342838,79.76 C68.736275,78.88 68.1604,78.088 68.063107,78 C67.965817,77.912 67.541418,77.264 67.12,76.56 C66.698582,75.856 66.260426,75.208 66.146323,75.12 C66.032218,75.032 65.331504,74.06518 64.589178,72.97151 C63.248627,70.99648 63.229709,70.98345 61.794669,71.04734 L60.34985,71.11164 L60.44047,73.0358 C60.52641,74.8606 61.135494,76.33687 62.158541,77.19997 C62.589174,77.56328 65.262051,80.79614 66.523955,82.47997 C66.9856,83.09597 67.719075,83.9802 68.153898,84.44493 C68.58872,84.90965 69.264262,85.80729 69.655098,86.43968 C70.045936,87.07207 70.715427,87.86456 71.142858,88.20078 C71.570285,88.53699 71.92,88.95864 71.92,89.13777 C71.92,89.3169 73.004954,90.5414 74.331,91.85888 C76.75273,94.26495 77.45444,94.5629 78.29994,93.54414 C78.71495,93.04412 78.15298,90.93744 77.38456,90.11264 Z M25.44,22.327117 C25.865181,22.339727 27.034467,23.419222 27.402547,24.138963 C28.156006,25.612275 27.630963,25.568438 26.24,24.041893 C25.234291,22.938166 24.942333,22.312362 25.44,22.327117 Z M27.054646,29.68 C28.348736,29.68 29.04,29.389533 29.04,28.845763 C29.04,28.600595 29.328,28.4 29.68,28.4 C30.422778,28.4 30.519011,27.568976 29.874544,26.72 C29.313181,25.980496 28.81039,26.011094 28.56,26.8 C28.448278,27.152 28.246576,27.44 28.11177,27.44 C27.505808,27.44 27.527373,26.971773 28.17608,26.04383 C28.562048,25.491722 28.913786,24.980538 28.957725,24.907859 C29.001665,24.835179 29.589846,25.339181 30.264794,26.027859 C30.939741,26.716538 31.709427,27.237843 31.975206,27.186317 C32.756,27.034944 33.13919,24.643402 32.719453,22.541344 C32.362429,20.75336 32.48408,20.325805 33.123866,21.12 C33.544093,21.641648 33.812634,23.037466 33.890342,25.103994 C33.957602,26.892781 34.298995,27.072592 34.644166,25.501037 C34.812454,24.734816 34.948234,24.604656 35.286438,24.885341 C35.522314,25.081104 35.661629,25.519984 35.596026,25.860637 C35.530426,26.201286 35.544046,26.48 35.626296,26.48 C35.970728,26.48 36.774968,23.757277 36.760558,22.64 C36.738768,20.949126 35.289261,18 34.480003,18 C34.189283,18 33.88023,17.515018 33.696266,16.770112 C33.152989,14.570298 27.815427,9.425584 25.993693,9.345837 C25.594128,9.328337 24.28009,8.72744 23.073606,8.01049 C21.867123,7.293536 20.340003,6.536714 19.680003,6.328653 C19.020003,6.120595 18.480003,5.809037 18.480003,5.636298 C18.480003,5.463562 18.33417,5.412358 18.155926,5.522518 C17.977686,5.632678 17.379562,5.497178 16.826765,5.221405 C16.273962,4.945632 15.771795,4.72 15.710835,4.72 C15.378726,4.72 15.697135,5.371376 16.4,6.12976 C16.84,6.604528 17.2,7.210054 17.2,7.475373 C17.2,8.01672 16.780666,7.847299 15.688678,6.864768 L14.977357,6.224746 L15.26335,7.221949 C15.42065,7.770413 15.625229,8.341936 15.717974,8.492 C15.810724,8.642067 15.95503,9.114755 16.038669,9.542422 C16.585706,12.339674 18.302973,16.309168 19.701149,18.008317 C19.849738,18.188893 20.244438,18.764893 20.578262,19.288317 C20.912086,19.811744 21.267482,20.312 21.368026,20.4 C21.46857,20.488 21.892406,21.064 22.309882,21.68 C22.72736,22.296 23.836422,23.534525 24.774467,24.432275 C26.676762,26.252864 26.928483,26.864592 25.632746,26.518061 C24.124982,26.114822 20.837229,22.930346 18.895542,19.992486 C17.26952,17.532246 17.014259,17.27496 16.831898,17.912486 C16.503203,19.061584 16.531101,19.446134 16.936909,19.36 C17.144211,19.316 17.444758,19.712 17.604797,20.24 C17.764832,20.768 18.108685,21.92 18.368909,22.8 C19.579702,26.894502 20.974144,28.511571 22.219901,27.265814 C22.628525,26.85719 22.785254,26.837254 22.98961,27.167914 C23.260957,27.606961 22.697523,28.153326 22.25528,27.880004 C21.585008,27.465754 22.102445,29.257639 22.817789,29.827985 C23.86353,30.661748 27.151254,30.968814 26.489014,30.170868 C26.138083,29.748016 26.216461,29.68 27.054646,29.68 Z M34.672938,28.541754 C36.362397,28.316451 36.629523,28.202854 36.283523,27.856858 C35.942138,27.515472 34.113962,27.655101 33.04,28.104586 C32.512,28.325568 32.008,28.520106 31.92,28.53689 C31.832,28.55369 31.328,28.750538 30.8,28.974368 C29.861638,29.37216 27.750218,32.146669 27.769731,32.956285 C27.775031,33.178326 27.934941,33.092451 28.124966,32.76545 C28.314995,32.438445 29.066618,31.589677 29.795238,30.879299 C31.325664,29.387184 32.479382,28.834288 34.672938,28.541754 Z M29.815066,34.231178 C29.965745,34.358326 30.374762,33.884838 30.723991,33.178982 C31.07322,32.473126 31.792398,31.671466 32.322164,31.397514 C33.40201,30.839104 35.471252,30.696694 36.800004,31.089341 C37.49729,31.295389 37.680004,31.244854 37.680004,30.845949 C37.680004,29.364512 33.32385,29.341427 31.39499,30.812639 C30.797153,31.268629 30.404961,31.798578 30.52345,31.9903 C30.649386,32.194063 30.59107,32.247525 30.383076,32.118978 C29.942163,31.846483 29.04,33.511312 29.04,34.597443 C29.04,35.434525 29.689549,35.895645 30.061696,35.322749 C30.183629,35.135043 30.116376,34.760634 29.912246,34.490733 C29.708115,34.220829 29.664381,34.104029 29.815066,34.231178 Z M18.043718,130.33456 C15.779763,130.21219 13.763763,130.05502 13.563718,129.98529 C13.193149,129.85612 11.794499,129.5705 10.64,129.38825 C9.674019,129.23575 7.163178,128.52194 6.8,128.29657 C6.624,128.18736 6.297856,128.07037 6.075238,128.03661 C5.56145,127.95871 3.177946,126.51869 2.264618,125.73441 C-0.337614,123.49986 0.446016,119.39963 4.165079,115.79052 C5.179873,114.80574 6.375142,113.712 6.821238,113.36 C7.267331,113.008 7.930147,112.47228 8.294166,112.1695 C8.658186,111.86673 9.262915,111.5221 9.63801,111.40367 C10.013104,111.28523 10.932,110.68761 11.68,110.07562 C12.428,109.46363 13.04,109.07457 13.04,109.21105 C13.04,109.34753 13.292,109.23825 13.6,108.96819 C13.908,108.69813 14.664,108.22372 15.28,107.91394 C15.896,107.60416 16.505795,107.19079 16.635101,106.99535 C16.877701,107.0727 17.06,107.05988 17.28,106.89065 C17.5,106.72142 18.868,106.11161 20.32,105.5355 C21.772,104.95939 22.96,104.43238 22.96,104.36436 C22.96,104.29636 22.384,103.64717 21.68,102.92175 C20.976,102.19632 20.4,101.46509 20.4,101.29679 C20.4,101.12848 19.824,100.18641 19.12,99.20328 C18.416,98.22016 17.84,97.24114 17.84,97.02769 C17.84,96.81424 17.481814,95.82969 17.044035,94.83978 C16.606256,93.8499 16.310906,93.03998 16.387706,93.03998 C16.464506,93.03998 16.332496,92.57198 16.094352,91.99998 C15.063552,89.5241 15.312422,83.11497 16.619341,78.47998 C16.966726,77.24798 17.285302,76.02398 17.327286,75.75998 C17.369266,75.49598 17.579789,74.84798 17.795107,74.31998 C18.010422,73.79198 18.423322,72.71198 18.712656,71.91998 C19.940733,68.55834 23.463264,62.49402 26.731034,58.1157 C28.556554,55.66977 34.350592,50.79998 35.435213,50.79998 C35.596355,50.79998 35.843354,50.61865 35.984099,50.39701 C36.124845,50.17538 36.779018,49.63538 37.437814,49.19701 C38.096611,48.75865 38.636611,48.28593 38.637814,48.14653 C38.641114,47.76634 36.740765,45.17102 35.2,43.45144 C34.452,42.61663 33.84,41.840543 33.84,41.726796 C33.84,41.613046 33.588,41.257158 33.28,40.935926 C32.218858,39.829209 31.227069,38.478121 30.934502,37.740726 C30.773184,37.334154 30.513245,37.08057 30.356858,37.177222 C30.20047,37.273875 29.89457,37.138538 29.677075,36.876477 C29.459584,36.614416 29.097354,36.4 28.872122,36.4 C28.64689,36.4 28.315901,35.979158 28.136592,35.464794 C27.957286,34.950429 27.506611,34.366909 27.135101,34.16808 C26.763587,33.969254 26.500205,33.571574 26.549811,33.284349 C26.625601,32.845462 26.359411,32.775978 24.881776,32.848938 C23.397539,32.922228 21.490147,33.456432 22.48,33.52161 C22.656,33.53319 22.44789,33.737683 22.017546,33.976022 C20.910266,34.589264 20.030352,34.087984 19.357194,32.460445 C19.050739,31.719501 18.8,30.94759 18.8,30.745085 C18.8,30.542579 18.403594,30.040093 17.919098,29.628445 C16.886688,28.751277 14.64,25.449738 14.64,24.80977 C14.64,24.566797 14.506979,24.2312 14.344397,24.064 C13.86808,23.57415 13.45849,18.961434 13.525136,14.837693 C13.593326,10.618762 13.307098,9.248848 11.773594,6.454595 C10.716067,4.527645 10.582883,3.885706 11.19807,3.680643 C11.486016,3.584663 11.387523,3.14233 10.842035,2.081728 C9.73088,-0.078707 10.248838,-0.383802 12.095408,1.343446 C12.951853,2.14455 13.888522,2.8 14.176893,2.8 C14.465264,2.8 15.083434,3.062429 15.550602,3.383178 C16.632378,4.125898 18.142256,4.811837 20.538989,5.649402 C21.583434,6.014397 22.984346,6.674595 23.652128,7.116512 C24.31991,7.558432 25.148867,7.92 25.494253,7.92 C25.839642,7.92 26.211226,8.064 26.32,8.24 C26.428774,8.416 26.740486,8.56 27.012691,8.56 C27.573091,8.56 28.839043,9.529725 30.998755,11.613344 C31.81207,12.398006 32.622723,13.04 32.800205,13.04 C33.113344,13.04 35.44,15.688634 35.44,16.045107 C35.44,16.142677 35.787818,16.982442 36.212928,17.911251 C37.748627,21.266557 37.945674,23.134704 37.074086,26.075686 C36.882784,26.721194 36.880547,27.181453 37.068086,27.297395 C37.831757,27.76937 38.704637,30.14592 38.546726,31.323222 C38.419046,32.275149 38.571816,32.830813 39.257357,33.90792 C40.472838,35.81767 41.052909,36.261834 41.373373,35.528166 C41.509866,35.215677 41.599568,34.854653 41.572707,34.725898 C41.451085,34.142899 45.684893,30.294512 47.14537,29.660531 C49.235699,28.753136 51.490672,28.073584 51.792458,28.260096 C51.92625,28.342786 52.123251,28.268796 52.230237,28.095702 C52.816954,27.146371 56.390954,29.055296 56.756934,30.513475 C56.904189,31.100186 57.099907,31.25944 57.479421,31.10136 C57.765706,30.982112 58.287939,30.844518 58.639939,30.795597 C58.991939,30.746677 60.215939,30.457222 61.359939,30.152365 C64.329171,29.36112 70.57505,29.318714 72.719939,30.075235 C74.973,30.869914 76.38008,32.436576 76.43792,34.214893 C76.52592,36.920282 75.74113,40.650707 74.56449,43.12 C73.480061,45.39579 72.144435,47.66481 71.440502,48.42717 C71.264192,48.61812 70.831939,49.17391 70.479939,49.66226 C68.409024,52.53537 65.46495,54.23586 62.034947,54.54006 C58.946464,54.81398 59.14513,54.32106 59.705488,60.31983 L59.981974,63.27967 L61.441706,64.63983 C63.349648,66.41764 63.795232,67.31396 63.987059,69.76 C64.025019,70.244 64.169443,70.64 64.308006,70.64 C64.44657,70.64 64.560115,70.82 64.56033,71.04 C64.56097,71.63637 66.024307,73.22513 66.323594,72.95432 C66.194492,73.4011 68.320092,76.99874 69.259286,77.94286 C69.490642,78.17543 69.680601,78.46343 69.681417,78.58286 C69.682377,78.70228 70.07823,79.232 70.561417,79.76 C71.044601,80.288 71.833756,81.24754 72.315094,81.8923 C72.796431,82.53707 73.37765,83.25707 73.606694,83.4923 C73.835737,83.72754 74.44991,84.496 74.97154,85.2 C75.49316,85.904 76.13594,86.65542 76.39994,86.86982 C76.66394,87.08422 76.75702,87.26422 76.60679,87.26982 C76.45655,87.27582 76.78055,87.78901 77.32679,88.41114 C77.87302,89.03326 78.31994,89.68126 78.31994,89.85114 C78.31994,90.02101 78.59789,90.43795 78.9376,90.77766 C79.78467,91.62474 79.63407,93.89935 78.67973,94.67212 C77.56655,95.57353 76.20827,95.13065 74.32798,93.2532 C72.47695,91.40497 69.067449,87.27149 67.490729,84.96413 C66.921007,84.1304 65.951663,82.9064 65.336636,82.24413 C64.721609,81.58186 63.470047,80.14922 62.555391,79.06049 C61.504092,77.80911 60.80847,77.21675 60.664265,77.45007 C60.538806,77.65308 60.440406,79.98386 60.445602,82.62958 C60.455942,87.89189 60.246399,90.53103 59.743676,91.47038 C59.530175,91.86931 59.52743,92.08 59.735776,92.08 C60.239162,92.08 61.679984,93.77749 61.679984,94.37056 C61.679984,94.66596 61.590984,95.13958 61.482214,95.42304 C61.222944,96.09868 58.667062,97.25352 57.013549,97.44213 C56.01528,97.55601 55.298192,97.95918 53.973549,99.15133 C53.020086,100.00942 52.059984,100.71341 51.839984,100.71575 C51.619984,100.71775 51.439984,100.8725 51.439984,101.05889 C51.439984,101.24527 51.295984,101.30877 51.119984,101.2 C50.943984,101.09123 50.799984,101.1547 50.799984,101.34111 C50.799984,101.5275 50.583984,101.68 50.319984,101.68 C50.055984,101.68 49.839984,101.79584 49.839984,101.93741 C49.839984,102.20786 45.504877,104.53119 44.704547,104.68967 C44.449037,104.74027 43.81049,104.95696 43.285555,105.17121 C42.760618,105.38546 40.995811,105.9077 39.36376,106.33174 C36.796995,106.99864 35.824221,107.0883 32.158189,106.99585 C28.551018,106.90485 27.729402,106.786 26.639984,106.19734 C25.218848,105.42945 24.214714,105.50566 22.411898,106.51824 C21.822637,106.84921 21.201283,107.12 21.031104,107.12 C20.606214,107.12 17.187392,108.80132 14.479984,110.34173 C13.247984,111.04269 11.987984,111.70135 11.679984,111.80542 C11.371984,111.90949 11.119984,112.12185 11.119984,112.27732 C11.119984,112.43279 10.914269,112.56 10.662842,112.56 C10.411411,112.56 9.979411,112.78628 9.702842,113.06286 C9.426285,113.33943 9.2,113.47994 9.2,113.3751 C9.2,113.27026 8.683213,113.65597 8.051584,114.23224 C7.419955,114.80851 6.696925,115.39685 6.444854,115.53967 C6.192781,115.68248 6.072272,115.93805 6.177056,116.1076 C5.767881,116.21596 4.832056,117.15255 3.381021,119.05291 C2.383381,120.35948 2.248736,120.74779 2.322067,122.10688 C2.440377,124.29957 2.770163,124.73601 5.248548,125.97974 C8.531206,127.62708 10.999946,128.34428 14.64,128.7081 C15.784,128.82244 17.296,129.00398 18,129.11152 C19.683472,129.3687 40.623472,129.36521 42.48,129.10752 C43.272,128.99755 44.784,128.82191 45.84,128.71719 C46.896,128.61247 47.976,128.46744 48.24,128.39491 C48.722797,128.26227 49.425667,128.14667 52.08,127.76331 C52.872,127.64893 53.952,127.42919 54.48,127.275 C55.008,127.12082 55.872,126.92339 56.4,126.83628 C57.70864,126.62036 58.053629,126.53066 62.64,125.21373 C64.89063,124.56748 68.908669,123.00023 70.48,122.1557 C71.536,121.58813 73.084,120.76806 73.92,120.3333 C74.756,119.89854 75.44,119.43571 75.44,119.30478 C75.44,119.17386 75.62,119.06388 75.84,119.0604 C76.23564,119.0544 78.60335,118.06758 80.33501,117.18749 C80.89396,116.90341 81.14438,116.87118 81.00194,117.10169 C80.87649,117.30467 81.11777,117.22985 81.53812,116.93542 C81.95848,116.641 82.60156,116.4001 82.9672,116.4001 C83.33284,116.4001 83.7688,116.26726 83.936,116.1049 C84.24502,115.80483 87.1712,114.98827 89.19175,114.63827 C89.80321,114.53235 90.37921,114.34544 90.47175,114.2229 C90.69866,113.92243 93.10216,113.74541 97.4396,113.70972 C99.41938,113.69342 101.03922,113.6081 101.03924,113.5201 C101.03929,113.36114 103.08307,113.4222 105.84,113.66362 C106.632,113.73292 107.532,113.80103 107.84,113.8149 C108.148,113.8288 108.4,113.98692 108.4,114.16636 C108.4,114.35191 108.02047,114.41619 107.52,114.31539 C106.58564,114.12722 97.91598,114.10256 95.76,114.28199 C93.056,114.50697 85.70574,116.08807 84.40765,116.72398 C84.13944,116.85536 83.128,117.2097 82.16,117.5114 C79.84024,118.23441 73.872624,121.10426 72.96,121.93573 C72.564,122.29651 72.24,122.50043 72.24,122.38887 C72.24,122.27731 71.268,122.67936 70.08,123.28232 C67.810112,124.43437 59.386432,127.43341 57.502115,127.76036 C56.895952,127.86553 55.021824,128.23584 53.337389,128.58325 C51.652954,128.93067 49.655648,129.27938 48.898931,129.35817 C48.142214,129.43697 47.288387,129.57137 47.001539,129.65686 C46.293661,129.86781 43.466429,130.16986 40.56,130.34505 C37.503373,130.52928 22.41537,130.78494 22.269635,130.65497 C22.209335,130.60103 20.307674,130.45693 18.043718,130.33456 Z M50.209766,36.095971 C51.414397,34.857437 52.404378,33.951171 52.409731,34.082045 C52.415031,34.212922 52.56624,34.067995 52.745635,33.759994 C52.92503,33.45199 53.525613,32.965315 54.080259,32.678496 C55.57913,31.903398 55.964141,31.407286 55.744845,30.533549 C55.388218,29.11263 52.502365,28.547683 50.368362,29.481024 C49.813763,29.723584 48.673549,30.168432 47.834554,30.469568 C46.054586,31.108448 42.68056,34.027184 42.940109,34.703558 C43.035019,34.950883 42.995039,35.080541 42.851269,34.991686 C42.614994,34.845661 42.352853,35.365824 41.093321,38.48 C40.879772,39.008 40.780412,40.053638 40.872524,40.803642 C41.014239,41.957542 41.212261,42.26034 42.159999,42.77229 C42.845833,43.14276 43.833717,43.35844 44.708405,43.32865 C46.030453,43.28365 46.151612,43.2071 46.335533,42.30092 C46.712176,40.44519 48.025613,38.3416 50.209766,36.095971 Z M45.04,103.58838 C45.128,103.48254 45.848,103.14233 46.64,102.83238 C47.432,102.52242 48.368,102.00638 48.72,101.68561 C49.072,101.36485 49.908637,100.79797 50.579194,100.42589 C52.058067,99.60528 52.452218,99.30167 54.047059,97.75465 C55.05089,96.78092 55.580819,96.52397 56.804832,96.41744 C58.497933,96.27008 60.352794,95.45536 60.628006,94.73817 C60.876122,94.09159 59.854246,93.14829 58.338013,92.62424 C56.789536,92.08905 56.466742,91.44 57.74905,91.44 C59.303392,91.44 59.563315,90.12476 59.582998,82.16 C59.605938,72.87458 59.420253,70.75056 58.531078,70.12776 C58.143613,69.85637 57.84,69.30021 57.84,68.86186 C57.84,68.00151 58.393501,67.80225 58.683574,68.55816 C58.784493,68.82115 59.018224,68.9429 59.202973,68.82872 C58.990272,69.50879 59.847555,69.93687 61.135651,69.85447 C62.813152,69.74715 63.117645,69.3614 62.617226,67.97751 C62.209488,66.84994 60.634918,64.9152 60.063779,64.84 C59.434374,64.7571 59.269251,64.70338 58.874781,64.45299 C58.65191,64.31152 58.566704,64.0386 58.685437,63.84648 C58.911248,63.48111 58.87272,60.41964 58.624327,58.99041 C58.544947,58.53368 58.411361,57.76593 58.327466,57.28429 C58.121783,56.10348 57.479518,54.57456 56.970577,54.0542 C56.291159,53.35954 56.838116,53.0019 57.810724,53.50486 C58.65954,53.9438 60.080004,54.06088 60.080004,53.6919 C60.080004,53.5974 60.548004,53.50831 61.120004,53.49402 C64.422263,53.41152 66.737418,52.42835 68.708839,50.2713 C70.325495,48.50242 73.418513,43.74455 74.08588,42 C75.40461,38.552784 75.81232,34.089037 74.9429,32.617216 C73.485991,30.150867 66.233796,29.740387 58.640004,31.694458 C58.464004,31.739748 57.312004,32.19672 56.080004,32.709952 C54.291604,33.45497 53.356148,34.131693 51.440004,36.066582 C47.889412,39.65192 46.732945,42.23444 47.36193,45.1734 C47.603674,46.30297 46.016778,47.27959 43.15593,47.7619 C42.55969,47.86242 41.822625,48.07804 41.518004,48.24107 C41.213386,48.4041 40.893738,48.46707 40.807678,48.38101 C40.721618,48.29491 40.469054,48.44401 40.246423,48.71227 C40.023793,48.98052 39.654542,49.2 39.425863,49.2 C39.197188,49.2 38.043751,49.848 36.862673,50.64 C35.681594,51.432 34.591546,52.08 34.440343,52.08 C34.28914,52.08 33.985569,52.368 33.765742,52.72 C33.545914,53.072 33.217847,53.36 33.036708,53.36 C32.63835,53.36 27.324241,58.76748 25.961038,60.56 C24.790257,62.09949 21.707527,67.35587 20.800065,69.36 C20.24802,70.57919 19.443934,72.58706 18.301146,75.6 C18.167636,75.952 18.08073,76.34641 18.108023,76.47647 C18.135323,76.60652 17.94401,77.25452 17.682894,77.91647 C16.94531,79.7863 16.282599,84.91599 16.390532,87.92 C16.464242,89.97171 16.736999,91.3476 17.500644,93.52 C18.579649,96.58952 19.453732,98.48 19.79395,98.48 C19.908577,98.48 20.195774,98.94694 20.432167,99.51765 C21.222001,101.42447 24.587054,104.512 26.154196,104.76776 C26.414999,104.81036 26.678999,104.99699 26.740862,105.18257 C26.802722,105.36816 27.120839,105.52 27.447786,105.52 C27.77473,105.52 28.133303,105.66735 28.244609,105.84745 C28.525668,106.30221 36.620929,106.14633 38.371063,105.65246 C42.993757,104.34796 44.898669,103.75838 45.04,103.58838 Z" id="Combined-Shape" fill="#000000"></path>
    </g>
</svg>