<?xml version="1.0" encoding="UTF-8" standalone="no"?>
<svg width="308px" height="42px" viewBox="0 0 308 42" version="1.1" xmlns="http://www.w3.org/2000/svg" xmlns:xlink="http://www.w3.org/1999/xlink">
    <!-- Generator: Sketch 42 (36781) - http://www.bohemiancoding.com/sketch -->
    <title>paintthemouse_1line_white</title>
    <desc>Created with Sketch.</desc>
    <defs></defs>
    <g id="Page-1" stroke="none" stroke-width="1" fill="none" fill-rule="evenodd">
        <g id="Desktop" transform="translate(-243.000000, -320.000000)" fill="#FFFFFF">
            <g id="paintthemouse_1line_white" transform="translate(243.000000, 320.000000)">
                <path d="M148.08956,38.75098 C148.26099,38.57928 148.25219,38.22664 148.06786,37.88226 C147.75844,37.30411 148.5641,32.7935 149.33286,30.8 C149.5195,30.316 149.59563,29.92 149.50204,29.92 C149.40844,29.92 149.54064,29.524 149.79588,29.04 C150.63018,27.4578 152.24807,23.63776 152.24807,23.25013 C152.24807,23.04179 152.38702,22.62127 152.55685,22.31566 C153.07052,21.39127 154.89509,17.12168 154.94126,16.736 C154.95606,16.6128 155.14807,16.332 155.36807,16.112 C155.68807,15.792 155.77327,15.8368 155.79406,16.336 C155.81376,16.80845 155.92197,16.72867 156.23972,16.00749 C156.47054,15.48361 156.60209,14.73897 156.53205,14.352739 C156.34036,13.295619 156.94431,12 157.62878,12 C157.97495,12 158.38339,11.630646 158.60189,11.12 L158.97844,10.24 L158.36196,10.96 C156.95192,12.606816 157.13059,11.443168 158.81643,8 C159.50582,6.592 160.03796,5.332 159.99897,5.2 C159.95997,5.068 160.06417,4.96 160.23061,4.96 C160.53963,4.96 161.22764,3.858368 161.85034,2.366538 C162.14307,1.665213 162.39107,1.538378 163.41451,1.566538 C164.08347,1.584938 164.86868,1.797632 165.15943,2.039181 C165.45018,2.280733 165.68807,2.369312 165.68807,2.236029 C165.68807,1.8948 166.80419,3.388224 167.12596,4.16 C167.49411,5.042998 167.52259,5.167936 167.56807,6.098886 C167.59007,6.549274 167.71607,6.850979 167.84807,6.769344 C167.98007,6.687714 168.09056,7.07521 168.09361,7.630458 C168.09661,8.185706 168.22433,10.368 168.37733,12.48 C168.64558,16.18282 168.67359,20.93346 168.44383,23.75446 L168.33351,25.10892 L169.24569,24.07446 C169.7474,23.50551 170.16019,22.94879 170.163,22.83732 C170.166,22.72585 170.44679,22.56177 170.7874,22.47269 C171.23469,22.35573 171.35764,22.12316 171.23008,21.63537 C171.0972,21.12725 171.20138,20.95879 171.65079,20.9551 C172.10421,20.9511 172.14436,20.8844 171.81747,20.67728 C171.47383,20.45949 171.55695,20.13486 172.22893,19.07038 C172.69209,18.33669 173.21951,17.82816 173.40098,17.94031 C173.58244,18.05246 173.70422,17.94931 173.6716,17.71211 C173.56929,16.96683 173.6796,16.36519 173.88217,16.5674 C174.28118,16.9664 175.93637,14.809984 176.13055,13.638176 C176.18495,13.309581 176.11105,13.289078 175.84193,13.558176 C175.2039,14.196211 174.84706,13.944157 175.44811,13.28 C175.76667,12.928 176.21592,12.64 176.44645,12.64 C176.67698,12.64 177.01466,12.361466 177.19685,12.021037 C177.62877,11.213997 177.61591,10.74199 177.17885,11.36 C176.8771,11.786666 176.85394,11.786666 176.97041,11.36 C177.04251,11.096 177.26944,10.862 177.47477,10.84 C178.21548,10.76064 178.24015,10.711738 177.81784,10.16 C177.58209,9.852 177.51521,9.706752 177.66921,9.837222 C178.04609,10.156515 178.85512,9.454957 178.59514,9.034298 C178.48189,8.851046 178.53974,8.794128 178.72366,8.907811 C179.07948,9.127718 180.19477,7.658509 180.19477,6.969862 C180.19477,6.744438 180.35077,6.557795 180.54144,6.555101 C180.73211,6.552501 180.67769,6.417107 180.42051,6.254438 C180.03412,6.010038 180.10671,5.81615 180.83853,5.137926 C181.32561,4.686512 181.64561,4.190125 181.54964,4.034845 C181.36942,3.743232 182.27848,2.822762 182.61729,2.953802 C182.72224,2.994392 182.81698,2.778394 182.82783,2.473802 C182.88168,0.96087 183.74408,0 185.04807,0 C187.30394,0 188.67401,1.477795 189.18683,4.464176 C189.34826,5.404269 188.72148,9.57857 188.10852,11.645558 C187.93147,12.242618 187.86294,12.854618 187.95622,13.005558 C188.04952,13.156502 187.95822,13.28 187.75272,13.28 C187.5475,13.28 187.46248,13.496 187.56379,13.76 C187.66509,14.024 187.63249,14.24 187.49139,14.24 C187.35024,14.24 187.23012,14.42 187.22445,14.64 C187.20645,15.33923 186.83503,17.24135 186.4903,18.4 C186.15009,19.54342 185.24396,23.9453 184.58,27.68 C184.37662,28.824 184.25702,30.64766 184.31422,31.73258 C184.37142,32.81749 184.31222,33.63967 184.1828,33.55964 C184.05331,33.47964 184.17,34.03196 184.44203,34.78707 C185.19261,36.87025 185.20807,37.18083 184.58907,37.74102 C183.90005,38.36458 182.64989,38.0076 181.93169,36.98223 C181.67814,36.62024 181.38012,36.41464 181.26943,36.52533 C181.15874,36.63603 181.12519,36.43053 181.19483,36.06861 C181.26633,35.69725 181.12263,35.33428 180.8648,35.23536 C180.6136,35.13896 180.40806,34.8345 180.40806,34.55878 C180.40806,34.28307 180.1755,33.70255 179.89126,33.26874 C179.44015,32.58027 179.43587,32.48 179.85756,32.48 C180.25764,32.48 180.28734,32.27379 180.03035,31.28 C179.69791,29.99438 179.67067,28.95949 179.93565,27.68 C180.02675,27.24 180.17574,26.28286 180.26671,25.55302 C180.48693,23.7864 180.61376,23.1921 180.97374,22.24 C181.30254,21.37036 181.1567,20.53511 180.72288,20.80323 C180.57407,20.89523 180.34729,20.78813 180.21891,20.56522 C180.09053,20.34235 180.10406,20.26748 180.24901,20.39885 C180.81198,20.90918 181.75604,18.59125 181.88603,16.37948 C181.95763,15.16203 182.09483,14.038595 182.19102,13.882966 C182.28722,13.727334 182.14142,13.6 181.86701,13.6 C181.59262,13.6 181.38517,13.708 181.40601,13.84 C181.51849,14.55233 181.32871,15.21344 181.05958,15.04708 C180.88989,14.942208 180.4132,15.40171 180.00026,16.0682 C179.20302,17.35499 177.10189,22.4564 177.10162,23.10592 C177.10153,23.31818 177.00472,23.43204 176.8864,23.35894 C176.56968,23.16319 175.2595,25.62472 175.5342,25.89941 C175.66286,26.02807 175.5684,26.08533 175.32427,26.02667 C175.03749,25.95777 174.22528,27.19836 173.02902,29.53258 C172.01075,31.51949 171.14922,33.24749 171.11453,33.37258 C171.07983,33.49766 170.9247,33.93337 170.76978,34.34083 C170.61487,34.74829 170.48732,35.18029 170.48633,35.30083 C170.48033,36.05612 169.74791,37.93762 169.22581,38.5396 C168.46071,39.42178 167.06417,39.6263 166.64963,38.9169 C166.4835,38.6326 166.3432,38.52188 166.33785,38.67084 C166.33285,38.81981 165.87413,38.4289 165.31926,37.80216 C164.76438,37.17541 164.22389,36.71609 164.11816,36.78143 C163.84449,36.95057 163.80555,35.98291 163.66821,25.6 C163.54808,16.51793 163.48382,15.44903 163.03072,14.99593 C162.90829,14.873501 162.81032,14.617334 162.81302,14.426666 C162.81602,14.236 162.95751,14.296 163.12812,14.56 C163.37768,14.946166 163.43928,14.895558 163.44322,14.301114 C163.44622,13.894726 163.33422,13.632627 163.195,13.718669 C163.05578,13.804709 162.99282,13.345206 163.05508,12.697552 L163.16829,11.52 L162.46626,12.96 C162.08015,13.752 161.55897,14.796 161.30808,15.28 C161.0572,15.764 160.96808,16.1622 161.11003,16.1649 C161.25198,16.1679 161.21526,16.27559 161.02843,16.4049 C160.73482,16.6081 158.81255,20.81998 158.80562,21.27528 C158.80462,21.36588 158.54099,21.98948 158.22061,22.66107 C157.67768,23.79919 157.31522,25.07699 157.27748,25.98592 C157.26848,26.19818 157.15992,26.30909 157.0358,26.23238 C156.91169,26.15568 156.59922,26.70201 156.34143,27.44646 C155.87635,28.78949 155.75382,29.12906 154.30193,33.09866 C153.88779,34.23092 153.47831,35.6019 153.39195,36.14528 C153.16613,37.56619 152.31198,41.16282 152.16558,41.30921 C152.09728,41.37751 151.60703,41.52022 151.07605,41.62642 C150.22543,41.79654 149.97332,41.65422 148.95584,40.42975 C148.26934,39.60363 147.91803,38.92278 148.08956,38.75098 Z M159.1447,9.637901 C158.59033,9.850634 158.4889,10.08 158.94919,10.08 C159.11481,10.08 159.33829,9.937648 159.44581,9.763664 C159.55792,9.582269 159.42941,9.528624 159.1447,9.637901 Z M160.94766,6.24 C160.6482,6.24 159.92808,7.644368 159.92808,8.22839 C159.92808,8.695466 160.05633,8.536992 160.6956,7.28 C160.9865,6.708 161.09993,6.24 160.94766,6.24 Z M226.30037,35.94641 L225.79405,34.9673 L224.55859,36.25305 C223.13022,37.73956 221.56065,38.36094 219.9006,38.09711 C218.22385,37.83063 217.01289,37.0145 216.34749,35.70247 C216.02881,35.07411 215.62408,34.4542 215.44808,34.3249 C215.27208,34.19559 215.22199,34.08759 215.33676,34.0849 C215.45154,34.0819 215.35436,33.44516 215.12086,32.66923 C214.88735,31.89331 214.78144,31.17331 214.88552,31.06923 C214.98959,30.96516 214.90672,30.88 214.70141,30.88 C214.49608,30.88 214.32808,31.12 214.32808,31.41333 C214.32808,31.70667 214.23898,31.85752 214.12998,31.74857 C213.90062,31.51921 213.64046,31.77017 211.96586,33.83642 C211.13412,34.86267 210.80556,35.53185 210.94938,35.90666 C211.06627,36.21127 211.06515,36.36374 210.94638,36.24548 C210.70793,36.00696 209.84764,36.7519 209.84764,37.19696 C209.84764,37.35244 209.43871,37.78198 208.93891,38.15149 C208.04164,38.81488 208.01441,38.81586 206.77891,38.22959 C204.31523,37.06058 203.98522,36.56267 203.96655,33.98642 C203.94405,30.88226 204.47714,27.75055 205.09785,27.3405 C205.24728,27.2418 205.45357,26.52179 205.55629,25.7405 C205.65901,24.95921 205.94659,24.16009 206.19535,23.96469 C206.44411,23.76929 206.64764,23.45534 206.64764,23.26702 C206.64764,23.0787 207.07964,21.99129 207.60764,20.85054 C208.13564,19.70979 208.56764,18.65427 208.56764,18.50494 C208.56764,18.35561 208.91912,17.85438 209.3487,17.39109 C209.77828,16.92781 210.03028,16.43819 209.9087,16.30306 C209.78712,16.16793 209.8997,16.18065 210.15849,16.33136 C210.41746,16.48204 211.09935,16.59584 211.67382,16.58424 C212.24828,16.57264 212.88071,16.75885 213.07922,16.99804 C213.27774,17.23724 213.53947,17.37156 213.66085,17.29655 C213.91927,17.13683 213.84973,18.62076 213.54736,19.71843 C213.31494,20.5622 211.92738,23.85386 211.25563,25.15508 C211.01851,25.61439 210.91671,26.08239 211.02941,26.19508 C211.1421,26.30778 211.08381,26.39999 210.8998,26.39999 C210.71582,26.39999 210.38928,26.86799 210.17417,27.43999 C209.59445,28.98147 209.16747,30.01217 208.85031,30.63564 C208.49096,31.34202 208.48567,32.15999 208.84031,32.15999 C208.99035,32.15999 209.77283,31.32026 210.57917,30.29392 C211.3855,29.26759 212.41226,28.07959 212.86085,27.65392 C213.30943,27.22826 213.67895,26.69999 213.68199,26.47999 C213.68499,26.25999 213.85552,26.07999 214.06085,26.07999 C214.26618,26.07999 214.34042,25.98619 214.22582,25.87163 C214.11122,25.75703 214.22282,25.50503 214.4749,25.31163 C214.7265,25.11822 214.97626,24.74748 215.02993,24.48776 C215.08363,24.22803 215.44046,23.75827 215.82295,23.44386 C216.20543,23.12944 216.60853,22.47794 216.71872,21.99609 C217.0438,20.57446 218.00668,19.63706 219.03074,19.74525 C219.52397,19.79735 220.12049,20.09885 220.35635,20.41524 C220.71507,20.89645 220.86898,20.92261 221.29777,20.57524 C221.62621,20.30917 221.72894,20.29575 221.58372,20.53784 C221.45907,20.74568 221.48482,20.99469 221.64102,21.09119 C222.41041,21.5667 222.2927,23.26006 221.34664,25.32563 C220.81449,26.48752 220.45625,27.51531 220.55055,27.60961 C220.64485,27.70391 220.58575,27.94528 220.41916,28.14599 C220.25259,28.34669 220.08041,29.04394 220.03653,29.69543 C219.99263,30.34691 219.84217,30.87995 219.70215,30.87995 C219.56212,30.87995 219.44755,31.31195 219.44755,31.83995 C219.44755,32.61095 219.5893,32.80741 220.16755,32.83784 C220.56355,32.85864 221.03155,32.84384 221.20755,32.80424 C221.38355,32.76494 221.74355,32.68686 222.00755,32.63083 C222.27155,32.57483 222.55955,32.50133 222.64755,32.46756 C222.73555,32.43376 222.95155,32.37266 223.12755,32.33182 C223.30355,32.29092 223.55555,32.21754 223.68755,32.16873 C223.81955,32.11993 224.10111,32.06199 224.31323,32.03999 C224.52535,32.01799 224.81288,31.45139 224.9522,30.78088 C225.23823,29.40418 225.75031,28.31999 226.11453,28.31999 C226.4894,28.31999 227.12755,30.31859 227.12755,31.49267 C227.12755,32.26491 227.29283,32.58313 227.75695,32.7045 C228.10312,32.795 228.47283,33.14154 228.57852,33.47454 C228.68421,33.80754 228.91347,34.07999 229.088,34.07999 C229.26253,34.07999 229.34173,34.18799 229.26401,34.31999 C229.07387,34.64291 229.60239,36.00051 229.91724,35.99797 C230.4529,35.99397 231.30542,33.92355 231.60843,31.89138 C231.78323,30.71912 231.96254,27.23999 232.00689,24.15999 C232.05129,21.07999 232.17557,18.48799 232.28315,18.39999 C232.39073,18.31199 232.55908,17.23199 232.65726,15.99999 C232.83644,13.751696 233.09868,12.671436 233.48179,12.603504 C234.77655,12.373913 235.58884,12.431244 236.30493,12.802761 C236.77614,13.047222 237.27999,13.174108 237.42461,13.084726 C237.56922,12.995346 237.68755,13.077826 237.68755,13.267964 C237.68755,13.458124 238.05756,13.7823 238.5098,13.988352 C238.96203,14.194403 239.59987,14.917331 239.92721,15.59486 C240.55079,16.88552 240.82669,19.67363 240.44705,20.84818 C240.19746,21.62039 239.03104,22.02843 237.89109,21.74232 C236.97203,21.51165 236.73839,22.1479 236.73192,24.89888 C236.72892,26.30163 236.82572,26.69879 237.12755,26.51745 C237.43611,26.33207 237.4435,26.38262 237.15985,26.73856 C236.95763,26.99235 236.69663,28.71199 236.57985,30.55999 C236.22177,36.22673 235.79268,37.8358 234.20474,39.4664 C232.76265,40.94724 231.85767,40.9904 229.90489,39.67143 C228.15355,38.48815 226.99652,37.29263 226.30037,35.94641 Z M247.83873,38.71153 C246.89432,38.67403 245.80807,38.47547 245.42484,38.27038 C245.04163,38.06529 244.72808,38.00664 244.72808,38.14006 C244.72808,38.27347 244.29631,37.9099 243.76859,37.33212 C243.18443,36.69255 242.65242,36.37177 242.40859,36.51211 C242.18831,36.63888 242.11639,36.62321 242.24878,36.47731 C242.38116,36.33138 242.29658,35.98429 242.06076,35.70601 C241.68577,35.26345 241.20874,33.52207 240.71185,30.78192 C240.62995,30.33039 240.69555,29.879 240.85769,29.77882 C241.13964,29.60457 241.71326,27.13976 241.58816,26.64004 C241.55516,26.50804 241.67206,26.40004 241.84808,26.40004 C242.02408,26.40004 242.16808,26.21449 242.16808,25.9877 C242.16808,25.76091 242.45608,25.01047 242.80808,24.32004 C243.16008,23.62961 243.44808,22.80717 243.44808,22.49238 C243.44808,22.17759 243.58934,21.92004 243.76198,21.92004 C243.93463,21.92004 244.16624,21.56004 244.27668,21.12004 C244.38711,20.68004 244.5742,20.32004 244.69244,20.32004 C244.81069,20.32004 245.45985,19.55759 246.13502,18.62571 C247.64516,16.54142 249.39981,15.44639 250.78544,15.72351 C251.32589,15.8316 251.76808,16.11804 251.76808,16.36004 C251.76808,16.60204 252.02008,16.80376 252.32808,16.8083 C252.92352,16.8173 254.21975,19.15074 254.10093,20.00004 C253.76355,22.41162 253.51807,23.29471 252.72217,24.96004 C252.21748,26.01604 251.72435,26.84404 251.62632,26.80004 C251.52832,26.75604 251.43782,26.82804 251.42528,26.96004 C251.41268,27.09204 251.19642,27.42773 250.94458,27.70601 C250.69274,27.98429 250.595,28.32029 250.72738,28.45267 C250.85977,28.58506 250.75208,28.64537 250.48808,28.58671 C250.22408,28.52801 250.04408,28.66001 250.08808,28.88004 C250.13208,29.10004 250.01828,29.28004 249.83526,29.28004 C249.26235,29.28004 246.93923,31.94329 247.11426,32.39942 C247.20586,32.63804 247.13836,32.7453 246.96442,32.63777 C246.79043,32.53025 246.64808,32.65557 246.64808,32.91634 C246.64808,34.08931 249.67176,34.27273 253.20808,33.31429 C254.21904,33.04028 254.85189,32.99723 254.92708,33.19735 C254.99248,33.37154 254.90498,33.6054 254.73241,33.71705 C254.55988,33.82869 254.46001,34.18849 254.51045,34.51659 C254.56085,34.84469 254.27252,35.42069 253.8696,35.79659 C253.46668,36.17249 253.03531,36.80404 252.91099,37.20004 C252.74607,37.72536 252.43841,37.92004 251.77318,37.92004 C251.08148,37.92004 250.79608,38.11603 250.59075,38.73204 C250.38097,39.36137 250.23412,39.45808 249.93797,39.16193 C249.7278,38.95172 248.78315,38.74906 247.83873,38.71153 Z M188.25244,35.164 C187.44946,33.47184 187.94676,30.66731 189.74972,26.72 C190.11147,25.928 190.43365,25.1026 190.46568,24.88579 C190.52338,24.49483 190.65581,24.32917 192.51597,22.32 C193.04556,21.748 193.40029,21.28 193.30428,21.28 C193.20828,21.28 193.30928,21.064 193.52808,20.8 C193.85468,20.40648 193.83178,20.32 193.401,20.32 C193.01049,20.32 192.91411,20.10745 193.02566,19.49226 C193.2294,18.36872 193.57684,18.00891 195.27874,17.15894 C197.05022,16.27422 198.1759,16.43948 199.59124,17.79204 C200.16391,18.33932 200.7545,18.64981 200.97831,18.52126 C201.19268,18.39813 201.26582,18.41074 201.14084,18.54926 C200.79737,18.92997 201.8161,20.69753 202.23115,20.44101 C202.45138,20.3049 202.49666,20.36721 202.34997,20.60457 C202.21963,20.81547 202.30537,21.21985 202.54053,21.50319 C202.77568,21.78653 202.92196,22.03222 202.86558,22.04917 C202.80918,22.06617 202.94708,22.51199 203.17195,23.03999 C203.94676,24.85921 203.40127,29.91999 202.43037,29.91999 C202.26534,29.91999 202.21174,30.05174 202.31126,30.21277 C202.50097,30.51972 200.82425,32.90713 199.24336,34.58103 C198.73377,35.1206 198.41536,35.6606 198.53579,35.78103 C198.65621,35.90146 198.57549,35.99999 198.35633,35.99999 C198.13719,35.99999 197.42629,36.55329 196.77654,37.22955 C196.1268,37.90581 195.34666,38.42263 195.0429,38.37805 C194.73915,38.33345 194.40955,38.42815 194.31046,38.58849 C194.12929,38.88164 193.31125,38.90712 192.04539,38.65909 C191.01483,38.45709 188.88292,36.49261 188.25244,35.164 Z M196.72808,29.30286 C196.72808,29.11428 196.8451,28.96 196.98812,28.96 C197.40249,28.96 198.75696,25.71679 198.89211,24.40099 C198.99977,23.35286 198.94181,23.22824 198.43167,23.41067 C197.54846,23.72649 197.03466,24.1994 197.23049,24.51626 C197.32699,24.67232 197.28439,24.8 197.13599,24.8 C196.73239,24.8 195.70265,26.67519 195.91636,27.02099 C196.01823,27.18581 195.91136,27.43752 195.67829,27.58033 C195.32109,27.79946 193.52811,31.22588 193.52811,31.68937 C193.52811,31.93358 195.64395,30.72987 196.21044,30.16339 C196.49513,29.87867 196.72808,29.49143 196.72808,29.30286 Z M267.25911,35.00285 C267.31961,34.93525 267.45711,34.04693 267.56458,33.02873 C267.75033,31.26889 268.89752,28 269.32937,28 C269.44073,28 269.72884,27.55496 269.96962,27.01101 C270.69275,25.37735 272.46578,23.80893 273.39828,23.97803 C275.18001,24.30112 276.71619,27.0176 275.76517,28.16351 C275.54767,28.42558 275.47698,28.64 275.60808,28.64 C275.73918,28.64 275.66718,28.856 275.44808,29.12 C274.94652,29.72435 273.84808,29.74785 273.84808,29.1542 C273.84808,28.36909 272.9228,28.29842 272.50835,29.05188 C272.29413,29.44132 272.08682,29.95259 272.04766,30.18803 C272.00846,30.42346 271.76661,30.85546 271.51012,31.14803 C271.09951,31.6164 270.66835,32.62171 270.45855,33.59996 C270.42085,33.77596 270.2886,34.17196 270.16476,34.47996 C270.00699,34.87238 270.09136,35.03996 270.44654,35.03996 C271.07481,35.03996 275.10103,33.54078 275.6123,33.11646 C275.81836,32.94544 276.08172,32.90026 276.19752,33.01607 C276.31333,33.13188 276.40808,33.05867 276.40808,32.85329 C276.40808,32.64796 276.59758,32.47996 276.8292,32.47996 C277.06081,32.47996 277.5916,31.65196 278.00873,30.63996 C278.42586,29.62796 279.19924,28.39307 279.72735,27.89577 C280.44039,27.22432 280.5816,26.92608 280.27591,26.73716 C279.94617,26.53337 279.96357,26.29941 280.36331,25.56136 C280.63781,25.05459 280.86817,24.76452 280.87522,24.91676 C280.88222,25.06901 281.21947,24.97636 281.62455,24.71098 C283.17557,23.69471 285.50636,25.76566 286.46175,29.0089 C286.96394,30.71372 286.73174,31.64954 285.26088,33.84864 C282.15721,38.48899 279.41187,39.43273 277.55632,36.49717 L276.67374,35.10089 L275.74291,35.63042 C275.23095,35.92167 274.81117,36.27646 274.81005,36.41885 C274.80909,36.56123 274.67126,36.5932 274.50408,36.48985 C274.33692,36.38653 274.05282,36.57725 273.87276,36.91373 C273.69048,37.25431 273.03502,37.62119 272.39398,37.74145 C271.76071,37.86026 271.07281,38.01292 270.86531,38.0807 C270.6578,38.1485 270.02552,37.88804 269.46024,37.50194 C268.43083,36.79886 267.05228,35.2337 267.25911,35.00285 Z M283.76808,29.14611 C283.76808,28.6548 283.70488,28.65776 283.01039,29.18161 C282.14024,29.83797 281.09196,32.03578 281.34033,32.68303 C281.59975,33.35908 281.73091,33.24265 282.7846,31.40101 C283.32551,30.45562 283.76808,29.4409 283.76808,29.14611 Z M286.92861,33.28 C287.0988,32.4 287.48556,31.104 287.78807,30.4 C288.09058,29.696 288.39026,28.69624 288.45402,28.17831 C288.51782,27.66038 288.69114,27.15638 288.83927,27.05831 C288.9874,26.96021 289.08432,26.412 289.05464,25.84 C289.02494,25.268 289.10374,24.8 289.22969,24.8 C289.35564,24.8 289.54956,24.43796 289.66062,23.99547 C289.96809,22.77044 291.58164,22.99115 292.39487,24.36947 C292.72975,24.93706 292.88479,25.44612 292.73939,25.50072 C292.37219,25.63863 292.09238,28 292.44325,28 C292.59991,28 292.72808,27.7994 292.72808,27.55424 C292.72808,27.30907 292.94532,27.02511 293.21085,26.92322 C293.47637,26.82133 293.8522,26.3899 294.04604,25.96449 C294.36616,25.2619 294.50053,25.2192 295.51236,25.49858 C296.125,25.66774 296.82184,25.7311 297.06087,25.63937 C297.33084,25.53577 297.43278,25.63637 297.32997,25.90393 C297.23897,26.14116 297.31827,26.43033 297.50627,26.54652 C297.69426,26.66271 297.84808,27.04577 297.84808,27.39777 C297.84808,27.74977 297.99208,27.94877 298.16808,27.84 C298.34408,27.73123 298.48808,27.7862 298.48808,27.96223 C298.48808,28.13823 298.37419,28.35261 298.235,28.43864 C297.88483,28.65506 297.76388,30.88 298.10228,30.88 C298.25311,30.88 298.71472,30.52 299.12808,30.08 C299.54144,29.64 299.77648,29.28 299.65039,29.28 C299.5243,29.28 300.02989,28.7009 300.77394,27.99311 C301.51798,27.28532 302.20804,26.74994 302.30741,26.80338 C302.40681,26.85678 302.88131,27.09777 303.36193,27.33883 C303.84255,27.57989 304.34014,28.07927 304.4677,28.44856 C304.74915,29.26339 304.8068,33.42693 304.5343,33.25887 C304.42772,33.19317 304.40891,33.49714 304.4925,33.93441 C304.70262,35.03359 305.13039,35.20609 305.92323,34.51135 C306.29439,34.18611 306.49282,34.1 306.36418,34.32 C306.20696,34.58887 306.35718,34.72 306.82341,34.72 C307.32398,34.72 307.46257,34.86062 307.3223,35.22617 C307.21546,35.50457 307.12806,35.91345 307.12806,36.13481 C307.12806,37.21677 304.04274,37.43452 302.92109,36.43172 C302.44425,36.00541 301.50987,33.30604 301.63629,32.72 C301.75569,32.16648 301.0739,32.53447 300.88658,33.12465 C300.77405,33.4792 300.5261,33.67295 300.33558,33.5552 C300.1434,33.43643 300.08034,33.4886 300.19395,33.67245 C300.39332,33.99504 297.20941,37.57349 296.6757,37.62667 C296.5285,37.64137 296.09074,37.68877 295.7029,37.7321 C295.31506,37.7754 295.05284,37.7217 295.12018,37.61276 C295.18748,37.5038 294.82125,37.13236 294.30625,36.78733 C293.64285,36.34287 293.36963,35.89797 293.36898,35.26111 C293.36834,34.6633 293.24432,34.4387 292.99862,34.59056 C292.76788,34.73316 292.71611,34.67816 292.86073,34.44422 C292.98808,34.23816 293.22633,34.15241 293.39017,34.25367 C293.64752,34.41272 293.86012,33.17639 293.71473,32.36632 C293.68773,32.21579 293.85066,31.86821 294.07683,31.59393 C294.44043,31.15298 294.40466,31.13966 293.76806,31.47887 C293.37206,31.68988 293.04806,32.00145 293.04806,32.17126 C293.04806,32.71684 292.90752,32.93308 291.83532,34.03715 C291.25631,34.63337 290.84848,35.18709 290.92903,35.26764 C291.00963,35.34824 290.87013,35.65392 290.61915,35.94705 C290.36817,36.24017 290.2,36.56228 290.24544,36.66286 C290.35771,36.91133 289.48287,37.75241 288.87194,37.98335 C288.59907,38.0865 288.03409,37.98835 287.61643,37.76448 C286.57566,37.20747 286.39581,36.03492 286.92861,33.28 Z M259.12808,36.27514 C259.12808,35.64095 260.36742,34.3371 260.74716,34.57179 C260.91267,34.67408 261.04808,34.60529 261.04808,34.41889 C261.04808,33.92391 261.86738,34.00489 262.31488,34.54409 C263.18873,35.59702 262.76468,37.40766 261.56907,37.72851 C260.49702,38.01621 260.22332,37.95983 259.65768,37.3348 C259.3664,37.01294 259.12808,36.5361 259.12808,36.27514 Z M174.21236,15.36 C174.31367,15.096 174.45315,14.88 174.52232,14.88 C174.59152,14.88 174.64808,15.096 174.64808,15.36 C174.64808,15.624 174.5086,15.84 174.33812,15.84 C174.16765,15.84 174.11105,15.624 174.21236,15.36 Z" id="mouse.com-copy" fill-rule="nonzero"></path>
                <path d="M124.67634,38.720179 L123.95267,38.081555 L122.9011,39.100778 C120.1818,41.736429 117.30078,38.918736 117.14502,33.471229 C117.13802,33.240682 116.74298,33.436439 116.23804,33.920195 C115.74564,34.391952 115.41813,34.899901 115.51026,35.048966 C115.60236,35.198035 115.54836,35.32 115.39025,35.32 C115.23212,35.32 114.93624,35.685414 114.73275,36.132029 C114.52925,36.578646 114.21547,37.118646 114.03545,37.332029 C113.85543,37.545414 113.4535,38.030637 113.14229,38.410307 C112.13987,39.633206 111.40258,39.48063 110.57972,37.88 C109.83871,36.438589 109.81146,35.843949 110.31317,32.063395 C110.40247,31.390285 110.29977,31.216368 109.83343,31.251494 C109.50704,31.276074 109.24,31.409552 109.24,31.548096 C109.24,31.686643 109.132,31.782947 109,31.762106 C108.868,31.741276 108.688,31.751966 108.6,31.785886 C108.512,31.819806 108.08019,31.913418 107.64043,31.993918 C107.20066,32.074418 106.32088,32.484375 105.68535,32.904945 C104.77295,33.508746 104.47463,33.961038 104.26738,35.05481 C103.89978,36.994852 103.88873,37.308276 104.16041,38.088433 C104.43204,38.868426 103.69205,39.72219 102.76,39.704164 C102.452,39.698164 102.27251,39.620834 102.36112,39.532212 C102.44972,39.443592 102.29352,39.022007 102.01396,38.595351 C101.67153,38.07274 101.48572,36.968026 101.44453,35.209809 C101.41093,33.774414 101.20216,32.276209 100.98068,31.880465 C100.39023,30.82547 100.66219,29.421975 101.48051,29.301009 C101.98819,29.225959 102.20967,28.877655 102.39617,27.861009 C102.53148,27.123453 102.6592,26.448 102.68,26.36 C102.7008,26.272 102.82722,25.552 102.96094,24.76 C103.09465,23.968 103.39436,22.672 103.62694,21.88 C103.85953,21.088 104.29336,19.617258 104.59102,18.611686 C104.88868,17.606112 105.02622,16.611862 104.89667,16.402243 C104.74815,16.161936 104.79757,16.105478 105.03056,16.249443 C105.25771,16.38983 105.40046,16.254843 105.4012,15.898886 C105.4032,15.152221 106.56563,13.24 107.01815,13.24 C107.20931,13.24 107.57087,13.445155 107.82162,13.695901 C108.94477,14.819053 109.02469,16.540755 108.10636,19.829808 C107.85608,20.726202 107.59839,21.734202 107.53372,22.069808 C107.46902,22.405414 107.33949,22.896 107.2458,23.16 C107.02432,23.784122 106.43595,26.000019 106.24744,26.92 C106.14355,27.427062 106.25644,27.651958 106.62996,27.680435 C108.27764,27.806134 108.7918,27.801222 109.08,27.657045 C109.43961,27.477112 109.68063,27.438437 110.87652,27.368757 C111.56938,27.328387 111.80623,27.058965 112.25557,25.800018 C112.55396,24.964018 112.93352,24.029973 113.09905,23.72436 C113.26457,23.418748 113.4,22.835548 113.4,22.42836 C113.4,22.021173 113.5263,21.551218 113.68067,21.384018 C114.0301,21.005532 115.15906,17.655404 115.05821,17.296232 C115.01751,17.151151 115.13171,17.12365 115.31207,17.235122 C115.49243,17.346591 115.64,17.221462 115.64,16.957051 C115.64,16.268504 116.94268,15.420485 117.40764,15.806357 C117.61182,15.975819 117.84951,16.043842 117.93584,15.957519 C118.02214,15.871199 118.24571,16.298831 118.43261,16.907819 C118.73389,17.88948 118.59304,18.53373 117.19084,22.587547 C114.04915,31.670312 114.10837,31.465951 114.71147,31.143176 C115.01021,30.983295 115.8471,30.179413 116.57122,29.35677 L117.8878,27.861055 L119.1887,28.250815 C120.2263,28.561685 120.58888,28.878187 120.98013,29.814571 C121.45432,30.949467 121.4496,31.427663 120.92613,35.285803 C120.73079,36.725528 120.91713,36.943547 122.01507,36.56076 C122.7877,36.291423 122.94488,36.049727 122.99111,35.059874 C123.02141,34.410955 123.06591,33.494111 123.08991,33.022443 C123.11401,32.550776 123.24756,32.235272 123.3868,32.32133 C123.52604,32.40738 123.63996,32.31403 123.63996,32.113906 C123.63996,31.913765 124.1544,30.68045 124.78316,29.373202 C125.99369,26.856408 127.8641,24.56412 128.42454,24.910491 C128.60902,25.024507 128.75996,24.888221 128.75996,24.607647 C128.75996,24.17917 128.87416,24.158623 129.47336,24.479301 C132.8937,26.309816 132.55489,29.789823 128.53383,34.129455 C126.6342,36.179576 126.7667,36.787957 129.088,36.674053 C130.05158,36.626773 131.05596,36.497023 131.31996,36.38572 C132.29518,35.974575 132.65033,36.007195 132.46472,36.490872 C132.36311,36.755679 132.27996,37.248571 132.27996,37.586178 C132.27996,37.923781 132.07366,38.200005 131.82152,38.200005 C131.56938,38.200005 131.27712,38.470856 131.17205,38.801899 C131.00736,39.320815 129.43512,39.977519 128.67996,39.842815 C128.54796,39.819265 128.43996,39.908005 128.43996,40.040005 C128.43996,40.449599 126.92069,40.303807 126.14118,39.819407 C125.73355,39.566074 125.07435,39.071424 124.67634,38.720179 Z M64.02055,39.366118 C63.94665,39.440038 63.70823,39.027904 63.49078,38.450259 C63.27332,37.872618 62.979,37.112 62.83672,36.76 C62.26348,35.341795 62.10868,34.79151 61.98151,33.72 C61.90841,33.104 61.79436,32.312 61.72807,31.96 C61.66177,31.608 61.59686,31.068 61.58378,30.76 C61.55828,30.159491 60.6,29.960378 60.6,30.55559 C60.6,30.751165 60.04393,31.579165 59.36429,32.39559 C57.90015,34.15441 57.01612,35.779763 57.33276,36.130733 C56.96546,36.04201 56.7235,36.210873 56.61078,36.566026 C56.50337,36.904451 55.9913,37.662544 55.47285,38.250672 C54.95441,38.8388 54.52792,39.427722 54.52511,39.559386 C54.52211,39.69105 53.908,39.746266 53.16,39.682087 C51.91975,39.575674 51.7364,39.441885 51.07773,38.162698 C50.68048,37.391213 50.17648,36.806365 49.95773,36.863037 C49.36504,37.016579 47.8,38.582429 47.8,39.021879 C47.8,39.232055 47.12888,39.573008 46.30863,39.779552 C44.53558,40.22601 43.32937,39.861042 41.96,38.463757 C41.476,37.969891 41.08,37.732512 41.08,37.936243 C41.08,38.139975 40.9847,38.211354 40.8682,38.094861 C40.75171,37.978371 40.15096,38.268576 39.5332,38.73976 C37.85956,40.016307 35.52688,40.138259 33.90004,39.034256 C33.2239,38.575418 32.78042,38.2 32.91453,38.2 C33.04864,38.2 33.01203,38.02 32.83323,37.8 C32.05016,36.8364 31.16,34.916077 31.16,34.190266 C31.16,33.755619 31.016,33.4 30.84,33.4 C30.664,33.4 30.52,33.524317 30.52,33.676262 C30.52,33.828205 29.80705,34.918339 28.93566,36.098784 C27.30911,38.302224 25.2053,40.235213 24.74399,39.950106 C24.60112,39.861806 24.40033,39.925306 24.2978,40.091206 C24.023,40.53584 22.40066,39.985622 21.13095,39.017168 C19.87296,38.057648 19.5457,36.943069 19.99267,35.140394 C20.43459,33.358128 20.39907,33.452339 21.49335,31.16 C23.95012,26.013482 26.21059,22.74008 28.1247,21.557094 C28.6981,21.202714 29.24213,20.626394 29.33367,20.276384 C29.42517,19.926371 29.73985,19.64 30.0329,19.64 C30.32595,19.64 30.79097,19.414742 31.06628,19.139427 C31.42016,18.785558 31.66667,18.738666 31.90743,18.979427 C32.39057,19.462566 33.09961,19.401443 33.74056,18.821395 C34.23462,18.374272 34.41068,18.372586 35.44575,18.805075 C36.08059,19.070326 36.6,19.200378 36.6,19.094083 C36.6,18.987786 36.888,19.161453 37.24,19.480006 C38.04788,20.211133 38.04531,21.160912 37.2273,24.141648 C35.91385,28.927894 35.11561,34.629443 35.53463,36.231763 C35.67701,36.776218 35.88322,36.877517 36.55649,36.733731 C37.67312,36.495261 39.7971,35.593085 39.81089,35.351408 C39.81689,35.246138 39.86639,34.080006 39.92088,32.760006 C39.97538,31.440006 40.26686,29.352006 40.56864,28.120006 C40.87042,26.888006 41.15511,25.664006 41.20128,25.400006 C41.24748,25.136006 41.371,24.704006 41.47584,24.440006 C41.58067,24.176006 41.91665,23.269216 42.22245,22.424912 C42.82633,20.757619 43.41137,20.280006 44.84984,20.280006 C45.99929,20.280006 48.23067,22.292445 47.98528,23.107789 C47.75845,23.861437 47.49023,25.324362 47.27165,27.000006 C47.16834,27.792006 46.95188,28.692006 46.79063,29.000006 C46.62938,29.308006 46.61052,29.562211 46.74873,29.564906 C46.88692,29.567506 46.83443,29.6756 46.63207,29.804906 C46.42971,29.934211 46.22121,30.544006 46.16873,31.160006 C46.11623,31.776006 45.97443,32.424006 45.8536,32.600006 C45.45963,33.173818 45.17946,35.000006 45.4854,35.000006 C45.97797,35.000006 47.70702,34.057603 48.11387,33.567386 C48.32354,33.314746 48.40321,32.959382 48.29091,32.77769 C48.16876,32.580042 48.28791,32.524518 48.58744,32.639472 C49.14218,32.852346 50.12606,32.198157 49.87124,31.785859 C49.78234,31.641962 49.87824,31.420029 50.08421,31.292675 C50.34044,31.134317 50.37325,31.203195 50.188,31.510563 C49.96347,31.883126 50.00347,31.890093 50.42185,31.551293 C50.69944,31.326499 51.16958,30.174499 51.46661,28.991293 C51.76363,27.808083 52.19527,26.408003 52.4258,25.880003 C53.10213,24.330957 53.54782,23.045715 53.64645,22.360003 C53.69705,22.008003 53.82343,21.576003 53.92723,21.400003 C54.2812,20.799792 54.96426,18.521834 55.01408,17.775379 C55.04138,17.365834 55.43421,16.660327 55.88695,16.207587 C56.66605,15.428487 56.73964,15.413939 57.26155,15.935856 C57.67725,16.351555 57.87279,16.390531 58.05594,16.094195 C58.22972,15.813011 58.53534,15.956234 59.12944,16.597277 C60.05143,17.592128 60.06466,17.664471 59.65675,19.480003 C59.49858,20.184003 59.32407,21.264003 59.26895,21.880003 C59.21385,22.496003 58.96748,23.209575 58.7215,23.465719 C58.44484,23.753815 58.40198,23.974003 58.60913,24.04305 C58.7933,24.10444 59.43334,23.665319 60.03143,23.067226 C61.36597,21.732688 62.47416,21.424707 64.14276,21.924634 C65.0919,22.209002 65.55095,22.581408 65.92563,23.370986 C66.20316,23.95584 66.53443,24.369965 66.66178,24.291258 C67.00231,24.080797 67.04866,24.718074 67.107,30.412659 C67.1361,33.257619 67.26979,35.695427 67.40401,35.83001 C67.77797,36.205018 69.95428,35.059101 69.6876,34.627603 C69.55113,34.406781 69.6023,34.348407 69.81646,34.480739 C70.0119,34.601533 70.66067,34.496099 71.25817,34.246455 C72.29619,33.812746 72.35294,33.701952 72.53369,31.756275 C72.70082,29.957226 72.63371,29.589523 71.95764,28.600003 C70.65944,26.699895 71.10146,24.874851 72.99999,24.296288 C73.39599,24.175613 73.731,23.906579 73.74447,23.698439 C73.75797,23.490301 73.81477,23.104003 73.87075,22.840003 C74.07982,21.854115 74.46254,19.457267 74.51203,18.823843 C74.54023,18.462957 74.64495,18.030957 74.74473,17.863843 C74.84453,17.696733 75.02293,16.912003 75.14121,16.120003 C75.25949,15.328003 75.4829,14.392003 75.63768,14.040003 C75.79245,13.688003 76.2935,12.032003 76.75111,10.360003 C77.20872,8.688003 77.74224,6.744003 77.93671,6.040003 C78.74848,3.101315 79.61159,1.03209 80.14459,0.746837 C80.96708,0.306652 82.42155,1.241547 83.10007,2.646549 C83.89137,4.285066 83.59657,6.194128 81.5214,12.869776 C80.56225,15.95529 79.84646,18.659543 79.93076,18.879229 C80.01506,19.098912 79.97006,19.323959 79.83071,19.379328 C79.69138,19.434698 79.48102,20.096679 79.36324,20.850394 L79.1491,22.220784 L80.26323,22.145754 C80.87601,22.104484 81.47721,22.170554 81.59923,22.292589 C81.72126,22.414614 81.97835,22.391039 82.17054,22.240189 C82.55355,21.939584 85.86115,21.530861 89.0024,21.395968 L91.00482,21.309978 L90.93572,22.21704 C90.88752,22.850167 90.65583,23.177002 90.16869,23.299267 C89.78199,23.396327 89.38489,23.816627 89.27817,24.241827 C89.11443,24.894234 88.37495,25.343683 87.15231,25.533914 C87.06011,25.548254 86.55755,25.956003 86.03558,26.440003 C85.5136,26.924003 84.90044,27.320003 84.67299,27.320003 C84.44554,27.320003 83.72407,27.558986 83.06972,27.851079 C82.41537,28.143168 81.808,28.405181 81.72,28.433331 C81.632,28.461491 80.984,28.658074 80.28,28.870199 C79.576,29.082327 78.546,29.648311 77.9911,30.127946 C76.81893,31.141143 76.54293,32.245811 76.43408,36.360003 C76.33928,39.944023 76.39008,39.721936 75.60782,39.970215 C75.08022,40.137671 74.67395,39.885655 73.71893,38.798535 L72.50221,37.413517 L70.91814,39.048387 C69.54833,40.462131 69.1654,40.683626 68.08703,40.685975 C67.39131,40.687575 66.24647,40.366627 65.49747,39.960205 C64.75909,39.559533 64.09447,39.292195 64.02055,39.366118 Z M46.52922,14.994304 C46.23194,15.178032 44.93487,13.132198 44.71109,12.126614 C44.26266,10.111562 44.26681,10.040029 44.83374,10.015517 C45.42963,9.989757 45.8466,9.918757 47.37978,9.58201 C48.89955,9.248214 49.49085,10.188448 49.52873,12.999037 L49.56,15.32 L48.38973,15.41755 C47.74608,15.4712 47.12413,15.36085 47.00762,15.172327 C46.8911,14.983805 46.67582,14.903696 46.52922,14.994304 Z M1.04324,35.531523 C1.39125,34.799187 1.74938,33.768 1.83909,33.24 C2.08237,31.808026 2.26101,31.139789 2.8015,29.64 C3.07106,28.892 3.22956,28.28 3.15372,28.28 C3.07792,28.28 3.17362,27.884 3.36649,27.4 C3.55935,26.916 3.76403,26.232 3.82133,25.88 C3.93698,25.169613 3.93773,25.166544 5.02274,21 C5.44668,19.372 5.72337,18.04 5.63759,18.04 C5.55179,18.04 5.62749,17.86 5.80586,17.64 C5.98418,17.42 6.2146,16.664 6.31789,15.96 C6.42119,15.256 6.71803,13.996 6.97755,13.16 C7.33026,12.023779 7.35226,11.638762 7.06465,11.635101 C6.80105,11.631701 6.81609,11.543931 7.11245,11.356147 C7.64635,11.017821 8.50578,7.714352 8.45103,6.210966 C8.42763,5.569306 8.07076,4.656346 7.60415,4.044582 C6.62924,2.766412 6.25572,0.962283 6.88471,0.569681 C8.03358,-0.147418 11.25628,-0.079678 13.01559,0.698549 C13.81605,1.052632 14.57709,1.247311 14.70678,1.131168 C14.83648,1.015026 14.839,1.099998 14.71278,1.32 C14.57847,1.553384 14.65708,1.720571 14.90147,1.72137 C15.61473,1.72367 17.91477,3.41408 20.27673,5.671827 C21.90002,7.223494 22.81613,8.424294 23.53109,9.937517 C24.44404,11.869782 24.51048,12.23073 24.33609,14.310851 C24.07639,17.408541 22.68452,20.103187 19.88036,22.937094 C18.69236,24.137693 17.72036,25.044147 17.72036,24.951437 C17.72036,24.858727 17.38707,25.101725 16.97971,25.491434 C16.57236,25.881146 16.30661,26.33025 16.38916,26.489443 C16.47166,26.648637 16.39716,26.691005 16.22326,26.583593 C16.04946,26.476185 15.36504,26.756757 14.70232,27.207087 C14.03959,27.65742 13.33154,28.053977 13.12886,28.088325 C12.92618,28.122675 12.47236,28.3043 12.12036,28.491938 C11.49597,28.824773 9.14222,29.28301 8.05863,29.282687 C7.65463,29.282569 7.42702,29.744924 7.1634,31.101263 C6.96897,32.101567 6.60401,33.423999 6.35239,34.039999 C6.10076,34.655999 5.73512,35.879999 5.53985,36.759999 C5.02003,39.102665 4.58465,40.105887 3.9375,40.452229 C3.62121,40.621503 3.31696,40.748629 3.26139,40.734735 C3.20579,40.720845 2.78516,40.571778 2.32659,40.403481 C0.71905,39.813645 0.10906,37.497328 1.04324,35.531523 Z M17.13462,17.713766 C18.25729,16.242173 19.96622,13.412022 19.93599,13.074426 C19.92799,12.986326 20.01619,12.284013 20.13167,11.513722 C20.25699,10.678022 20.19717,9.843181 19.98337,9.44367 C19.07849,7.752874 15.38562,4.972717 13.87853,4.84767 L12.82192,4.76 L12.76512,7.64 C12.73392,9.224 12.61612,10.736 12.50341,11 C12.39071,11.264 12.22971,11.84 12.14564,12.28 C11.82761,13.944602 11.64493,14.760694 10.96374,17.56 C10.57828,19.144 10.08294,21.016 9.86297,21.72 C9.643,22.424 9.52536,23.101549 9.60154,23.225667 C9.80531,23.557674 12.20645,22.204902 14.21081,20.628854 C15.17287,19.872387 16.48858,18.560598 17.13462,17.713766 Z" id="paint_the"></path>
            </g>
        </g>
    </g>
</svg>