<?xml version="1.0" encoding="UTF-8" standalone="no"?>
<svg width="315px" height="50px" viewBox="0 0 315 50" version="1.1" xmlns="http://www.w3.org/2000/svg" xmlns:xlink="http://www.w3.org/1999/xlink">
    <!-- Generator: Sketch 42 (36781) - http://www.bohemiancoding.com/sketch -->
    <title>Slice</title>
    <desc>Created with Sketch.</desc>
    <defs></defs>
    <g id="Page-1" stroke="none" stroke-width="1" fill="none" fill-rule="evenodd">
        <path d="M151.08956,42.75098 C151.26099,42.57928 151.25219,42.22664 151.06786,41.88226 C150.75844,41.30411 151.5641,36.7935 152.33286,34.8 C152.5195,34.316 152.59563,33.92 152.50204,33.92 C152.40844,33.92 152.54064,33.524 152.79588,33.04 C153.63018,31.4578 155.24807,27.63776 155.24807,27.25013 C155.24807,27.04179 155.38702,26.62127 155.55685,26.31566 C156.07052,25.39127 157.89509,21.12168 157.94126,20.736 C157.95606,20.6128 158.14807,20.332 158.36807,20.112 C158.68807,19.792 158.77327,19.8368 158.79406,20.336 C158.81376,20.80845 158.92197,20.72867 159.23972,20.00749 C159.47054,19.48361 159.60209,18.73897 159.53205,18.352739 C159.34036,17.295619 159.94431,16 160.62878,16 C160.97495,16 161.38339,15.630646 161.60189,15.12 L161.97844,14.24 L161.36196,14.96 C159.95192,16.606816 160.13059,15.443168 161.81643,12 C162.50582,10.592 163.03796,9.332 162.99897,9.2 C162.95997,9.068 163.06417,8.96 163.23061,8.96 C163.53963,8.96 164.22764,7.858368 164.85034,6.366538 C165.14307,5.665213 165.39107,5.538378 166.41451,5.566538 C167.08347,5.584938 167.86868,5.797632 168.15943,6.039181 C168.45018,6.280733 168.68807,6.369312 168.68807,6.236029 C168.68807,5.8948 169.80419,7.388224 170.12596,8.16 C170.49411,9.042998 170.52259,9.167936 170.56807,10.098886 C170.59007,10.549274 170.71607,10.850979 170.84807,10.769344 C170.98007,10.687714 171.09056,11.07521 171.09361,11.630458 C171.09661,12.185706 171.22433,14.368 171.37733,16.48 C171.64558,20.18282 171.67359,24.93346 171.44383,27.75446 L171.33351,29.10892 L172.24569,28.07446 C172.7474,27.50551 173.16019,26.94879 173.163,26.83732 C173.166,26.72585 173.44679,26.56177 173.7874,26.47269 C174.23469,26.35573 174.35764,26.12316 174.23008,25.63537 C174.0972,25.12725 174.20138,24.95879 174.65079,24.9551 C175.10421,24.9511 175.14436,24.8844 174.81747,24.67728 C174.47383,24.45949 174.55695,24.13486 175.22893,23.07038 C175.69209,22.33669 176.21951,21.82816 176.40098,21.94031 C176.58244,22.05246 176.70422,21.94931 176.6716,21.71211 C176.56929,20.96683 176.6796,20.36519 176.88217,20.5674 C177.28118,20.9664 178.93637,18.809984 179.13055,17.638176 C179.18495,17.309581 179.11105,17.289078 178.84193,17.558176 C178.2039,18.196211 177.84706,17.944157 178.44811,17.28 C178.76667,16.928 179.21592,16.64 179.44645,16.64 C179.67698,16.64 180.01466,16.361466 180.19685,16.021037 C180.62877,15.213997 180.61591,14.74199 180.17885,15.36 C179.8771,15.786666 179.85394,15.786666 179.97041,15.36 C180.04251,15.096 180.26944,14.862 180.47477,14.84 C181.21548,14.76064 181.24015,14.711738 180.81784,14.16 C180.58209,13.852 180.51521,13.706752 180.66921,13.837222 C181.04609,14.156515 181.85512,13.454957 181.59514,13.034298 C181.48189,12.851046 181.53974,12.794128 181.72366,12.907811 C182.07948,13.127718 183.19477,11.658509 183.19477,10.969862 C183.19477,10.744438 183.35077,10.557795 183.54144,10.555101 C183.73211,10.552501 183.67769,10.417107 183.42051,10.254438 C183.03412,10.010038 183.10671,9.81615 183.83853,9.137926 C184.32561,8.686512 184.64561,8.190125 184.54964,8.034845 C184.36942,7.743232 185.27848,6.822762 185.61729,6.953802 C185.72224,6.994392 185.81698,6.778394 185.82783,6.473802 C185.88168,4.96087 186.74408,4 188.04807,4 C190.30394,4 191.67401,5.477795 192.18683,8.464176 C192.34826,9.404269 191.72148,13.57857 191.10852,15.645558 C190.93147,16.242618 190.86294,16.854618 190.95622,17.005558 C191.04952,17.156502 190.95822,17.28 190.75272,17.28 C190.5475,17.28 190.46248,17.496 190.56379,17.76 C190.66509,18.024 190.63249,18.24 190.49139,18.24 C190.35024,18.24 190.23012,18.42 190.22445,18.64 C190.20645,19.33923 189.83503,21.24135 189.4903,22.4 C189.15009,23.54342 188.24396,27.9453 187.58,31.68 C187.37662,32.824 187.25702,34.64766 187.31422,35.73258 C187.37142,36.81749 187.31222,37.63967 187.1828,37.55964 C187.05331,37.47964 187.17,38.03196 187.44203,38.78707 C188.19261,40.87025 188.20807,41.18083 187.58907,41.74102 C186.90005,42.36458 185.64989,42.0076 184.93169,40.98223 C184.67814,40.62024 184.38012,40.41464 184.26943,40.52533 C184.15874,40.63603 184.12519,40.43053 184.19483,40.06861 C184.26633,39.69725 184.12263,39.33428 183.8648,39.23536 C183.6136,39.13896 183.40806,38.8345 183.40806,38.55878 C183.40806,38.28307 183.1755,37.70255 182.89126,37.26874 C182.44015,36.58027 182.43587,36.48 182.85756,36.48 C183.25764,36.48 183.28734,36.27379 183.03035,35.28 C182.69791,33.99438 182.67067,32.95949 182.93565,31.68 C183.02675,31.24 183.17574,30.28286 183.26671,29.55302 C183.48693,27.7864 183.61376,27.1921 183.97374,26.24 C184.30254,25.37036 184.1567,24.53511 183.72288,24.80323 C183.57407,24.89523 183.34729,24.78813 183.21891,24.56522 C183.09053,24.34235 183.10406,24.26748 183.24901,24.39885 C183.81198,24.90918 184.75604,22.59125 184.88603,20.37948 C184.95763,19.16203 185.09483,18.038595 185.19102,17.882966 C185.28722,17.727334 185.14142,17.6 184.86701,17.6 C184.59262,17.6 184.38517,17.708 184.40601,17.84 C184.51849,18.55233 184.32871,19.21344 184.05958,19.04708 C183.88989,18.942208 183.4132,19.40171 183.00026,20.0682 C182.20302,21.35499 180.10189,26.4564 180.10162,27.10592 C180.10153,27.31818 180.00472,27.43204 179.8864,27.35894 C179.56968,27.16319 178.2595,29.62472 178.5342,29.89941 C178.66286,30.02807 178.5684,30.08533 178.32427,30.02667 C178.03749,29.95777 177.22528,31.19836 176.02902,33.53258 C175.01075,35.51949 174.14922,37.24749 174.11453,37.37258 C174.07983,37.49766 173.9247,37.93337 173.76978,38.34083 C173.61487,38.74829 173.48732,39.18029 173.48633,39.30083 C173.48033,40.05612 172.74791,41.93762 172.22581,42.5396 C171.46071,43.42178 170.06417,43.6263 169.64963,42.9169 C169.4835,42.6326 169.3432,42.52188 169.33785,42.67084 C169.33285,42.81981 168.87413,42.4289 168.31926,41.80216 C167.76438,41.17541 167.22389,40.71609 167.11816,40.78143 C166.84449,40.95057 166.80555,39.98291 166.66821,29.6 C166.54808,20.51793 166.48382,19.44903 166.03072,18.99593 C165.90829,18.873501 165.81032,18.617334 165.81302,18.426666 C165.81602,18.236 165.95751,18.296 166.12812,18.56 C166.37768,18.946166 166.43928,18.895558 166.44322,18.301114 C166.44622,17.894726 166.33422,17.632627 166.195,17.718669 C166.05578,17.804709 165.99282,17.345206 166.05508,16.697552 L166.16829,15.52 L165.46626,16.96 C165.08015,17.752 164.55897,18.796 164.30808,19.28 C164.0572,19.764 163.96808,20.1622 164.11003,20.1649 C164.25198,20.1679 164.21526,20.27559 164.02843,20.4049 C163.73482,20.6081 161.81255,24.81998 161.80562,25.27528 C161.80462,25.36588 161.54099,25.98948 161.22061,26.66107 C160.67768,27.79919 160.31522,29.07699 160.27748,29.98592 C160.26848,30.19818 160.15992,30.30909 160.0358,30.23238 C159.91169,30.15568 159.59922,30.70201 159.34143,31.44646 C158.87635,32.78949 158.75382,33.12906 157.30193,37.09866 C156.88779,38.23092 156.47831,39.6019 156.39195,40.14528 C156.16613,41.56619 155.31198,45.16282 155.16558,45.30921 C155.09728,45.37751 154.60703,45.52022 154.07605,45.62642 C153.22543,45.79654 152.97332,45.65422 151.95584,44.42975 C151.26934,43.60363 150.91803,42.92278 151.08956,42.75098 Z M162.1447,13.637901 C161.59033,13.850634 161.4889,14.08 161.94919,14.08 C162.11481,14.08 162.33829,13.937648 162.44581,13.763664 C162.55792,13.582269 162.42941,13.528624 162.1447,13.637901 Z M163.94766,10.24 C163.6482,10.24 162.92808,11.644368 162.92808,12.22839 C162.92808,12.695466 163.05633,12.536992 163.6956,11.28 C163.9865,10.708 164.09993,10.24 163.94766,10.24 Z M229.30037,39.94641 L228.79405,38.9673 L227.55859,40.25305 C226.13022,41.73956 224.56065,42.36094 222.9006,42.09711 C221.22385,41.83063 220.01289,41.0145 219.34749,39.70247 C219.02881,39.07411 218.62408,38.4542 218.44808,38.3249 C218.27208,38.19559 218.22199,38.08759 218.33676,38.0849 C218.45154,38.0819 218.35436,37.44516 218.12086,36.66923 C217.88735,35.89331 217.78144,35.17331 217.88552,35.06923 C217.98959,34.96516 217.90672,34.88 217.70141,34.88 C217.49608,34.88 217.32808,35.12 217.32808,35.41333 C217.32808,35.70667 217.23898,35.85752 217.12998,35.74857 C216.90062,35.51921 216.64046,35.77017 214.96586,37.83642 C214.13412,38.86267 213.80556,39.53185 213.94938,39.90666 C214.06627,40.21127 214.06515,40.36374 213.94638,40.24548 C213.70793,40.00696 212.84764,40.7519 212.84764,41.19696 C212.84764,41.35244 212.43871,41.78198 211.93891,42.15149 C211.04164,42.81488 211.01441,42.81586 209.77891,42.22959 C207.31523,41.06058 206.98522,40.56267 206.96655,37.98642 C206.94405,34.88226 207.47714,31.75055 208.09785,31.3405 C208.24728,31.2418 208.45357,30.52179 208.55629,29.7405 C208.65901,28.95921 208.94659,28.16009 209.19535,27.96469 C209.44411,27.76929 209.64764,27.45534 209.64764,27.26702 C209.64764,27.0787 210.07964,25.99129 210.60764,24.85054 C211.13564,23.70979 211.56764,22.65427 211.56764,22.50494 C211.56764,22.35561 211.91912,21.85438 212.3487,21.39109 C212.77828,20.92781 213.03028,20.43819 212.9087,20.30306 C212.78712,20.16793 212.8997,20.18065 213.15849,20.33136 C213.41746,20.48204 214.09935,20.59584 214.67382,20.58424 C215.24828,20.57264 215.88071,20.75885 216.07922,20.99804 C216.27774,21.23724 216.53947,21.37156 216.66085,21.29655 C216.91927,21.13683 216.84973,22.62076 216.54736,23.71843 C216.31494,24.5622 214.92738,27.85386 214.25563,29.15508 C214.01851,29.61439 213.91671,30.08239 214.02941,30.19508 C214.1421,30.30778 214.08381,30.39999 213.8998,30.39999 C213.71582,30.39999 213.38928,30.86799 213.17417,31.43999 C212.59445,32.98147 212.16747,34.01217 211.85031,34.63564 C211.49096,35.34202 211.48567,36.15999 211.84031,36.15999 C211.99035,36.15999 212.77283,35.32026 213.57917,34.29392 C214.3855,33.26759 215.41226,32.07959 215.86085,31.65392 C216.30943,31.22826 216.67895,30.69999 216.68199,30.47999 C216.68499,30.25999 216.85552,30.07999 217.06085,30.07999 C217.26618,30.07999 217.34042,29.98619 217.22582,29.87163 C217.11122,29.75703 217.22282,29.50503 217.4749,29.31163 C217.7265,29.11822 217.97626,28.74748 218.02993,28.48776 C218.08363,28.22803 218.44046,27.75827 218.82295,27.44386 C219.20543,27.12944 219.60853,26.47794 219.71872,25.99609 C220.0438,24.57446 221.00668,23.63706 222.03074,23.74525 C222.52397,23.79735 223.12049,24.09885 223.35635,24.41524 C223.71507,24.89645 223.86898,24.92261 224.29777,24.57524 C224.62621,24.30917 224.72894,24.29575 224.58372,24.53784 C224.45907,24.74568 224.48482,24.99469 224.64102,25.09119 C225.41041,25.5667 225.2927,27.26006 224.34664,29.32563 C223.81449,30.48752 223.45625,31.51531 223.55055,31.60961 C223.64485,31.70391 223.58575,31.94528 223.41916,32.14599 C223.25259,32.34669 223.08041,33.04394 223.03653,33.69543 C222.99263,34.34691 222.84217,34.87995 222.70215,34.87995 C222.56212,34.87995 222.44755,35.31195 222.44755,35.83995 C222.44755,36.61095 222.5893,36.80741 223.16755,36.83784 C223.56355,36.85864 224.03155,36.84384 224.20755,36.80424 C224.38355,36.76494 224.74355,36.68686 225.00755,36.63083 C225.27155,36.57483 225.55955,36.50133 225.64755,36.46756 C225.73555,36.43376 225.95155,36.37266 226.12755,36.33182 C226.30355,36.29092 226.55555,36.21754 226.68755,36.16873 C226.81955,36.11993 227.10111,36.06199 227.31323,36.03999 C227.52535,36.01799 227.81288,35.45139 227.9522,34.78088 C228.23823,33.40418 228.75031,32.31999 229.11453,32.31999 C229.4894,32.31999 230.12755,34.31859 230.12755,35.49267 C230.12755,36.26491 230.29283,36.58313 230.75695,36.7045 C231.10312,36.795 231.47283,37.14154 231.57852,37.47454 C231.68421,37.80754 231.91347,38.07999 232.088,38.07999 C232.26253,38.07999 232.34173,38.18799 232.26401,38.31999 C232.07387,38.64291 232.60239,40.00051 232.91724,39.99797 C233.4529,39.99397 234.30542,37.92355 234.60843,35.89138 C234.78323,34.71912 234.96254,31.23999 235.00689,28.15999 C235.05129,25.07999 235.17557,22.48799 235.28315,22.39999 C235.39073,22.31199 235.55908,21.23199 235.65726,19.99999 C235.83644,17.751696 236.09868,16.671436 236.48179,16.603504 C237.77655,16.373913 238.58884,16.431244 239.30493,16.802761 C239.77614,17.047222 240.27999,17.174108 240.42461,17.084726 C240.56922,16.995346 240.68755,17.077826 240.68755,17.267964 C240.68755,17.458124 241.05756,17.7823 241.5098,17.988352 C241.96203,18.194403 242.59987,18.917331 242.92721,19.59486 C243.55079,20.88552 243.82669,23.67363 243.44705,24.84818 C243.19746,25.62039 242.03104,26.02843 240.89109,25.74232 C239.97203,25.51165 239.73839,26.1479 239.73192,28.89888 C239.72892,30.30163 239.82572,30.69879 240.12755,30.51745 C240.43611,30.33207 240.4435,30.38262 240.15985,30.73856 C239.95763,30.99235 239.69663,32.71199 239.57985,34.55999 C239.22177,40.22673 238.79268,41.8358 237.20474,43.4664 C235.76265,44.94724 234.85767,44.9904 232.90489,43.67143 C231.15355,42.48815 229.99652,41.29263 229.30037,39.94641 Z M250.83873,42.71153 C249.89432,42.67403 248.80807,42.47547 248.42484,42.27038 C248.04163,42.06529 247.72808,42.00664 247.72808,42.14006 C247.72808,42.27347 247.29631,41.9099 246.76859,41.33212 C246.18443,40.69255 245.65242,40.37177 245.40859,40.51211 C245.18831,40.63888 245.11639,40.62321 245.24878,40.47731 C245.38116,40.33138 245.29658,39.98429 245.06076,39.70601 C244.68577,39.26345 244.20874,37.52207 243.71185,34.78192 C243.62995,34.33039 243.69555,33.879 243.85769,33.77882 C244.13964,33.60457 244.71326,31.13976 244.58816,30.64004 C244.55516,30.50804 244.67206,30.40004 244.84808,30.40004 C245.02408,30.40004 245.16808,30.21449 245.16808,29.9877 C245.16808,29.76091 245.45608,29.01047 245.80808,28.32004 C246.16008,27.62961 246.44808,26.80717 246.44808,26.49238 C246.44808,26.17759 246.58934,25.92004 246.76198,25.92004 C246.93463,25.92004 247.16624,25.56004 247.27668,25.12004 C247.38711,24.68004 247.5742,24.32004 247.69244,24.32004 C247.81069,24.32004 248.45985,23.55759 249.13502,22.62571 C250.64516,20.54142 252.39981,19.44639 253.78544,19.72351 C254.32589,19.8316 254.76808,20.11804 254.76808,20.36004 C254.76808,20.60204 255.02008,20.80376 255.32808,20.8083 C255.92352,20.8173 257.21975,23.15074 257.10093,24.00004 C256.76355,26.41162 256.51807,27.29471 255.72217,28.96004 C255.21748,30.01604 254.72435,30.84404 254.62632,30.80004 C254.52832,30.75604 254.43782,30.82804 254.42528,30.96004 C254.41268,31.09204 254.19642,31.42773 253.94458,31.70601 C253.69274,31.98429 253.595,32.32029 253.72738,32.45267 C253.85977,32.58506 253.75208,32.64537 253.48808,32.58671 C253.22408,32.52801 253.04408,32.66001 253.08808,32.88004 C253.13208,33.10004 253.01828,33.28004 252.83526,33.28004 C252.26235,33.28004 249.93923,35.94329 250.11426,36.39942 C250.20586,36.63804 250.13836,36.7453 249.96442,36.63777 C249.79043,36.53025 249.64808,36.65557 249.64808,36.91634 C249.64808,38.08931 252.67176,38.27273 256.20808,37.31429 C257.21904,37.04028 257.85189,36.99723 257.92708,37.19735 C257.99248,37.37154 257.90498,37.6054 257.73241,37.71705 C257.55988,37.82869 257.46001,38.18849 257.51045,38.51659 C257.56085,38.84469 257.27252,39.42069 256.8696,39.79659 C256.46668,40.17249 256.03531,40.80404 255.91099,41.20004 C255.74607,41.72536 255.43841,41.92004 254.77318,41.92004 C254.08148,41.92004 253.79608,42.11603 253.59075,42.73204 C253.38097,43.36137 253.23412,43.45808 252.93797,43.16193 C252.7278,42.95172 251.78315,42.74906 250.83873,42.71153 Z M191.25244,39.164 C190.44946,37.47184 190.94676,34.66731 192.74972,30.72 C193.11147,29.928 193.43365,29.1026 193.46568,28.88579 C193.52338,28.49483 193.65581,28.32917 195.51597,26.32 C196.04556,25.748 196.40029,25.28 196.30428,25.28 C196.20828,25.28 196.30928,25.064 196.52808,24.8 C196.85468,24.40648 196.83178,24.32 196.401,24.32 C196.01049,24.32 195.91411,24.10745 196.02566,23.49226 C196.2294,22.36872 196.57684,22.00891 198.27874,21.15894 C200.05022,20.27422 201.1759,20.43948 202.59124,21.79204 C203.16391,22.33932 203.7545,22.64981 203.97831,22.52126 C204.19268,22.39813 204.26582,22.41074 204.14084,22.54926 C203.79737,22.92997 204.8161,24.69753 205.23115,24.44101 C205.45138,24.3049 205.49666,24.36721 205.34997,24.60457 C205.21963,24.81547 205.30537,25.21985 205.54053,25.50319 C205.77568,25.78653 205.92196,26.03222 205.86558,26.04917 C205.80918,26.06617 205.94708,26.51199 206.17195,27.03999 C206.94676,28.85921 206.40127,33.91999 205.43037,33.91999 C205.26534,33.91999 205.21174,34.05174 205.31126,34.21277 C205.50097,34.51972 203.82425,36.90713 202.24336,38.58103 C201.73377,39.1206 201.41536,39.6606 201.53579,39.78103 C201.65621,39.90146 201.57549,39.99999 201.35633,39.99999 C201.13719,39.99999 200.42629,40.55329 199.77654,41.22955 C199.1268,41.90581 198.34666,42.42263 198.0429,42.37805 C197.73915,42.33345 197.40955,42.42815 197.31046,42.58849 C197.12929,42.88164 196.31125,42.90712 195.04539,42.65909 C194.01483,42.45709 191.88292,40.49261 191.25244,39.164 Z M199.72808,33.30286 C199.72808,33.11428 199.8451,32.96 199.98812,32.96 C200.40249,32.96 201.75696,29.71679 201.89211,28.40099 C201.99977,27.35286 201.94181,27.22824 201.43167,27.41067 C200.54846,27.72649 200.03466,28.1994 200.23049,28.51626 C200.32699,28.67232 200.28439,28.8 200.13599,28.8 C199.73239,28.8 198.70265,30.67519 198.91636,31.02099 C199.01823,31.18581 198.91136,31.43752 198.67829,31.58033 C198.32109,31.79946 196.52811,35.22588 196.52811,35.68937 C196.52811,35.93358 198.64395,34.72987 199.21044,34.16339 C199.49513,33.87867 199.72808,33.49143 199.72808,33.30286 Z M270.25911,39.00285 C270.31961,38.93525 270.45711,38.04693 270.56458,37.02873 C270.75033,35.26889 271.89752,32 272.32937,32 C272.44073,32 272.72884,31.55496 272.96962,31.01101 C273.69275,29.37735 275.46578,27.80893 276.39828,27.97803 C278.18001,28.30112 279.71619,31.0176 278.76517,32.16351 C278.54767,32.42558 278.47698,32.64 278.60808,32.64 C278.73918,32.64 278.66718,32.856 278.44808,33.12 C277.94652,33.72435 276.84808,33.74785 276.84808,33.1542 C276.84808,32.36909 275.9228,32.29842 275.50835,33.05188 C275.29413,33.44132 275.08682,33.95259 275.04766,34.18803 C275.00846,34.42346 274.76661,34.85546 274.51012,35.14803 C274.09951,35.6164 273.66835,36.62171 273.45855,37.59996 C273.42085,37.77596 273.2886,38.17196 273.16476,38.47996 C273.00699,38.87238 273.09136,39.03996 273.44654,39.03996 C274.07481,39.03996 278.10103,37.54078 278.6123,37.11646 C278.81836,36.94544 279.08172,36.90026 279.19752,37.01607 C279.31333,37.13188 279.40808,37.05867 279.40808,36.85329 C279.40808,36.64796 279.59758,36.47996 279.8292,36.47996 C280.06081,36.47996 280.5916,35.65196 281.00873,34.63996 C281.42586,33.62796 282.19924,32.39307 282.72735,31.89577 C283.44039,31.22432 283.5816,30.92608 283.27591,30.73716 C282.94617,30.53337 282.96357,30.29941 283.36331,29.56136 C283.63781,29.05459 283.86817,28.76452 283.87522,28.91676 C283.88222,29.06901 284.21947,28.97636 284.62455,28.71098 C286.17557,27.69471 288.50636,29.76566 289.46175,33.0089 C289.96394,34.71372 289.73174,35.64954 288.26088,37.84864 C285.15721,42.48899 282.41187,43.43273 280.55632,40.49717 L279.67374,39.10089 L278.74291,39.63042 C278.23095,39.92167 277.81117,40.27646 277.81005,40.41885 C277.80909,40.56123 277.67126,40.5932 277.50408,40.48985 C277.33692,40.38653 277.05282,40.57725 276.87276,40.91373 C276.69048,41.25431 276.03502,41.62119 275.39398,41.74145 C274.76071,41.86026 274.07281,42.01292 273.86531,42.0807 C273.6578,42.1485 273.02552,41.88804 272.46024,41.50194 C271.43083,40.79886 270.05228,39.2337 270.25911,39.00285 Z M286.76808,33.14611 C286.76808,32.6548 286.70488,32.65776 286.01039,33.18161 C285.14024,33.83797 284.09196,36.03578 284.34033,36.68303 C284.59975,37.35908 284.73091,37.24265 285.7846,35.40101 C286.32551,34.45562 286.76808,33.4409 286.76808,33.14611 Z M289.92861,37.28 C290.0988,36.4 290.48556,35.104 290.78807,34.4 C291.09058,33.696 291.39026,32.69624 291.45402,32.17831 C291.51782,31.66038 291.69114,31.15638 291.83927,31.05831 C291.9874,30.96021 292.08432,30.412 292.05464,29.84 C292.02494,29.268 292.10374,28.8 292.22969,28.8 C292.35564,28.8 292.54956,28.43796 292.66062,27.99547 C292.96809,26.77044 294.58164,26.99115 295.39487,28.36947 C295.72975,28.93706 295.88479,29.44612 295.73939,29.50072 C295.37219,29.63863 295.09238,32 295.44325,32 C295.59991,32 295.72808,31.7994 295.72808,31.55424 C295.72808,31.30907 295.94532,31.02511 296.21085,30.92322 C296.47637,30.82133 296.8522,30.3899 297.04604,29.96449 C297.36616,29.2619 297.50053,29.2192 298.51236,29.49858 C299.125,29.66774 299.82184,29.7311 300.06087,29.63937 C300.33084,29.53577 300.43278,29.63637 300.32997,29.90393 C300.23897,30.14116 300.31827,30.43033 300.50627,30.54652 C300.69426,30.66271 300.84808,31.04577 300.84808,31.39777 C300.84808,31.74977 300.99208,31.94877 301.16808,31.84 C301.34408,31.73123 301.48808,31.7862 301.48808,31.96223 C301.48808,32.13823 301.37419,32.35261 301.235,32.43864 C300.88483,32.65506 300.76388,34.88 301.10228,34.88 C301.25311,34.88 301.71472,34.52 302.12808,34.08 C302.54144,33.64 302.77648,33.28 302.65039,33.28 C302.5243,33.28 303.02989,32.7009 303.77394,31.99311 C304.51798,31.28532 305.20804,30.74994 305.30741,30.80338 C305.40681,30.85678 305.88131,31.09777 306.36193,31.33883 C306.84255,31.57989 307.34014,32.07927 307.4677,32.44856 C307.74915,33.26339 307.8068,37.42693 307.5343,37.25887 C307.42772,37.19317 307.40891,37.49714 307.4925,37.93441 C307.70262,39.03359 308.13039,39.20609 308.92323,38.51135 C309.29439,38.18611 309.49282,38.1 309.36418,38.32 C309.20696,38.58887 309.35718,38.72 309.82341,38.72 C310.32398,38.72 310.46257,38.86062 310.3223,39.22617 C310.21546,39.50457 310.12806,39.91345 310.12806,40.13481 C310.12806,41.21677 307.04274,41.43452 305.92109,40.43172 C305.44425,40.00541 304.50987,37.30604 304.63629,36.72 C304.75569,36.16648 304.0739,36.53447 303.88658,37.12465 C303.77405,37.4792 303.5261,37.67295 303.33558,37.5552 C303.1434,37.43643 303.08034,37.4886 303.19395,37.67245 C303.39332,37.99504 300.20941,41.57349 299.6757,41.62667 C299.5285,41.64137 299.09074,41.68877 298.7029,41.7321 C298.31506,41.7754 298.05284,41.7217 298.12018,41.61276 C298.18748,41.5038 297.82125,41.13236 297.30625,40.78733 C296.64285,40.34287 296.36963,39.89797 296.36898,39.26111 C296.36834,38.6633 296.24432,38.4387 295.99862,38.59056 C295.76788,38.73316 295.71611,38.67816 295.86073,38.44422 C295.98808,38.23816 296.22633,38.15241 296.39017,38.25367 C296.64752,38.41272 296.86012,37.17639 296.71473,36.36632 C296.68773,36.21579 296.85066,35.86821 297.07683,35.59393 C297.44043,35.15298 297.40466,35.13966 296.76806,35.47887 C296.37206,35.68988 296.04806,36.00145 296.04806,36.17126 C296.04806,36.71684 295.90752,36.93308 294.83532,38.03715 C294.25631,38.63337 293.84848,39.18709 293.92903,39.26764 C294.00963,39.34824 293.87013,39.65392 293.61915,39.94705 C293.36817,40.24017 293.2,40.56228 293.24544,40.66286 C293.35771,40.91133 292.48287,41.75241 291.87194,41.98335 C291.59907,42.0865 291.03409,41.98835 290.61643,41.76448 C289.57566,41.20747 289.39581,40.03492 289.92861,37.28 Z M262.12808,40.27514 C262.12808,39.64095 263.36742,38.3371 263.74716,38.57179 C263.91267,38.67408 264.04808,38.60529 264.04808,38.41889 C264.04808,37.92391 264.86738,38.00489 265.31488,38.54409 C266.18873,39.59702 265.76468,41.40766 264.56907,41.72851 C263.49702,42.01621 263.22332,41.95983 262.65768,41.3348 C262.3664,41.01294 262.12808,40.5361 262.12808,40.27514 Z M177.21236,19.36 C177.31367,19.096 177.45315,18.88 177.52232,18.88 C177.59152,18.88 177.64808,19.096 177.64808,19.36 C177.64808,19.624 177.5086,19.84 177.33812,19.84 C177.16765,19.84 177.11105,19.624 177.21236,19.36 Z" id="mouse.com" fill="#000000" fill-rule="nonzero"></path>
        <path d="M127.67634,42.720179 L126.95267,42.081555 L125.9011,43.100778 C123.1818,45.736429 120.30078,42.918736 120.14502,37.471229 C120.13802,37.240682 119.74298,37.436439 119.23804,37.920195 C118.74564,38.391952 118.41813,38.899901 118.51026,39.048966 C118.60236,39.198035 118.54836,39.32 118.39025,39.32 C118.23212,39.32 117.93624,39.685414 117.73275,40.132029 C117.52925,40.578646 117.21547,41.118646 117.03545,41.332029 C116.85543,41.545414 116.4535,42.030637 116.14229,42.410307 C115.13987,43.633206 114.40258,43.48063 113.57972,41.88 C112.83871,40.438589 112.81146,39.843949 113.31317,36.063395 C113.40247,35.390285 113.29977,35.216368 112.83343,35.251494 C112.50704,35.276074 112.24,35.409552 112.24,35.548096 C112.24,35.686643 112.132,35.782947 112,35.762106 C111.868,35.741276 111.688,35.751966 111.6,35.785886 C111.512,35.819806 111.08019,35.913418 110.64043,35.993918 C110.20066,36.074418 109.32088,36.484375 108.68535,36.904945 C107.77295,37.508746 107.47463,37.961038 107.26738,39.05481 C106.89978,40.994852 106.88873,41.308276 107.16041,42.088433 C107.43204,42.868426 106.69205,43.72219 105.76,43.704164 C105.452,43.698164 105.27251,43.620834 105.36112,43.532212 C105.44972,43.443592 105.29352,43.022007 105.01396,42.595351 C104.67153,42.07274 104.48572,40.968026 104.44453,39.209809 C104.41093,37.774414 104.20216,36.276209 103.98068,35.880465 C103.39023,34.82547 103.66219,33.421975 104.48051,33.301009 C104.98819,33.225959 105.20967,32.877655 105.39617,31.861009 C105.53148,31.123453 105.6592,30.448 105.68,30.36 C105.7008,30.272 105.82722,29.552 105.96094,28.76 C106.09465,27.968 106.39436,26.672 106.62694,25.88 C106.85953,25.088 107.29336,23.617258 107.59102,22.611686 C107.88868,21.606112 108.02622,20.611862 107.89667,20.402243 C107.74815,20.161936 107.79757,20.105478 108.03056,20.249443 C108.25771,20.38983 108.40046,20.254843 108.4012,19.898886 C108.4032,19.152221 109.56563,17.24 110.01815,17.24 C110.20931,17.24 110.57087,17.445155 110.82162,17.695901 C111.94477,18.819053 112.02469,20.540755 111.10636,23.829808 C110.85608,24.726202 110.59839,25.734202 110.53372,26.069808 C110.46902,26.405414 110.33949,26.896 110.2458,27.16 C110.02432,27.784122 109.43595,30.000019 109.24744,30.92 C109.14355,31.427062 109.25644,31.651958 109.62996,31.680435 C111.27764,31.806134 111.7918,31.801222 112.08,31.657045 C112.43961,31.477112 112.68063,31.438437 113.87652,31.368757 C114.56938,31.328387 114.80623,31.058965 115.25557,29.800018 C115.55396,28.964018 115.93352,28.029973 116.09905,27.72436 C116.26457,27.418748 116.4,26.835548 116.4,26.42836 C116.4,26.021173 116.5263,25.551218 116.68067,25.384018 C117.0301,25.005532 118.15906,21.655404 118.05821,21.296232 C118.01751,21.151151 118.13171,21.12365 118.31207,21.235122 C118.49243,21.346591 118.64,21.221462 118.64,20.957051 C118.64,20.268504 119.94268,19.420485 120.40764,19.806357 C120.61182,19.975819 120.84951,20.043842 120.93584,19.957519 C121.02214,19.871199 121.24571,20.298831 121.43261,20.907819 C121.73389,21.88948 121.59304,22.53373 120.19084,26.587547 C117.04915,35.670312 117.10837,35.465951 117.71147,35.143176 C118.01021,34.983295 118.8471,34.179413 119.57122,33.35677 L120.8878,31.861055 L122.1887,32.250815 C123.2263,32.561685 123.58888,32.878187 123.98013,33.814571 C124.45432,34.949467 124.4496,35.427663 123.92613,39.285803 C123.73079,40.725528 123.91713,40.943547 125.01507,40.56076 C125.7877,40.291423 125.94488,40.049727 125.99111,39.059874 C126.02141,38.410955 126.06591,37.494111 126.08991,37.022443 C126.11401,36.550776 126.24756,36.235272 126.3868,36.32133 C126.52604,36.40738 126.63996,36.31403 126.63996,36.113906 C126.63996,35.913765 127.1544,34.68045 127.78316,33.373202 C128.99369,30.856408 130.8641,28.56412 131.42454,28.910491 C131.60902,29.024507 131.75996,28.888221 131.75996,28.607647 C131.75996,28.17917 131.87416,28.158623 132.47336,28.479301 C135.8937,30.309816 135.55489,33.789823 131.53383,38.129455 C129.6342,40.179576 129.7667,40.787957 132.088,40.674053 C133.05158,40.626773 134.05596,40.497023 134.31996,40.38572 C135.29518,39.974575 135.65033,40.007195 135.46472,40.490872 C135.36311,40.755679 135.27996,41.248571 135.27996,41.586178 C135.27996,41.923781 135.07366,42.200005 134.82152,42.200005 C134.56938,42.200005 134.27712,42.470856 134.17205,42.801899 C134.00736,43.320815 132.43512,43.977519 131.67996,43.842815 C131.54796,43.819265 131.43996,43.908005 131.43996,44.040005 C131.43996,44.449599 129.92069,44.303807 129.14118,43.819407 C128.73355,43.566074 128.07435,43.071424 127.67634,42.720179 Z M67.02055,43.366118 C66.94665,43.440038 66.70823,43.027904 66.49078,42.450259 C66.27332,41.872618 65.979,41.112 65.83672,40.76 C65.26348,39.341795 65.10868,38.79151 64.98151,37.72 C64.90841,37.104 64.79436,36.312 64.72807,35.96 C64.66177,35.608 64.59686,35.068 64.58378,34.76 C64.55828,34.159491 63.6,33.960378 63.6,34.55559 C63.6,34.751165 63.04393,35.579165 62.36429,36.39559 C60.90015,38.15441 60.01612,39.779763 60.33276,40.130733 C59.96546,40.04201 59.7235,40.210873 59.61078,40.566026 C59.50337,40.904451 58.9913,41.662544 58.47285,42.250672 C57.95441,42.8388 57.52792,43.427722 57.52511,43.559386 C57.52211,43.69105 56.908,43.746266 56.16,43.682087 C54.91975,43.575674 54.7364,43.441885 54.07773,42.162698 C53.68048,41.391213 53.17648,40.806365 52.95773,40.863037 C52.36504,41.016579 50.8,42.582429 50.8,43.021879 C50.8,43.232055 50.12888,43.573008 49.30863,43.779552 C47.53558,44.22601 46.32937,43.861042 44.96,42.463757 C44.476,41.969891 44.08,41.732512 44.08,41.936243 C44.08,42.139975 43.9847,42.211354 43.8682,42.094861 C43.75171,41.978371 43.15096,42.268576 42.5332,42.73976 C40.85956,44.016307 38.52688,44.138259 36.90004,43.034256 C36.2239,42.575418 35.78042,42.2 35.91453,42.2 C36.04864,42.2 36.01203,42.02 35.83323,41.8 C35.05016,40.8364 34.16,38.916077 34.16,38.190266 C34.16,37.755619 34.016,37.4 33.84,37.4 C33.664,37.4 33.52,37.524317 33.52,37.676262 C33.52,37.828205 32.80705,38.918339 31.93566,40.098784 C30.30911,42.302224 28.2053,44.235213 27.74399,43.950106 C27.60112,43.861806 27.40033,43.925306 27.2978,44.091206 C27.023,44.53584 25.40066,43.985622 24.13095,43.017168 C22.87296,42.057648 22.5457,40.943069 22.99267,39.140394 C23.43459,37.358128 23.39907,37.452339 24.49335,35.16 C26.95012,30.013482 29.21059,26.74008 31.1247,25.557094 C31.6981,25.202714 32.24213,24.626394 32.33367,24.276384 C32.42517,23.926371 32.73985,23.64 33.0329,23.64 C33.32595,23.64 33.79097,23.414742 34.06628,23.139427 C34.42016,22.785558 34.66667,22.738666 34.90743,22.979427 C35.39057,23.462566 36.09961,23.401443 36.74056,22.821395 C37.23462,22.374272 37.41068,22.372586 38.44575,22.805075 C39.08059,23.070326 39.6,23.200378 39.6,23.094083 C39.6,22.987786 39.888,23.161453 40.24,23.480006 C41.04788,24.211133 41.04531,25.160912 40.2273,28.141648 C38.91385,32.927894 38.11561,38.629443 38.53463,40.231763 C38.67701,40.776218 38.88322,40.877517 39.55649,40.733731 C40.67312,40.495261 42.7971,39.593085 42.81089,39.351408 C42.81689,39.246138 42.86639,38.080006 42.92088,36.760006 C42.97538,35.440006 43.26686,33.352006 43.56864,32.120006 C43.87042,30.888006 44.15511,29.664006 44.20128,29.400006 C44.24748,29.136006 44.371,28.704006 44.47584,28.440006 C44.58067,28.176006 44.91665,27.269216 45.22245,26.424912 C45.82633,24.757619 46.41137,24.280006 47.84984,24.280006 C48.99929,24.280006 51.23067,26.292445 50.98528,27.107789 C50.75845,27.861437 50.49023,29.324362 50.27165,31.000006 C50.16834,31.792006 49.95188,32.692006 49.79063,33.000006 C49.62938,33.308006 49.61052,33.562211 49.74873,33.564906 C49.88692,33.567506 49.83443,33.6756 49.63207,33.804906 C49.42971,33.934211 49.22121,34.544006 49.16873,35.160006 C49.11623,35.776006 48.97443,36.424006 48.8536,36.600006 C48.45963,37.173818 48.17946,39.000006 48.4854,39.000006 C48.97797,39.000006 50.70702,38.057603 51.11387,37.567386 C51.32354,37.314746 51.40321,36.959382 51.29091,36.77769 C51.16876,36.580042 51.28791,36.524518 51.58744,36.639472 C52.14218,36.852346 53.12606,36.198157 52.87124,35.785859 C52.78234,35.641962 52.87824,35.420029 53.08421,35.292675 C53.34044,35.134317 53.37325,35.203195 53.188,35.510563 C52.96347,35.883126 53.00347,35.890093 53.42185,35.551293 C53.69944,35.326499 54.16958,34.174499 54.46661,32.991293 C54.76363,31.808083 55.19527,30.408003 55.4258,29.880003 C56.10213,28.330957 56.54782,27.045715 56.64645,26.360003 C56.69705,26.008003 56.82343,25.576003 56.92723,25.400003 C57.2812,24.799792 57.96426,22.521834 58.01408,21.775379 C58.04138,21.365834 58.43421,20.660327 58.88695,20.207587 C59.66605,19.428487 59.73964,19.413939 60.26155,19.935856 C60.67725,20.351555 60.87279,20.390531 61.05594,20.094195 C61.22972,19.813011 61.53534,19.956234 62.12944,20.597277 C63.05143,21.592128 63.06466,21.664471 62.65675,23.480003 C62.49858,24.184003 62.32407,25.264003 62.26895,25.880003 C62.21385,26.496003 61.96748,27.209575 61.7215,27.465719 C61.44484,27.753815 61.40198,27.974003 61.60913,28.04305 C61.7933,28.10444 62.43334,27.665319 63.03143,27.067226 C64.36597,25.732688 65.47416,25.424707 67.14276,25.924634 C68.0919,26.209002 68.55095,26.581408 68.92563,27.370986 C69.20316,27.95584 69.53443,28.369965 69.66178,28.291258 C70.00231,28.080797 70.04866,28.718074 70.107,34.412659 C70.1361,37.257619 70.26979,39.695427 70.40401,39.83001 C70.77797,40.205018 72.95428,39.059101 72.6876,38.627603 C72.55113,38.406781 72.6023,38.348407 72.81646,38.480739 C73.0119,38.601533 73.66067,38.496099 74.25817,38.246455 C75.29619,37.812746 75.35294,37.701952 75.53369,35.756275 C75.70082,33.957226 75.63371,33.589523 74.95764,32.600003 C73.65944,30.699895 74.10146,28.874851 75.99999,28.296288 C76.39599,28.175613 76.731,27.906579 76.74447,27.698439 C76.75797,27.490301 76.81477,27.104003 76.87075,26.840003 C77.07982,25.854115 77.46254,23.457267 77.51203,22.823843 C77.54023,22.462957 77.64495,22.030957 77.74473,21.863843 C77.84453,21.696733 78.02293,20.912003 78.14121,20.120003 C78.25949,19.328003 78.4829,18.392003 78.63768,18.040003 C78.79245,17.688003 79.2935,16.032003 79.75111,14.360003 C80.20872,12.688003 80.74224,10.744003 80.93671,10.040003 C81.74848,7.101315 82.61159,5.03209 83.14459,4.746837 C83.96708,4.306652 85.42155,5.241547 86.10007,6.646549 C86.89137,8.285066 86.59657,10.194128 84.5214,16.869776 C83.56225,19.95529 82.84646,22.659543 82.93076,22.879229 C83.01506,23.098912 82.97006,23.323959 82.83071,23.379328 C82.69138,23.434698 82.48102,24.096679 82.36324,24.850394 L82.1491,26.220784 L83.26323,26.145754 C83.87601,26.104484 84.47721,26.170554 84.59923,26.292589 C84.72126,26.414614 84.97835,26.391039 85.17054,26.240189 C85.55355,25.939584 88.86115,25.530861 92.0024,25.395968 L94.00482,25.309978 L93.93572,26.21704 C93.88752,26.850167 93.65583,27.177002 93.16869,27.299267 C92.78199,27.396327 92.38489,27.816627 92.27817,28.241827 C92.11443,28.894234 91.37495,29.343683 90.15231,29.533914 C90.06011,29.548254 89.55755,29.956003 89.03558,30.440003 C88.5136,30.924003 87.90044,31.320003 87.67299,31.320003 C87.44554,31.320003 86.72407,31.558986 86.06972,31.851079 C85.41537,32.143168 84.808,32.405181 84.72,32.433331 C84.632,32.461491 83.984,32.658074 83.28,32.870199 C82.576,33.082327 81.546,33.648311 80.9911,34.127946 C79.81893,35.141143 79.54293,36.245811 79.43408,40.360003 C79.33928,43.944023 79.39008,43.721936 78.60782,43.970215 C78.08022,44.137671 77.67395,43.885655 76.71893,42.798535 L75.50221,41.413517 L73.91814,43.048387 C72.54833,44.462131 72.1654,44.683626 71.08703,44.685975 C70.39131,44.687575 69.24647,44.366627 68.49747,43.960205 C67.75909,43.559533 67.09447,43.292195 67.02055,43.366118 Z M49.52922,18.994304 C49.23194,19.178032 47.93487,17.132198 47.71109,16.126614 C47.26266,14.111562 47.26681,14.040029 47.83374,14.015517 C48.42963,13.989757 48.8466,13.918757 50.37978,13.58201 C51.89955,13.248214 52.49085,14.188448 52.52873,16.999037 L52.56,19.32 L51.38973,19.41755 C50.74608,19.4712 50.12413,19.36085 50.00762,19.172327 C49.8911,18.983805 49.67582,18.903696 49.52922,18.994304 Z M4.04324,39.531523 C4.39125,38.799187 4.74938,37.768 4.83909,37.24 C5.08237,35.808026 5.26101,35.139789 5.8015,33.64 C6.07106,32.892 6.22956,32.28 6.15372,32.28 C6.07792,32.28 6.17362,31.884 6.36649,31.4 C6.55935,30.916 6.76403,30.232 6.82133,29.88 C6.93698,29.169613 6.93773,29.166544 8.02274,25 C8.44668,23.372 8.72337,22.04 8.63759,22.04 C8.55179,22.04 8.62749,21.86 8.80586,21.64 C8.98418,21.42 9.2146,20.664 9.31789,19.96 C9.42119,19.256 9.71803,17.996 9.97755,17.16 C10.33026,16.023779 10.35226,15.638762 10.06465,15.635101 C9.80105,15.631701 9.81609,15.543931 10.11245,15.356147 C10.64635,15.017821 11.50578,11.714352 11.45103,10.210966 C11.42763,9.569306 11.07076,8.656346 10.60415,8.044582 C9.62924,6.766412 9.25572,4.962283 9.88471,4.569681 C11.03358,3.852582 14.25628,3.920322 16.01559,4.698549 C16.81605,5.052632 17.57709,5.247311 17.70678,5.131168 C17.83648,5.015026 17.839,5.099998 17.71278,5.32 C17.57847,5.553384 17.65708,5.720571 17.90147,5.72137 C18.61473,5.72367 20.91477,7.41408 23.27673,9.671827 C24.90002,11.223494 25.81613,12.424294 26.53109,13.937517 C27.44404,15.869782 27.51048,16.23073 27.33609,18.310851 C27.07639,21.408541 25.68452,24.103187 22.88036,26.937094 C21.69236,28.137693 20.72036,29.044147 20.72036,28.951437 C20.72036,28.858727 20.38707,29.101725 19.97971,29.491434 C19.57236,29.881146 19.30661,30.33025 19.38916,30.489443 C19.47166,30.648637 19.39716,30.691005 19.22326,30.583593 C19.04946,30.476185 18.36504,30.756757 17.70232,31.207087 C17.03959,31.65742 16.33154,32.053977 16.12886,32.088325 C15.92618,32.122675 15.47236,32.3043 15.12036,32.491938 C14.49597,32.824773 12.14222,33.28301 11.05863,33.282687 C10.65463,33.282569 10.42702,33.744924 10.1634,35.101263 C9.96897,36.101567 9.60401,37.423999 9.35239,38.039999 C9.10076,38.655999 8.73512,39.879999 8.53985,40.759999 C8.02003,43.102665 7.58465,44.105887 6.9375,44.452229 C6.62121,44.621503 6.31696,44.748629 6.26139,44.734735 C6.20579,44.720845 5.78516,44.571778 5.32659,44.403481 C3.71905,43.813645 3.10906,41.497328 4.04324,39.531523 Z M20.13462,21.713766 C21.25729,20.242173 22.96622,17.412022 22.93599,17.074426 C22.92799,16.986326 23.01619,16.284013 23.13167,15.513722 C23.25699,14.678022 23.19717,13.843181 22.98337,13.44367 C22.07849,11.752874 18.38562,8.972717 16.87853,8.84767 L15.82192,8.76 L15.76512,11.64 C15.73392,13.224 15.61612,14.736 15.50341,15 C15.39071,15.264 15.22971,15.84 15.14564,16.28 C14.82761,17.944602 14.64493,18.760694 13.96374,21.56 C13.57828,23.144 13.08294,25.016 12.86297,25.72 C12.643,26.424 12.52536,27.101549 12.60154,27.225667 C12.80531,27.557674 15.20645,26.204902 17.21081,24.628854 C18.17287,23.872387 19.48858,22.560598 20.13462,21.713766 Z" id="paint_the" fill="#000000"></path>
    </g>
</svg>