<?xml version="1.0" encoding="UTF-8" standalone="no"?>
<svg width="183px" height="98px" viewBox="0 0 183 98" version="1.1" xmlns="http://www.w3.org/2000/svg" xmlns:xlink="http://www.w3.org/1999/xlink">
    <!-- Generator: Sketch 42 (36781) - http://www.bohemiancoding.com/sketch -->
    <title>text_2lines copy</title>
    <desc>Created with Sketch.</desc>
    <defs></defs>
    <g id="Page-1" stroke="none" stroke-width="1" fill="none" fill-rule="evenodd">
        <g id="Desktop" transform="translate(-400.000000, -102.000000)" fill-rule="nonzero" fill="#FFFFFF">
            <path d="M423.518597,196.640033 C423.690027,196.468333 423.681227,196.115693 423.496897,195.771313 C423.187477,195.193163 423.993137,190.682553 424.761897,188.689053 C424.948537,188.205053 425.024667,187.809053 424.931077,187.809053 C424.837477,187.809053 424.969677,187.413053 425.224917,186.929053 C426.059217,185.346853 427.677107,181.526813 427.677107,181.139183 C427.677107,180.930843 427.816057,180.510323 427.985887,180.204713 C428.499557,179.280323 430.324127,175.010733 430.370297,174.625053 C430.385097,174.501853 430.577107,174.221053 430.797107,174.001053 C431.117107,173.681053 431.202307,173.725853 431.223097,174.225053 C431.242797,174.697503 431.351007,174.617723 431.668757,173.896543 C431.899577,173.372663 432.031127,172.628023 431.961087,172.241792 C431.769397,171.184672 432.373347,169.889053 433.057817,169.889053 C433.403987,169.889053 433.812427,169.519699 434.030927,169.009053 L434.407477,168.129053 L433.790997,168.849053 C432.380957,170.495869 432.559627,169.332221 434.245467,165.889053 C434.934857,164.481053 435.466997,163.221053 435.428007,163.089053 C435.389007,162.957053 435.493207,162.849053 435.659647,162.849053 C435.968667,162.849053 436.656677,161.747421 437.279377,160.255591 C437.572107,159.554266 437.820107,159.427431 438.843547,159.455591 C439.512507,159.473991 440.297717,159.686685 440.588467,159.928234 C440.879217,160.169786 441.117107,160.258365 441.117107,160.125082 C441.117107,159.783853 442.233227,161.277277 442.554997,162.049053 C442.923147,162.932051 442.951627,163.056989 442.997107,163.987939 C443.019107,164.438327 443.145107,164.740032 443.277107,164.658397 C443.409107,164.576767 443.519597,164.964263 443.522647,165.519511 C443.525647,166.074759 443.653367,168.257053 443.806367,170.369053 C444.074617,174.071873 444.102627,178.822513 443.872867,181.643513 L443.762547,182.997973 L444.674727,181.963513 C445.176437,181.394563 445.589227,180.837843 445.592037,180.726373 C445.595037,180.614903 445.875827,180.450823 446.216437,180.361743 C446.663727,180.244783 446.786677,180.012213 446.659117,179.524423 C446.526237,179.016303 446.630417,178.847843 447.079827,178.844153 C447.533247,178.840153 447.573397,178.773453 447.246507,178.566333 C446.902867,178.348543 446.985987,178.023913 447.657967,176.959433 C448.121127,176.225743 448.648547,175.717213 448.830017,175.829363 C449.011477,175.941513 449.133257,175.838363 449.100637,175.601163 C448.998327,174.855883 449.108637,174.254243 449.311207,174.456453 C449.710217,174.855453 451.365407,172.699037 451.559587,171.527229 C451.613987,171.198634 451.540087,171.178131 451.270967,171.447229 C450.632937,172.085264 450.276097,171.83321 450.877147,171.169053 C451.195707,170.817053 451.644957,170.529053 451.875487,170.529053 C452.106017,170.529053 452.443697,170.250519 452.625887,169.91009 C453.057807,169.10305 453.044947,168.631043 452.607887,169.249053 C452.306137,169.675719 452.282977,169.675719 452.399447,169.249053 C452.471547,168.985053 452.698477,168.751053 452.903807,168.729053 C453.644517,168.649693 453.669187,168.600791 453.246877,168.049053 C453.011127,167.741053 452.944247,167.595805 453.098247,167.726275 C453.475127,168.045568 454.284157,167.34401 454.024177,166.923351 C453.910927,166.740099 453.968777,166.683181 454.152697,166.796864 C454.508517,167.016771 455.623807,165.547562 455.623807,164.858915 C455.623807,164.633491 455.779807,164.446848 455.970477,164.444154 C456.161147,164.441554 456.106727,164.30616 455.849547,164.143491 C455.463157,163.899091 455.535747,163.705203 456.267567,163.026979 C456.754647,162.575565 457.074647,162.079178 456.978677,161.923898 C456.798457,161.632285 457.707517,160.711815 458.046327,160.842855 C458.151277,160.883445 458.246017,160.667447 458.256867,160.362855 C458.310717,158.849923 459.173117,157.889053 460.477107,157.889053 C462.732977,157.889053 464.103047,159.366848 464.615867,162.353229 C464.777297,163.293322 464.150517,167.467623 463.537557,169.534611 C463.360507,170.131671 463.291977,170.743671 463.385257,170.894611 C463.478557,171.045555 463.387257,171.169053 463.181757,171.169053 C462.976537,171.169053 462.891517,171.385053 462.992827,171.649053 C463.094127,171.913053 463.061527,172.129053 462.920427,172.129053 C462.779277,172.129053 462.659157,172.309053 462.653487,172.529053 C462.635487,173.228283 462.264067,175.130403 461.919337,176.289053 C461.579127,177.432473 460.672997,181.834353 460.009037,185.569053 C459.805657,186.713053 459.686057,188.536713 459.743257,189.621633 C459.800457,190.706543 459.741257,191.528723 459.611837,191.448693 C459.482347,191.368693 459.599037,191.921013 459.871067,192.676123 C460.621647,194.759303 460.637107,195.069883 460.018107,195.630073 C459.329087,196.253633 458.078927,195.896653 457.360727,194.871283 C457.107177,194.509293 456.809157,194.303693 456.698467,194.414383 C456.587777,194.525083 456.554227,194.319583 456.623867,193.957663 C456.695367,193.586303 456.551667,193.223333 456.293837,193.124413 C456.042637,193.028013 455.837097,192.723553 455.837097,192.447833 C455.837097,192.172123 455.604537,191.591603 455.320297,191.157793 C454.869187,190.469323 454.864907,190.369053 455.286597,190.369053 C455.686677,190.369053 455.716377,190.162843 455.459387,189.169053 C455.126947,187.883433 455.099707,186.848543 455.364687,185.569053 C455.455787,185.129053 455.604777,184.171913 455.695747,183.442073 C455.915967,181.675453 456.042797,181.081153 456.402777,180.129053 C456.731577,179.259413 456.585737,178.424163 456.151917,178.692283 C456.003107,178.784283 455.776327,178.677183 455.647947,178.454273 C455.519567,178.231403 455.533097,178.156533 455.678047,178.287903 C456.241017,178.798233 457.185077,176.480303 457.315067,174.268533 C457.386667,173.051083 457.523867,171.927648 457.620057,171.772019 C457.716257,171.616387 457.570457,171.489053 457.296047,171.489053 C457.021657,171.489053 456.814207,171.597053 456.835047,171.729053 C456.947527,172.441383 456.757747,173.102493 456.488617,172.936133 C456.318927,172.831261 455.842237,173.290763 455.429297,173.957253 C454.632057,175.244043 452.530927,180.345453 452.530657,180.994973 C452.530567,181.207233 452.433757,181.321093 452.315437,181.247993 C451.998717,181.052243 450.688537,183.513773 450.963237,183.788463 C451.091897,183.917123 450.997437,183.974383 450.753307,183.915723 C450.466527,183.846823 449.654317,185.087413 448.458057,187.421633 C447.439787,189.408543 446.578257,191.136543 446.543567,191.261633 C446.508867,191.386713 446.353737,191.822423 446.198817,192.229883 C446.043907,192.637343 445.916357,193.069343 445.915367,193.189883 C445.909367,193.945173 445.176947,195.826673 444.654847,196.428653 C443.889747,197.310833 442.493207,197.515353 442.078667,196.805953 C441.912537,196.521653 441.772237,196.410933 441.766887,196.559893 C441.761887,196.708863 441.303167,196.317953 440.748297,195.691213 C440.193417,195.064463 439.652927,194.605143 439.547197,194.670483 C439.273527,194.839623 439.234587,193.871963 439.097247,183.489053 C438.977117,174.406983 438.912857,173.338083 438.459757,172.884983 C438.337327,172.762554 438.239357,172.506387 438.242057,172.315719 C438.245057,172.125053 438.386547,172.185053 438.557157,172.449053 C438.806717,172.835219 438.868317,172.784611 438.872257,172.190167 C438.875257,171.783779 438.763257,171.52168 438.624037,171.607722 C438.484817,171.693762 438.421857,171.234259 438.484117,170.586605 L438.597327,169.409053 L437.895297,170.849053 C437.509187,171.641053 436.988007,172.685053 436.737117,173.169053 C436.486237,173.653053 436.397117,174.051253 436.539067,174.053953 C436.681017,174.056953 436.644297,174.164643 436.457467,174.293953 C436.163857,174.497153 434.241587,178.709033 434.234657,179.164333 C434.233657,179.254933 433.970027,179.878533 433.649647,180.550123 C433.106717,181.688243 432.744257,182.966043 432.706517,183.874973 C432.697517,184.087233 432.588957,184.198143 432.464837,184.121433 C432.340727,184.044733 432.028257,184.591063 431.770467,185.335513 C431.305387,186.678543 431.182857,187.018113 429.730967,190.987713 C429.316827,192.119973 428.907347,193.490953 428.820987,194.034333 C428.595167,195.455243 427.741017,199.051873 427.594617,199.198263 C427.526317,199.266563 427.036067,199.409273 426.505087,199.515473 C425.654467,199.685593 425.402357,199.543273 424.384877,198.318803 C423.698377,197.492683 423.347067,196.811833 423.518597,196.640033 Z M434.573737,167.526954 C434.019367,167.739687 433.917937,167.969053 434.378227,167.969053 C434.543847,167.969053 434.767327,167.826701 434.874847,167.652717 C434.986957,167.471322 434.858447,167.417677 434.573737,167.526954 Z M436.376697,164.129053 C436.077237,164.129053 435.357117,165.533421 435.357117,166.117443 C435.357117,166.584519 435.485367,166.426045 436.124637,165.169053 C436.415537,164.597053 436.528967,164.129053 436.376697,164.129053 Z M501.729407,193.835463 L501.223087,192.856353 L499.987627,194.142103 C498.559257,195.628613 496.989687,196.249993 495.329637,195.986163 C493.652887,195.719683 492.441927,194.903553 491.776527,193.591523 C491.457847,192.963163 491.053117,192.343253 490.877117,192.213953 C490.701117,192.084643 490.651027,191.976643 490.765797,191.973953 C490.880577,191.970953 490.783397,191.334213 490.549897,190.558283 C490.316387,189.782363 490.210477,189.062363 490.314557,188.958283 C490.418627,188.854213 490.335757,188.769053 490.130447,188.769053 C489.925117,188.769053 489.757117,189.009053 489.757117,189.302383 C489.757117,189.595723 489.668017,189.746573 489.559017,189.637623 C489.329657,189.408263 489.069497,189.659223 487.394897,191.725473 C486.563157,192.751723 486.234597,193.420903 486.378417,193.795713 C486.495307,194.100323 486.494187,194.252793 486.375417,194.134533 C486.136967,193.896013 485.276677,194.640953 485.276677,195.086013 C485.276677,195.241493 484.867747,195.671033 484.367947,196.040543 C483.470677,196.703933 483.443447,196.704913 482.207947,196.118643 C479.744267,194.949633 479.414257,194.451723 479.395587,191.875473 C479.373087,188.771313 479.906177,185.639603 480.526887,185.229553 C480.676317,185.130853 480.882607,184.410843 480.985327,183.629553 C481.088047,182.848263 481.375627,182.049143 481.624387,181.853743 C481.873147,181.658343 482.076677,181.344393 482.076677,181.156073 C482.076677,180.967753 482.508677,179.880343 483.036677,178.739593 C483.564677,177.598843 483.996677,176.543323 483.996677,176.393993 C483.996677,176.244663 484.348157,175.743433 484.777737,175.280143 C485.207317,174.816863 485.459317,174.327243 485.337737,174.192113 C485.216157,174.056983 485.328737,174.069703 485.587527,174.220413 C485.846497,174.371093 486.528387,174.484893 487.102857,174.473293 C487.677317,174.461693 488.309747,174.647903 488.508257,174.887093 C488.706777,175.126293 488.968507,175.260613 489.089887,175.185603 C489.348307,175.025883 489.278767,176.509813 488.976397,177.607483 C488.743977,178.451253 487.356417,181.742913 486.684667,183.044133 C486.447547,183.503443 486.345747,183.971443 486.458447,184.084133 C486.571137,184.196833 486.512847,184.289043 486.328837,184.289043 C486.144857,184.289043 485.818317,184.757043 485.603207,185.329043 C485.023487,186.870523 484.596507,187.901223 484.279347,188.524693 C483.919997,189.231073 483.914707,190.049043 484.269347,190.049043 C484.419387,190.049043 485.201867,189.209313 486.008207,188.182973 C486.814537,187.156643 487.841297,185.968643 488.289887,185.542973 C488.738467,185.117313 489.107987,184.589043 489.111027,184.369043 C489.114027,184.149043 489.284557,183.969043 489.489887,183.969043 C489.695217,183.969043 489.769457,183.875243 489.654857,183.760683 C489.540257,183.646083 489.651857,183.394083 489.903937,183.200683 C490.155537,183.007273 490.405297,182.636533 490.458967,182.376813 C490.512667,182.117083 490.869497,181.647323 491.251987,181.332913 C491.634467,181.018493 492.037567,180.366993 492.147757,179.885143 C492.472837,178.463513 493.435717,177.526113 494.459777,177.634303 C494.953007,177.686403 495.549527,177.987903 495.785387,178.304293 C496.144107,178.785503 496.298017,178.811663 496.726807,178.464293 C497.055247,178.198223 497.157977,178.184803 497.012757,178.426893 C496.888107,178.634733 496.913857,178.883743 497.070057,178.980243 C497.839447,179.455753 497.721737,181.149113 496.775677,183.214683 C496.243527,184.376573 495.885287,185.404363 495.979587,185.498663 C496.073887,185.592963 496.014787,185.834333 495.848197,186.035043 C495.681627,186.235743 495.509447,186.932993 495.465567,187.584483 C495.421667,188.235963 495.271207,188.769003 495.131187,188.769003 C494.991157,188.769003 494.876587,189.201003 494.876587,189.729003 C494.876587,190.500003 495.018337,190.696463 495.596587,190.726893 C495.992587,190.747693 496.460587,190.732893 496.636587,190.693293 C496.812587,190.653993 497.172587,190.575913 497.436587,190.519883 C497.700587,190.463883 497.988587,190.390383 498.076587,190.356613 C498.164587,190.322813 498.380587,190.261713 498.556587,190.220873 C498.732587,190.179973 498.984587,190.106593 499.116587,190.057783 C499.248587,190.008983 499.530147,189.951043 499.742267,189.929043 C499.954387,189.907043 500.241917,189.340443 500.381237,188.669933 C500.667267,187.293233 501.179347,186.209043 501.543567,186.209043 C501.918437,186.209043 502.556587,188.207643 502.556587,189.381723 C502.556587,190.153963 502.721867,190.472183 503.185987,190.593553 C503.532157,190.684053 503.901867,191.030593 504.007557,191.363593 C504.113247,191.696593 504.342507,191.969043 504.517037,191.969043 C504.691567,191.969043 504.770767,192.077043 504.693047,192.209043 C504.502907,192.531963 505.031427,193.889563 505.346277,193.887023 C505.881937,193.883023 506.734457,191.812603 507.037467,189.780433 C507.212267,188.608173 507.391577,185.129043 507.435927,182.049043 C507.480327,178.969043 507.604607,176.377043 507.712187,176.289043 C507.819767,176.201043 507.988117,175.121043 508.086297,173.889043 C508.265477,171.640749 508.527717,170.560489 508.910827,170.492557 C510.205587,170.262966 511.017877,170.320297 511.733967,170.691814 C512.205177,170.936275 512.709027,171.063161 512.853647,170.973779 C512.998257,170.884399 513.116587,170.966879 513.116587,171.157017 C513.116587,171.347177 513.486597,171.671353 513.938837,171.877405 C514.391067,172.083456 515.028907,172.806384 515.356247,173.483913 C515.979827,174.774573 516.255727,177.562683 515.876087,178.737233 C515.626497,179.509443 514.460077,179.917483 513.320127,179.631373 C512.401067,179.400703 512.167427,180.036953 512.160957,182.787933 C512.157957,184.190683 512.254757,184.587843 512.556587,184.406503 C512.865147,184.221123 512.872537,184.271673 512.588887,184.627613 C512.386667,184.881403 512.125667,186.601043 512.008887,188.449043 C511.650807,194.115783 511.221717,195.724853 509.633777,197.355453 C508.191687,198.836293 507.286707,198.879453 505.333927,197.560483 C503.582587,196.377203 502.425557,195.181683 501.729407,193.835463 Z M523.267767,196.600583 C522.323357,196.563083 521.237107,196.364523 520.853877,196.159433 C520.470667,195.954343 520.157117,195.895693 520.157117,196.029113 C520.157117,196.162523 519.725347,195.798953 519.197627,195.221173 C518.613467,194.581603 518.081457,194.260823 517.837627,194.401163 C517.617347,194.527933 517.545427,194.512263 517.677817,194.366363 C517.810197,194.220433 517.725617,193.873343 517.489797,193.595063 C517.114807,193.152503 516.637777,191.411123 516.140887,188.670973 C516.058987,188.219443 516.124587,187.768053 516.286727,187.667873 C516.568677,187.493623 517.142297,185.028813 517.017197,184.529093 C516.984197,184.397093 517.101097,184.289093 517.277117,184.289093 C517.453117,184.289093 517.597117,184.103543 517.597117,183.876753 C517.597117,183.649963 517.885117,182.899523 518.237117,182.209093 C518.589117,181.518663 518.877117,180.696223 518.877117,180.381433 C518.877117,180.066643 519.018377,179.809093 519.191017,179.809093 C519.363667,179.809093 519.595277,179.449093 519.705717,179.009093 C519.816147,178.569093 520.003237,178.209093 520.121477,178.209093 C520.239727,178.209093 520.888887,177.446643 521.564057,176.514763 C523.074197,174.430473 524.828847,173.335443 526.214477,173.612563 C526.754927,173.720653 527.197117,174.007093 527.197117,174.249093 C527.197117,174.491093 527.449117,174.692813 527.757117,174.697353 C528.352557,174.706353 529.648787,177.039793 529.529967,177.889093 C529.192587,180.300673 528.947107,181.183763 528.151207,182.849093 C527.646517,183.905093 527.153387,184.733093 527.055357,184.689093 C526.957357,184.645093 526.866857,184.717093 526.854317,184.849093 C526.841717,184.981093 526.625457,185.316783 526.373617,185.595063 C526.121777,185.873343 526.024037,186.209343 526.156417,186.341723 C526.288807,186.474113 526.181117,186.534423 525.917117,186.475763 C525.653117,186.417063 525.473117,186.549063 525.517117,186.769093 C525.561117,186.989093 525.447317,187.169093 525.264297,187.169093 C524.691387,187.169093 522.368267,189.832343 522.543297,190.288473 C522.634897,190.527093 522.567397,190.634353 522.393457,190.526823 C522.219467,190.419303 522.077117,190.544623 522.077117,190.805393 C522.077117,191.978363 525.100797,192.161783 528.637117,191.203343 C529.648077,190.929333 530.280927,190.886283 530.356117,191.086403 C530.421517,191.260593 530.334017,191.494453 530.161447,191.606103 C529.988917,191.717743 529.889047,192.077543 529.939487,192.405643 C529.989887,192.733743 529.701557,193.309743 529.298637,193.685643 C528.895717,194.061543 528.464347,194.693093 528.340027,195.089093 C528.175107,195.614413 527.867447,195.809093 527.202217,195.809093 C526.510517,195.809093 526.225117,196.005083 526.019787,196.621093 C525.810007,197.250423 525.663157,197.347133 525.367007,197.050983 C525.156837,196.840773 524.212187,196.638113 523.267767,196.600583 Z M463.681477,193.053053 C462.878497,191.360893 463.375797,188.556363 465.178757,184.609053 C465.540507,183.817053 465.862687,182.991653 465.894717,182.774843 C465.952417,182.383883 466.084847,182.218223 467.945007,180.209053 C468.474597,179.637053 468.829327,179.169053 468.733317,179.169053 C468.637317,179.169053 468.738317,178.953053 468.957117,178.689053 C469.283717,178.295533 469.260817,178.209053 468.830037,178.209053 C468.439527,178.209053 468.343147,177.996503 468.454697,177.381313 C468.658437,176.257773 469.005877,175.897963 470.707777,175.047993 C472.479257,174.163273 473.604937,174.328533 475.020277,175.681093 C475.592947,176.228373 476.183537,176.538863 476.407347,176.410313 C476.621717,176.287183 476.694857,176.299793 476.569877,176.438313 C476.226407,176.819023 477.245137,178.586583 477.660187,178.330063 C477.880417,178.193953 477.925697,178.256263 477.779007,178.493623 C477.648667,178.704523 477.734407,179.108903 477.969567,179.392243 C478.204717,179.675583 478.350997,179.921273 478.294617,179.938223 C478.238217,179.955223 478.376117,180.401043 478.600987,180.929043 C479.375797,182.748263 478.830307,187.809043 477.859407,187.809043 C477.694377,187.809043 477.640777,187.940793 477.740297,188.101823 C477.930007,188.408773 476.253287,190.796183 474.672397,192.470083 C474.162807,193.009653 473.844397,193.549653 473.964827,193.670083 C474.085247,193.790513 474.004527,193.889043 473.785367,193.889043 C473.566227,193.889043 472.855327,194.442343 472.205577,195.118603 C471.555837,195.794863 470.775697,196.311683 470.471937,196.267103 C470.168187,196.222503 469.838587,196.317203 469.739497,196.477543 C469.558327,196.770693 468.740287,196.796173 467.474427,196.548143 C466.443867,196.346143 464.311957,194.381663 463.681477,193.053053 Z M472.157117,187.191913 C472.157117,187.003333 472.274137,186.849053 472.417157,186.849053 C472.831527,186.849053 474.185997,183.605843 474.321147,182.290043 C474.428807,181.241913 474.370847,181.117293 473.860707,181.299723 C472.977497,181.615543 472.463697,182.088453 472.659527,182.405313 C472.756027,182.561373 472.713427,182.689053 472.565027,182.689053 C472.161427,182.689053 471.131687,184.564243 471.345397,184.910043 C471.447267,185.074863 471.340397,185.326573 471.107327,185.469383 C470.750127,185.688513 468.957147,189.114933 468.957147,189.578423 C468.957147,189.822633 471.072987,188.618923 471.639477,188.052443 C471.924167,187.767723 472.157117,187.380483 472.157117,187.191913 Z M542.688147,192.891903 C542.748647,192.824303 542.886147,191.935983 542.993617,190.917783 C543.179367,189.157943 544.326557,185.889053 544.758407,185.889053 C544.869767,185.889053 545.157877,185.444013 545.398657,184.900063 C546.121787,183.266403 547.894817,181.697983 548.827317,181.867083 C550.609047,182.190173 552.145227,184.906653 551.194207,186.052563 C550.976707,186.314633 550.906017,186.529053 551.037117,186.529053 C551.168217,186.529053 551.096217,186.745053 550.877117,187.009053 C550.375557,187.613403 549.277117,187.636903 549.277117,187.043253 C549.277117,186.258143 548.351837,186.187473 547.937387,186.940933 C547.723167,187.330373 547.515857,187.841643 547.476697,188.077083 C547.437497,188.312513 547.195647,188.744513 546.939157,189.037083 C546.528547,189.505453 546.097387,190.510763 545.887587,191.489013 C545.849887,191.665013 545.717637,192.061013 545.593797,192.369013 C545.436027,192.761433 545.520397,192.929013 545.875577,192.929013 C546.503847,192.929013 550.530067,191.429833 551.041337,191.005513 C551.247397,190.834493 551.510757,190.789313 551.626557,190.905123 C551.742367,191.020933 551.837117,190.947723 551.837117,190.742343 C551.837117,190.537013 552.026617,190.369013 552.258237,190.369013 C552.489847,190.369013 553.020637,189.541013 553.437767,188.529013 C553.854897,187.517013 554.628277,186.282123 555.156387,185.784823 C555.869427,185.113373 556.010637,184.815133 555.704947,184.626213 C555.375207,184.422423 555.392607,184.188463 555.792347,183.450413 C556.066847,182.943643 556.297207,182.653573 556.304257,182.805813 C556.311257,182.958063 556.648507,182.865413 557.053587,182.600033 C558.604607,181.583763 560.935397,183.654713 561.890787,186.897953 C562.392977,188.602773 562.160777,189.538593 560.689917,191.737693 C557.586247,196.378043 554.840907,197.321783 552.985357,194.386223 L552.102777,192.989943 L551.171947,193.519473 C550.659987,193.810723 550.240207,194.165513 550.239087,194.307903 C550.238127,194.450283 550.100297,194.482253 549.933117,194.378903 C549.765957,194.275583 549.481857,194.466303 549.301797,194.802783 C549.119517,195.143363 548.464057,195.510243 547.823017,195.630503 C547.189747,195.749313 546.501847,195.901973 546.294347,195.969753 C546.086837,196.037553 545.454557,195.777093 544.889277,195.390993 C543.859867,194.687913 542.481317,193.122753 542.688147,192.891903 Z M559.197117,187.035163 C559.197117,186.543853 559.133917,186.546813 558.439427,187.070663 C557.569277,187.727023 556.520997,189.924833 556.769367,190.572083 C557.028787,191.248133 557.159947,191.131703 558.213637,189.290063 C558.754547,188.344673 559.197117,187.329953 559.197117,187.035163 Z M562.357647,191.169053 C562.527837,190.289053 562.914597,188.993053 563.217107,188.289053 C563.519617,187.585053 563.819297,186.585293 563.883057,186.067363 C563.946857,185.549433 564.120177,185.045433 564.268307,184.947363 C564.416437,184.849263 564.513357,184.301053 564.483677,183.729053 C564.453977,183.157053 564.532777,182.689053 564.658727,182.689053 C564.784677,182.689053 564.978597,182.327013 565.089657,181.884523 C565.397127,180.659493 567.010677,180.880203 567.823907,182.258523 C568.158787,182.826113 568.313827,183.335173 568.168427,183.389773 C567.801227,183.527683 567.521417,185.889053 567.872287,185.889053 C568.028947,185.889053 568.157117,185.688453 568.157117,185.443293 C568.157117,185.198123 568.374357,184.914163 568.639887,184.812273 C568.905407,184.710383 569.281237,184.278953 569.475077,183.853543 C569.795197,183.150953 569.929567,183.108253 570.941397,183.387633 C571.554037,183.556793 572.250877,183.620153 572.489907,183.528423 C572.759877,183.424823 572.861817,183.525423 572.759007,183.792983 C572.668007,184.030213 572.747307,184.319383 572.935307,184.435573 C573.123297,184.551763 573.277117,184.934823 573.277117,185.286823 C573.277117,185.638823 573.421117,185.837823 573.597117,185.729053 C573.773117,185.620283 573.917117,185.675253 573.917117,185.851283 C573.917117,186.027283 573.803227,186.241663 573.664037,186.327693 C573.313867,186.544113 573.192917,188.769053 573.531317,188.769053 C573.682147,188.769053 574.143757,188.409053 574.557117,187.969053 C574.970477,187.529053 575.205517,187.169053 575.079427,187.169053 C574.953337,187.169053 575.458927,186.589953 576.202977,185.882163 C576.947017,185.174373 577.637077,184.638993 577.736447,184.692433 C577.835847,184.745833 578.310347,184.986823 578.790967,185.227883 C579.271587,185.468943 579.769177,185.968323 579.896737,186.337613 C580.178187,187.152443 580.235837,191.315983 579.963337,191.147923 C579.856757,191.082223 579.837947,191.386193 579.921537,191.823463 C580.131657,192.922643 580.559427,193.095143 581.352267,192.400403 C581.723427,192.075163 581.921857,191.989053 581.793217,192.209053 C581.635997,192.477923 581.786217,192.609053 582.252447,192.609053 C582.753017,192.609053 582.891607,192.749673 582.751337,193.115223 C582.644497,193.393623 582.557097,193.802503 582.557097,194.023863 C582.557097,195.105823 579.471777,195.323573 578.350127,194.320773 C577.873287,193.894463 576.938907,191.195093 577.065327,190.609053 C577.184727,190.055533 576.502937,190.423523 576.315617,191.013703 C576.203087,191.368253 575.955137,191.562003 575.764617,191.444253 C575.572437,191.325483 575.509377,191.377653 575.622987,191.561503 C575.822357,191.884093 572.638447,195.462543 572.104737,195.515723 C571.957537,195.530423 571.519777,195.577823 571.131937,195.621153 C570.744097,195.664453 570.481877,195.610753 570.549217,195.501813 C570.616517,195.392853 570.250287,195.021413 569.735287,194.676383 C569.071887,194.231923 568.798667,193.787023 568.798017,193.150163 C568.797377,192.552353 568.673357,192.327753 568.427657,192.479613 C568.196917,192.622213 568.145147,192.567213 568.289767,192.333273 C568.417117,192.127213 568.655367,192.041463 568.819207,192.142723 C569.076557,192.301773 569.289157,191.065443 569.143767,190.255373 C569.116767,190.104843 569.279697,189.757263 569.505867,189.482983 C569.869467,189.042033 569.833697,189.028713 569.197097,189.367923 C568.801097,189.578933 568.477097,189.890503 568.477097,190.060313 C568.477097,190.605893 568.336557,190.822133 567.264357,191.926203 C566.685347,192.522423 566.277517,193.076143 566.358067,193.156693 C566.438667,193.237293 566.299167,193.542973 566.048187,193.836103 C565.797207,194.129223 565.629037,194.451333 565.674477,194.551913 C565.786747,194.800383 564.911907,195.641463 564.300977,195.872403 C564.028107,195.975553 563.463127,195.877403 563.045467,195.653533 C562.004697,195.096523 561.824847,193.923973 562.357647,191.169053 Z M534.557117,194.164193 C534.557117,193.530003 535.796457,192.226153 536.176197,192.460843 C536.341707,192.563133 536.477117,192.494343 536.477117,192.307943 C536.477117,191.812963 537.296417,191.893943 537.743917,192.433143 C538.617767,193.486073 538.193717,195.296713 536.998107,195.617563 C535.926057,195.905263 535.652357,195.848883 535.086717,195.223853 C534.795437,194.901993 534.557117,194.425153 534.557117,194.164193 Z M449.641397,173.249053 C449.742707,172.985053 449.882187,172.769053 449.951357,172.769053 C450.020557,172.769053 450.077117,172.985053 450.077117,173.249053 C450.077117,173.513053 449.937637,173.729053 449.767157,173.729053 C449.596687,173.729053 449.540087,173.513053 449.641397,173.249053 Z M400.440357,137.460576 C400.788367,136.72824 401.146497,135.697053 401.236207,135.169053 C401.479487,133.737079 401.658127,133.068842 402.198617,131.569053 C402.468177,130.821053 402.626677,130.209053 402.550837,130.209053 C402.475037,130.209053 402.570737,129.813053 402.763607,129.329053 C402.956467,128.845053 403.161147,128.161053 403.218447,127.809053 C403.334097,127.098666 403.334847,127.095597 404.419857,122.929053 C404.843797,121.301053 405.120487,119.969053 405.034707,119.969053 C404.948907,119.969053 405.024607,119.789053 405.202977,119.569053 C405.381297,119.349053 405.611717,118.593053 405.715007,117.889053 C405.818307,117.185053 406.115147,115.925053 406.374667,115.089053 C406.727377,113.952832 406.749377,113.567815 406.461767,113.564154 C406.198167,113.560754 406.213207,113.472984 406.509567,113.2852 C407.043467,112.946874 407.902897,109.643405 407.848147,108.140019 C407.824747,107.498359 407.467877,106.585399 407.001267,105.973635 C406.026357,104.695465 405.652837,102.891336 406.281827,102.498734 C407.430697,101.781635 410.653397,101.849375 412.412707,102.627602 C413.213167,102.981685 413.974207,103.176364 414.103897,103.060221 C414.233597,102.944079 414.236117,103.029051 414.109897,103.249053 C413.975587,103.482437 414.054197,103.649624 414.298587,103.650423 C415.011847,103.652723 417.311887,105.343133 419.673847,107.60088 C421.297137,109.152547 422.213247,110.353347 422.928207,111.86657 C423.841157,113.798835 423.907597,114.159783 423.733207,116.239904 C423.473507,119.337594 422.081637,122.03224 419.277477,124.866147 C418.089477,126.066746 417.117477,126.9732 417.117477,126.88049 C417.117477,126.78778 416.784187,127.030778 416.376827,127.420487 C415.969477,127.810199 415.703727,128.259303 415.786277,128.418496 C415.868777,128.57769 415.794277,128.620058 415.620377,128.512646 C415.446577,128.405238 414.762157,128.68581 414.099437,129.13614 C413.436707,129.586473 412.728657,129.98303 412.525977,130.017378 C412.323297,130.051728 411.869477,130.233353 411.517477,130.420991 C410.893087,130.753826 408.539337,131.212063 407.455747,131.21174 C407.051747,131.211622 406.824137,131.673977 406.560517,133.030316 C406.366087,134.03062 406.001127,135.353052 405.749507,135.969052 C405.497877,136.585052 405.132237,137.809052 404.936967,138.689052 C404.417147,141.031718 403.981767,142.03494 403.334617,142.381282 C403.018327,142.550556 402.714077,142.677682 402.658507,142.663788 C402.602907,142.649898 402.182277,142.500831 401.723707,142.332534 C400.116167,141.742698 399.506177,139.426381 400.440357,137.460576 Z M416.531737,119.642819 C417.654407,118.171226 419.363337,115.341075 419.333107,115.003479 C419.325107,114.915379 419.413307,114.213066 419.528787,113.442775 C419.654107,112.607075 419.594287,111.772234 419.380487,111.372723 C418.475607,109.681927 414.782737,106.90177 413.275647,106.776723 L412.219037,106.689053 L412.162237,109.569053 C412.131037,111.153053 412.013237,112.665053 411.900527,112.929053 C411.787827,113.193053 411.626827,113.769053 411.542757,114.209053 C411.224727,115.873655 411.042047,116.689747 410.360857,119.489053 C409.975397,121.073053 409.480057,122.945053 409.260087,123.649053 C409.040117,124.353053 408.922477,125.030602 408.998657,125.15472 C409.202427,125.486727 411.603567,124.133955 413.607927,122.557907 C414.569987,121.80144 415.885697,120.489651 416.531737,119.642819 Z M463.417667,141.295171 C463.343767,141.369091 463.105347,140.956957 462.887897,140.379312 C462.670437,139.801671 462.376117,139.041053 462.233837,138.689053 C461.660597,137.270848 461.505797,136.720563 461.378627,135.649053 C461.305527,135.033053 461.191477,134.241053 461.125187,133.889053 C461.058887,133.537053 460.993977,132.997053 460.980897,132.689053 C460.955397,132.088544 459.997117,131.889431 459.997117,132.484643 C459.997117,132.680218 459.441047,133.508218 458.761407,134.324643 C457.297267,136.083463 456.413237,137.708816 456.729877,138.059786 C456.362577,137.971063 456.120617,138.139926 456.007897,138.495079 C455.900487,138.833504 455.388417,139.591597 454.869967,140.179725 C454.351527,140.767853 453.925037,141.356775 453.922227,141.488439 C453.919227,141.620103 453.305117,141.675319 452.557117,141.61114 C451.316867,141.504727 451.133517,141.370938 450.474847,140.091751 C450.077597,139.320266 449.573597,138.735418 449.354847,138.79209 C448.762157,138.945632 447.197117,140.511482 447.197117,140.950932 C447.197117,141.161108 446.525997,141.502061 445.705747,141.708605 C443.932697,142.155063 442.726487,141.790095 441.357117,140.39281 C440.873117,139.898944 440.477117,139.661565 440.477117,139.865296 C440.477117,140.069028 440.381817,140.140407 440.265317,140.023914 C440.148827,139.907424 439.548077,140.197629 438.930317,140.668813 C437.256677,141.94536 434.923997,142.067312 433.297157,140.963309 C432.621017,140.504471 432.177537,140.129053 432.311647,140.129053 C432.445757,140.129053 432.409147,139.949053 432.230347,139.729053 C431.447277,138.765453 430.557117,136.84513 430.557117,136.119319 C430.557117,135.684672 430.413117,135.329053 430.237117,135.329053 C430.061117,135.329053 429.917117,135.45337 429.917117,135.605315 C429.917117,135.757258 429.204167,136.847392 428.332777,138.027837 C426.706227,140.231277 424.602417,142.164266 424.141107,141.879159 C423.998237,141.790859 423.797447,141.854359 423.694917,142.020259 C423.420117,142.464893 421.797777,141.914675 420.528067,140.946221 C419.270077,139.986701 418.942817,138.872122 419.389787,137.069447 C419.831707,135.287181 419.796187,135.381392 420.890467,133.089053 C423.347237,127.942535 425.607707,124.669133 427.521817,123.486147 C428.095217,123.131767 428.639247,122.555447 428.730787,122.205437 C428.822287,121.855424 429.136967,121.569053 429.430017,121.569053 C429.723067,121.569053 430.188087,121.343795 430.463397,121.06848 C430.817277,120.714611 431.063787,120.667719 431.304547,120.90848 C431.787687,121.391619 432.496727,121.330496 433.137677,120.750448 C433.631737,120.303325 433.807797,120.301639 434.842867,120.734128 C435.477707,120.999379 435.997117,121.129431 435.997117,121.023136 C435.997117,120.916839 436.285117,121.090506 436.637117,121.409059 C437.444997,122.140186 437.442427,123.089965 436.624417,126.070701 C435.310967,130.856947 434.512727,136.558496 434.931747,138.160816 C435.074127,138.705271 435.280337,138.80657 435.953607,138.662784 C437.070237,138.424314 439.194217,137.522138 439.208007,137.280461 C439.214007,137.175191 439.263507,136.009059 439.317997,134.689059 C439.372497,133.369059 439.663977,131.281059 439.965757,130.049059 C440.267537,128.817059 440.552227,127.593059 440.598397,127.329059 C440.644597,127.065059 440.768117,126.633059 440.872957,126.369059 C440.977787,126.105059 441.313767,125.198269 441.619567,124.353965 C442.223447,122.686672 442.808487,122.209059 444.246957,122.209059 C445.396407,122.209059 447.627787,124.221498 447.382397,125.036842 C447.155567,125.79049 446.887347,127.253415 446.668767,128.929059 C446.565457,129.721059 446.348997,130.621059 446.187747,130.929059 C446.026497,131.237059 446.007637,131.491264 446.145847,131.493959 C446.284037,131.496559 446.231547,131.604653 446.029187,131.733959 C445.826827,131.863264 445.618327,132.473059 445.565847,133.089059 C445.513347,133.705059 445.371547,134.353059 445.250717,134.529059 C444.856747,135.102871 444.576577,136.929059 444.882517,136.929059 C445.375087,136.929059 447.104137,135.986656 447.510987,135.496439 C447.720657,135.243799 447.800327,134.888435 447.688027,134.706743 C447.565877,134.509095 447.685027,134.453571 447.984557,134.568525 C448.539297,134.781399 449.523177,134.12721 449.268357,133.714912 C449.179457,133.571015 449.275357,133.349082 449.481327,133.221728 C449.737557,133.06337 449.770367,133.132248 449.585117,133.439616 C449.360587,133.812179 449.400587,133.819146 449.818967,133.480346 C450.096557,133.255552 450.566697,132.103552 450.863727,130.920346 C451.160747,129.737136 451.592387,128.337056 451.822917,127.809056 C452.499247,126.26001 452.944937,124.974768 453.043567,124.289056 C453.094167,123.937056 453.220547,123.505056 453.324347,123.329056 C453.678317,122.728845 454.361377,120.450887 454.411197,119.704432 C454.438497,119.294887 454.831327,118.58938 455.284067,118.13664 C456.063167,117.35754 456.136757,117.342992 456.658667,117.864909 C457.074367,118.280608 457.269907,118.319584 457.453057,118.023248 C457.626837,117.742064 457.932457,117.885287 458.526557,118.52633 C459.448547,119.521181 459.461777,119.593524 459.053867,121.409056 C458.895697,122.113056 458.721187,123.193056 458.666067,123.809056 C458.610967,124.425056 458.364597,125.138628 458.118617,125.394772 C457.841957,125.682868 457.799097,125.903056 458.006247,125.972103 C458.190417,126.033493 458.830457,125.594372 459.428547,124.996279 C460.763087,123.661741 461.871277,123.35376 463.539877,123.853687 C464.489017,124.138055 464.948067,124.510461 465.322747,125.300039 C465.600277,125.884893 465.931547,126.299018 466.058897,126.220311 C466.399427,126.00985 466.445777,126.647127 466.504117,132.341712 C466.533217,135.186672 466.666907,137.62448 466.801127,137.759063 C467.175087,138.134071 469.351397,136.988154 469.084717,136.556656 C468.948247,136.335834 468.999417,136.27746 469.213577,136.409792 C469.409017,136.530586 470.057787,136.425152 470.655287,136.175508 C471.693307,135.741799 471.750057,135.631005 471.930807,133.685328 C472.097937,131.886279 472.030827,131.518576 471.354757,130.529056 C470.056557,128.628948 470.498577,126.803904 472.397107,126.225341 C472.793107,126.104666 473.128117,125.835632 473.141587,125.627492 C473.155087,125.419354 473.211887,125.033056 473.267867,124.769056 C473.476937,123.783168 473.859657,121.38632 473.909147,120.752896 C473.937347,120.39201 474.042067,119.96001 474.141847,119.792896 C474.241647,119.625786 474.420047,118.841056 474.538327,118.049056 C474.656607,117.257056 474.880017,116.321056 475.034797,115.969056 C475.189567,115.617056 475.690617,113.961056 476.148227,112.289056 C476.605837,110.617056 477.139357,108.673056 477.333827,107.969056 C478.145597,105.030368 479.008707,102.961143 479.541707,102.67589 C480.364197,102.235705 481.818667,103.1706 482.497187,104.575602 C483.288487,106.214119 482.993687,108.123181 480.918517,114.798829 C479.959367,117.884343 479.243577,120.588596 479.327877,120.808282 C479.412177,121.027965 479.367177,121.253012 479.227827,121.308381 C479.088497,121.363751 478.878137,122.025732 478.760357,122.779447 L478.546217,124.149837 L479.660347,124.074807 C480.273127,124.033537 480.874327,124.099607 480.996347,124.221642 C481.118377,124.343667 481.375467,124.320092 481.567657,124.169242 C481.950667,123.868637 485.258267,123.459914 488.399517,123.325021 L490.401937,123.239031 L490.332837,124.146093 C490.284637,124.77922 490.052947,125.106055 489.565807,125.22832 C489.179107,125.32538 488.782007,125.74568 488.675287,126.17088 C488.511547,126.823287 487.772067,127.272736 486.549427,127.462967 C486.457227,127.477307 485.954667,127.885056 485.432697,128.369056 C484.910717,128.853056 484.297557,129.249056 484.070107,129.249056 C483.842657,129.249056 483.121187,129.488039 482.466837,129.780132 C481.812487,130.072221 481.205117,130.334234 481.117117,130.362384 C481.029117,130.390544 480.381117,130.587127 479.677117,130.799252 C478.973117,131.01138 477.943117,131.577364 477.388217,132.056999 C476.216047,133.070196 475.940047,134.174864 475.831197,138.289056 C475.736397,141.873076 475.787197,141.650989 475.004937,141.899268 C474.477337,142.066724 474.071067,141.814708 473.116047,140.727588 L471.899327,139.34257 L470.315257,140.97744 C468.945447,142.391184 468.562517,142.612679 467.484147,142.615028 C466.788427,142.616628 465.643587,142.29568 464.894587,141.889258 C464.156207,141.488586 463.491587,141.221248 463.417667,141.295171 Z M524.073457,140.649232 L523.349787,140.010608 L522.298217,141.029831 C519.578917,143.665482 516.697897,140.847789 516.542137,135.400282 C516.535137,135.169735 516.140097,135.365492 515.635157,135.849248 C515.142757,136.321005 514.815247,136.828954 514.907377,136.978019 C514.999477,137.127088 514.945477,137.249053 514.787367,137.249053 C514.629237,137.249053 514.333357,137.614467 514.129867,138.061082 C513.926367,138.507699 513.612587,139.047699 513.432567,139.261082 C513.252547,139.474467 512.850617,139.95969 512.539407,140.33936 C511.536987,141.562259 510.799697,141.409683 509.976837,139.809053 C509.235827,138.367642 509.208577,137.773002 509.710287,133.992448 C509.799587,133.319338 509.696887,133.145421 509.230547,133.180547 C508.904157,133.205127 508.637117,133.338605 508.637117,133.477149 C508.637117,133.615696 508.529117,133.712 508.397117,133.691159 C508.265117,133.670329 508.085117,133.681019 507.997117,133.714939 C507.909117,133.748859 507.477307,133.842471 507.037547,133.922971 C506.597777,134.003471 505.717997,134.413428 505.082467,134.833998 C504.170067,135.437799 503.871747,135.890091 503.664497,136.983863 C503.296897,138.923905 503.285847,139.237329 503.557527,140.017486 C503.829157,140.797479 503.089167,141.651243 502.157117,141.633217 C501.849117,141.627217 501.669627,141.549887 501.758237,141.461265 C501.846837,141.372645 501.690637,140.95106 501.411077,140.524404 C501.068647,140.001793 500.882837,138.897079 500.841647,137.138862 C500.808047,135.703467 500.599277,134.205262 500.377797,133.809518 C499.787347,132.754523 500.059307,131.351028 500.877627,131.230062 C501.385307,131.155012 501.606787,130.806708 501.793287,129.790062 C501.928597,129.052506 502.056317,128.377053 502.077117,128.289053 C502.097917,128.201053 502.224337,127.481053 502.358057,126.689053 C502.491767,125.897053 502.791477,124.601053 503.024057,123.809053 C503.256647,123.017053 503.690477,121.546311 503.988137,120.540739 C504.285797,119.535165 504.423337,118.540915 504.293787,118.331296 C504.145267,118.090989 504.194687,118.034531 504.427677,118.178496 C504.654827,118.318883 504.797577,118.183896 504.798317,117.827939 C504.800317,117.081274 505.962747,115.169053 506.415267,115.169053 C506.606427,115.169053 506.967987,115.374208 507.218737,115.624954 C508.341887,116.748106 508.421807,118.469808 507.503477,121.758861 C507.253197,122.655255 506.995507,123.663255 506.930837,123.998861 C506.866137,124.334467 506.736607,124.825053 506.642917,125.089053 C506.421437,125.713175 505.833067,127.929072 505.644557,128.849053 C505.540667,129.356115 505.653557,129.581011 506.027077,129.609488 C507.674757,129.735187 508.188917,129.730275 508.477117,129.586098 C508.836727,129.406165 509.077747,129.36749 510.273637,129.29781 C510.966497,129.25744 511.203347,128.988018 511.652687,127.729071 C511.951077,126.893071 512.330637,125.959026 512.496167,125.653413 C512.661687,125.347801 512.797117,124.764601 512.797117,124.357413 C512.797117,123.950226 512.923417,123.480271 513.077787,123.313071 C513.427217,122.934585 514.556177,119.584457 514.455327,119.225285 C514.414627,119.080204 514.528827,119.052703 514.709187,119.164175 C514.889547,119.275644 515.037117,119.150515 515.037117,118.886104 C515.037117,118.197557 516.339797,117.349538 516.804757,117.73541 C517.008937,117.904872 517.246627,117.972895 517.332957,117.886572 C517.419257,117.800252 517.642827,118.227884 517.829727,118.836872 C518.131007,119.818533 517.990157,120.462783 516.587957,124.5166 C513.446267,133.599365 513.505487,133.395004 514.108587,133.072229 C514.407327,132.912348 515.244217,132.108466 515.968337,131.285823 L517.284917,129.790108 L518.585817,130.179868 C519.623417,130.490738 519.985997,130.80724 520.377247,131.743624 C520.851437,132.87852 520.846717,133.356716 520.323247,137.214856 C520.127907,138.654581 520.314247,138.8726 521.412187,138.489813 C522.184817,138.220476 522.341997,137.97878 522.388227,136.988927 C522.418527,136.340008 522.463027,135.423164 522.487027,134.951496 C522.511127,134.479829 522.644677,134.164325 522.783917,134.250383 C522.923157,134.336433 523.037077,134.243083 523.037077,134.042959 C523.037077,133.842818 523.551517,132.609503 524.180277,131.302255 C525.390807,128.785461 527.261217,126.493173 527.821657,126.839544 C528.006137,126.95356 528.157077,126.817274 528.157077,126.5367 C528.157077,126.108223 528.271277,126.087676 528.870477,126.408354 C532.290817,128.238869 531.952007,131.718876 527.930947,136.058508 C526.031317,138.108629 526.163817,138.71701 528.485117,138.603106 C529.448697,138.555826 530.453077,138.426076 530.717077,138.314773 C531.692297,137.903628 532.047447,137.936248 531.861837,138.419925 C531.760227,138.684732 531.677077,139.177624 531.677077,139.515231 C531.677077,139.852834 531.470777,140.129058 531.218637,140.129058 C530.966497,140.129058 530.674237,140.399909 530.569167,140.730952 C530.404477,141.249868 528.832237,141.906572 528.077077,141.771868 C527.945077,141.748318 527.837077,141.837058 527.837077,141.969058 C527.837077,142.378652 526.317807,142.23286 525.538297,141.74846 C525.130667,141.495127 524.471467,141.000477 524.073457,140.649232 Z M445.926337,116.923357 C445.629057,117.107085 444.331987,115.061251 444.108207,114.055667 C443.659777,112.040615 443.663927,111.969082 444.230857,111.94457 C444.826747,111.91881 445.243717,111.84781 446.776897,111.511063 C448.296667,111.177267 448.887967,112.117501 448.925847,114.92809 L448.957117,117.249053 L447.786847,117.346603 C447.143197,117.400253 446.521247,117.289903 446.404737,117.10138 C446.288217,116.912858 446.072937,116.832749 445.926337,116.923357 Z" id="text_2lines-copy"></path>
        </g>
    </g>
</svg>